G04 EAGLE Gerber RS-274X export*
G75*
%MOMM*%
%FSLAX34Y34*%
%LPD*%
%INSolderpaste Top*%
%IPPOS*%
%AMOC8*
5,1,8,0,0,1.08239X$1,22.5*%
G01*
%ADD10C,0.140000*%
%ADD11R,0.700000X0.600000*%
%ADD12R,0.600000X0.700000*%
%ADD13C,0.139500*%
%ADD14C,0.196500*%
%ADD15R,0.750000X1.000000*%
%ADD16R,0.740000X0.925000*%
%ADD17R,1.800000X1.550000*%
%ADD18R,1.500000X1.950000*%
%ADD19R,0.925000X0.740000*%
%ADD20R,1.800000X1.000000*%
%ADD21R,3.300000X1.700000*%
%ADD22R,0.800000X0.800000*%
%ADD23R,1.000000X0.750000*%
%ADD24R,1.550000X1.800000*%
%ADD25R,1.950000X1.500000*%
%ADD26R,1.000000X1.800000*%
%ADD27R,1.700000X3.300000*%


D10*
X119608Y268148D02*
X120598Y269138D01*
X130638Y259098D01*
X129648Y258108D01*
X119608Y268148D01*
X128318Y259438D02*
X130298Y259438D01*
X128968Y260768D02*
X126988Y260768D01*
X127638Y262098D02*
X125658Y262098D01*
X126308Y263428D02*
X124328Y263428D01*
X124978Y264758D02*
X122998Y264758D01*
X123648Y266088D02*
X121668Y266088D01*
X122318Y267418D02*
X120338Y267418D01*
X120208Y268748D02*
X120988Y268748D01*
X123143Y271683D02*
X124133Y272673D01*
X134173Y262633D01*
X133183Y261643D01*
X123143Y271683D01*
X131853Y262973D02*
X133833Y262973D01*
X132503Y264303D02*
X130523Y264303D01*
X131173Y265633D02*
X129193Y265633D01*
X129843Y266963D02*
X127863Y266963D01*
X128513Y268293D02*
X126533Y268293D01*
X127183Y269623D02*
X125203Y269623D01*
X125853Y270953D02*
X123873Y270953D01*
X123743Y272283D02*
X124523Y272283D01*
X126679Y275219D02*
X127669Y276209D01*
X137709Y266169D01*
X136719Y265179D01*
X126679Y275219D01*
X135389Y266509D02*
X137369Y266509D01*
X136039Y267839D02*
X134059Y267839D01*
X134709Y269169D02*
X132729Y269169D01*
X133379Y270499D02*
X131399Y270499D01*
X132049Y271829D02*
X130069Y271829D01*
X130719Y273159D02*
X128739Y273159D01*
X129389Y274489D02*
X127409Y274489D01*
X127279Y275819D02*
X128059Y275819D01*
X130214Y278754D02*
X131204Y279744D01*
X141244Y269704D01*
X140254Y268714D01*
X130214Y278754D01*
X138924Y270044D02*
X140904Y270044D01*
X139574Y271374D02*
X137594Y271374D01*
X138244Y272704D02*
X136264Y272704D01*
X136914Y274034D02*
X134934Y274034D01*
X135584Y275364D02*
X133604Y275364D01*
X134254Y276694D02*
X132274Y276694D01*
X132924Y278024D02*
X130944Y278024D01*
X130814Y279354D02*
X131594Y279354D01*
X133750Y282290D02*
X134740Y283280D01*
X144780Y273240D01*
X143790Y272250D01*
X133750Y282290D01*
X142460Y273580D02*
X144440Y273580D01*
X143110Y274910D02*
X141130Y274910D01*
X141780Y276240D02*
X139800Y276240D01*
X140450Y277570D02*
X138470Y277570D01*
X139120Y278900D02*
X137140Y278900D01*
X137790Y280230D02*
X135810Y280230D01*
X136460Y281560D02*
X134480Y281560D01*
X134350Y282890D02*
X135130Y282890D01*
X137285Y285825D02*
X138275Y286815D01*
X148315Y276775D01*
X147325Y275785D01*
X137285Y285825D01*
X145995Y277115D02*
X147975Y277115D01*
X146645Y278445D02*
X144665Y278445D01*
X145315Y279775D02*
X143335Y279775D01*
X143985Y281105D02*
X142005Y281105D01*
X142655Y282435D02*
X140675Y282435D01*
X141325Y283765D02*
X139345Y283765D01*
X139995Y285095D02*
X138015Y285095D01*
X137885Y286425D02*
X138665Y286425D01*
X140821Y289361D02*
X141811Y290351D01*
X151851Y280311D01*
X150861Y279321D01*
X140821Y289361D01*
X149531Y280651D02*
X151511Y280651D01*
X150181Y281981D02*
X148201Y281981D01*
X148851Y283311D02*
X146871Y283311D01*
X147521Y284641D02*
X145541Y284641D01*
X146191Y285971D02*
X144211Y285971D01*
X144861Y287301D02*
X142881Y287301D01*
X143531Y288631D02*
X141551Y288631D01*
X141421Y289961D02*
X142201Y289961D01*
X144357Y292896D02*
X145347Y293886D01*
X155387Y283846D01*
X154397Y282856D01*
X144357Y292896D01*
X153067Y284186D02*
X155047Y284186D01*
X153717Y285516D02*
X151737Y285516D01*
X152387Y286846D02*
X150407Y286846D01*
X151057Y288176D02*
X149077Y288176D01*
X149727Y289506D02*
X147747Y289506D01*
X148397Y290836D02*
X146417Y290836D01*
X147067Y292166D02*
X145087Y292166D01*
X144957Y293496D02*
X145737Y293496D01*
X147892Y296432D02*
X148882Y297422D01*
X158922Y287382D01*
X157932Y286392D01*
X147892Y296432D01*
X156602Y287722D02*
X158582Y287722D01*
X157252Y289052D02*
X155272Y289052D01*
X155922Y290382D02*
X153942Y290382D01*
X154592Y291712D02*
X152612Y291712D01*
X153262Y293042D02*
X151282Y293042D01*
X151932Y294372D02*
X149952Y294372D01*
X150602Y295702D02*
X148622Y295702D01*
X148492Y297032D02*
X149272Y297032D01*
X151428Y299967D02*
X152418Y300957D01*
X162458Y290917D01*
X161468Y289927D01*
X151428Y299967D01*
X160138Y291257D02*
X162118Y291257D01*
X160788Y292587D02*
X158808Y292587D01*
X159458Y293917D02*
X157478Y293917D01*
X158128Y295247D02*
X156148Y295247D01*
X156798Y296577D02*
X154818Y296577D01*
X155468Y297907D02*
X153488Y297907D01*
X154138Y299237D02*
X152158Y299237D01*
X152028Y300567D02*
X152808Y300567D01*
X154963Y303503D02*
X155953Y304493D01*
X165993Y294453D01*
X165003Y293463D01*
X154963Y303503D01*
X163673Y294793D02*
X165653Y294793D01*
X164323Y296123D02*
X162343Y296123D01*
X162993Y297453D02*
X161013Y297453D01*
X161663Y298783D02*
X159683Y298783D01*
X160333Y300113D02*
X158353Y300113D01*
X159003Y301443D02*
X157023Y301443D01*
X157673Y302773D02*
X155693Y302773D01*
X155563Y304103D02*
X156343Y304103D01*
X158499Y307038D02*
X159489Y308028D01*
X169529Y297988D01*
X168539Y296998D01*
X158499Y307038D01*
X167209Y298328D02*
X169189Y298328D01*
X167859Y299658D02*
X165879Y299658D01*
X166529Y300988D02*
X164549Y300988D01*
X165199Y302318D02*
X163219Y302318D01*
X163869Y303648D02*
X161889Y303648D01*
X162539Y304978D02*
X160559Y304978D01*
X161209Y306308D02*
X159229Y306308D01*
X159099Y307638D02*
X159879Y307638D01*
X169529Y327262D02*
X168539Y328252D01*
X169529Y327262D02*
X159489Y317222D01*
X158499Y318212D01*
X168539Y328252D01*
X160819Y318552D02*
X158839Y318552D01*
X160169Y319882D02*
X162149Y319882D01*
X161499Y321212D02*
X163479Y321212D01*
X162829Y322542D02*
X164809Y322542D01*
X164159Y323872D02*
X166139Y323872D01*
X165489Y325202D02*
X167469Y325202D01*
X166819Y326532D02*
X168799Y326532D01*
X168929Y327862D02*
X168149Y327862D01*
X165993Y330797D02*
X165003Y331787D01*
X165993Y330797D02*
X155953Y320757D01*
X154963Y321747D01*
X165003Y331787D01*
X157283Y322087D02*
X155303Y322087D01*
X156633Y323417D02*
X158613Y323417D01*
X157963Y324747D02*
X159943Y324747D01*
X159293Y326077D02*
X161273Y326077D01*
X160623Y327407D02*
X162603Y327407D01*
X161953Y328737D02*
X163933Y328737D01*
X163283Y330067D02*
X165263Y330067D01*
X165393Y331397D02*
X164613Y331397D01*
X162458Y334333D02*
X161468Y335323D01*
X162458Y334333D02*
X152418Y324293D01*
X151428Y325283D01*
X161468Y335323D01*
X153748Y325623D02*
X151768Y325623D01*
X153098Y326953D02*
X155078Y326953D01*
X154428Y328283D02*
X156408Y328283D01*
X155758Y329613D02*
X157738Y329613D01*
X157088Y330943D02*
X159068Y330943D01*
X158418Y332273D02*
X160398Y332273D01*
X159748Y333603D02*
X161728Y333603D01*
X161858Y334933D02*
X161078Y334933D01*
X158922Y337868D02*
X157932Y338858D01*
X158922Y337868D02*
X148882Y327828D01*
X147892Y328818D01*
X157932Y338858D01*
X150212Y329158D02*
X148232Y329158D01*
X149562Y330488D02*
X151542Y330488D01*
X150892Y331818D02*
X152872Y331818D01*
X152222Y333148D02*
X154202Y333148D01*
X153552Y334478D02*
X155532Y334478D01*
X154882Y335808D02*
X156862Y335808D01*
X156212Y337138D02*
X158192Y337138D01*
X158322Y338468D02*
X157542Y338468D01*
X155387Y341404D02*
X154397Y342394D01*
X155387Y341404D02*
X145347Y331364D01*
X144357Y332354D01*
X154397Y342394D01*
X146677Y332694D02*
X144697Y332694D01*
X146027Y334024D02*
X148007Y334024D01*
X147357Y335354D02*
X149337Y335354D01*
X148687Y336684D02*
X150667Y336684D01*
X150017Y338014D02*
X151997Y338014D01*
X151347Y339344D02*
X153327Y339344D01*
X152677Y340674D02*
X154657Y340674D01*
X154787Y342004D02*
X154007Y342004D01*
X151851Y344939D02*
X150861Y345929D01*
X151851Y344939D02*
X141811Y334899D01*
X140821Y335889D01*
X150861Y345929D01*
X143141Y336229D02*
X141161Y336229D01*
X142491Y337559D02*
X144471Y337559D01*
X143821Y338889D02*
X145801Y338889D01*
X145151Y340219D02*
X147131Y340219D01*
X146481Y341549D02*
X148461Y341549D01*
X147811Y342879D02*
X149791Y342879D01*
X149141Y344209D02*
X151121Y344209D01*
X151251Y345539D02*
X150471Y345539D01*
X148315Y348475D02*
X147325Y349465D01*
X148315Y348475D02*
X138275Y338435D01*
X137285Y339425D01*
X147325Y349465D01*
X139605Y339765D02*
X137625Y339765D01*
X138955Y341095D02*
X140935Y341095D01*
X140285Y342425D02*
X142265Y342425D01*
X141615Y343755D02*
X143595Y343755D01*
X142945Y345085D02*
X144925Y345085D01*
X144275Y346415D02*
X146255Y346415D01*
X145605Y347745D02*
X147585Y347745D01*
X147715Y349075D02*
X146935Y349075D01*
X144780Y352010D02*
X143790Y353000D01*
X144780Y352010D02*
X134740Y341970D01*
X133750Y342960D01*
X143790Y353000D01*
X136070Y343300D02*
X134090Y343300D01*
X135420Y344630D02*
X137400Y344630D01*
X136750Y345960D02*
X138730Y345960D01*
X138080Y347290D02*
X140060Y347290D01*
X139410Y348620D02*
X141390Y348620D01*
X140740Y349950D02*
X142720Y349950D01*
X142070Y351280D02*
X144050Y351280D01*
X144180Y352610D02*
X143400Y352610D01*
X141244Y355546D02*
X140254Y356536D01*
X141244Y355546D02*
X131204Y345506D01*
X130214Y346496D01*
X140254Y356536D01*
X132534Y346836D02*
X130554Y346836D01*
X131884Y348166D02*
X133864Y348166D01*
X133214Y349496D02*
X135194Y349496D01*
X134544Y350826D02*
X136524Y350826D01*
X135874Y352156D02*
X137854Y352156D01*
X137204Y353486D02*
X139184Y353486D01*
X138534Y354816D02*
X140514Y354816D01*
X140644Y356146D02*
X139864Y356146D01*
X137709Y359081D02*
X136719Y360071D01*
X137709Y359081D02*
X127669Y349041D01*
X126679Y350031D01*
X136719Y360071D01*
X128999Y350371D02*
X127019Y350371D01*
X128349Y351701D02*
X130329Y351701D01*
X129679Y353031D02*
X131659Y353031D01*
X131009Y354361D02*
X132989Y354361D01*
X132339Y355691D02*
X134319Y355691D01*
X133669Y357021D02*
X135649Y357021D01*
X134999Y358351D02*
X136979Y358351D01*
X137109Y359681D02*
X136329Y359681D01*
X134173Y362617D02*
X133183Y363607D01*
X134173Y362617D02*
X124133Y352577D01*
X123143Y353567D01*
X133183Y363607D01*
X125463Y353907D02*
X123483Y353907D01*
X124813Y355237D02*
X126793Y355237D01*
X126143Y356567D02*
X128123Y356567D01*
X127473Y357897D02*
X129453Y357897D01*
X128803Y359227D02*
X130783Y359227D01*
X130133Y360557D02*
X132113Y360557D01*
X131463Y361887D02*
X133443Y361887D01*
X133573Y363217D02*
X132793Y363217D01*
X130638Y366152D02*
X129648Y367142D01*
X130638Y366152D02*
X120598Y356112D01*
X119608Y357102D01*
X129648Y367142D01*
X121928Y357442D02*
X119948Y357442D01*
X121278Y358772D02*
X123258Y358772D01*
X122608Y360102D02*
X124588Y360102D01*
X123938Y361432D02*
X125918Y361432D01*
X125268Y362762D02*
X127248Y362762D01*
X126598Y364092D02*
X128578Y364092D01*
X127928Y365422D02*
X129908Y365422D01*
X130038Y366752D02*
X129258Y366752D01*
X100375Y367142D02*
X99385Y366152D01*
X100375Y367142D02*
X110415Y357102D01*
X109425Y356112D01*
X99385Y366152D01*
X108095Y357442D02*
X110075Y357442D01*
X108745Y358772D02*
X106765Y358772D01*
X107415Y360102D02*
X105435Y360102D01*
X106085Y361432D02*
X104105Y361432D01*
X104755Y362762D02*
X102775Y362762D01*
X103425Y364092D02*
X101445Y364092D01*
X102095Y365422D02*
X100115Y365422D01*
X99985Y366752D02*
X100765Y366752D01*
X96839Y363607D02*
X95849Y362617D01*
X96839Y363607D02*
X106879Y353567D01*
X105889Y352577D01*
X95849Y362617D01*
X104559Y353907D02*
X106539Y353907D01*
X105209Y355237D02*
X103229Y355237D01*
X103879Y356567D02*
X101899Y356567D01*
X102549Y357897D02*
X100569Y357897D01*
X101219Y359227D02*
X99239Y359227D01*
X99889Y360557D02*
X97909Y360557D01*
X98559Y361887D02*
X96579Y361887D01*
X96449Y363217D02*
X97229Y363217D01*
X93303Y360071D02*
X92313Y359081D01*
X93303Y360071D02*
X103343Y350031D01*
X102353Y349041D01*
X92313Y359081D01*
X101023Y350371D02*
X103003Y350371D01*
X101673Y351701D02*
X99693Y351701D01*
X100343Y353031D02*
X98363Y353031D01*
X99013Y354361D02*
X97033Y354361D01*
X97683Y355691D02*
X95703Y355691D01*
X96353Y357021D02*
X94373Y357021D01*
X95023Y358351D02*
X93043Y358351D01*
X92913Y359681D02*
X93693Y359681D01*
X89768Y356536D02*
X88778Y355546D01*
X89768Y356536D02*
X99808Y346496D01*
X98818Y345506D01*
X88778Y355546D01*
X97488Y346836D02*
X99468Y346836D01*
X98138Y348166D02*
X96158Y348166D01*
X96808Y349496D02*
X94828Y349496D01*
X95478Y350826D02*
X93498Y350826D01*
X94148Y352156D02*
X92168Y352156D01*
X92818Y353486D02*
X90838Y353486D01*
X91488Y354816D02*
X89508Y354816D01*
X89378Y356146D02*
X90158Y356146D01*
X86232Y353000D02*
X85242Y352010D01*
X86232Y353000D02*
X96272Y342960D01*
X95282Y341970D01*
X85242Y352010D01*
X93952Y343300D02*
X95932Y343300D01*
X94602Y344630D02*
X92622Y344630D01*
X93272Y345960D02*
X91292Y345960D01*
X91942Y347290D02*
X89962Y347290D01*
X90612Y348620D02*
X88632Y348620D01*
X89282Y349950D02*
X87302Y349950D01*
X87952Y351280D02*
X85972Y351280D01*
X85842Y352610D02*
X86622Y352610D01*
X82697Y349465D02*
X81707Y348475D01*
X82697Y349465D02*
X92737Y339425D01*
X91747Y338435D01*
X81707Y348475D01*
X90417Y339765D02*
X92397Y339765D01*
X91067Y341095D02*
X89087Y341095D01*
X89737Y342425D02*
X87757Y342425D01*
X88407Y343755D02*
X86427Y343755D01*
X87077Y345085D02*
X85097Y345085D01*
X85747Y346415D02*
X83767Y346415D01*
X84417Y347745D02*
X82437Y347745D01*
X82307Y349075D02*
X83087Y349075D01*
X79161Y345929D02*
X78171Y344939D01*
X79161Y345929D02*
X89201Y335889D01*
X88211Y334899D01*
X78171Y344939D01*
X86881Y336229D02*
X88861Y336229D01*
X87531Y337559D02*
X85551Y337559D01*
X86201Y338889D02*
X84221Y338889D01*
X84871Y340219D02*
X82891Y340219D01*
X83541Y341549D02*
X81561Y341549D01*
X82211Y342879D02*
X80231Y342879D01*
X80881Y344209D02*
X78901Y344209D01*
X78771Y345539D02*
X79551Y345539D01*
X75626Y342394D02*
X74636Y341404D01*
X75626Y342394D02*
X85666Y332354D01*
X84676Y331364D01*
X74636Y341404D01*
X83346Y332694D02*
X85326Y332694D01*
X83996Y334024D02*
X82016Y334024D01*
X82666Y335354D02*
X80686Y335354D01*
X81336Y336684D02*
X79356Y336684D01*
X80006Y338014D02*
X78026Y338014D01*
X78676Y339344D02*
X76696Y339344D01*
X77346Y340674D02*
X75366Y340674D01*
X75236Y342004D02*
X76016Y342004D01*
X72090Y338858D02*
X71100Y337868D01*
X72090Y338858D02*
X82130Y328818D01*
X81140Y327828D01*
X71100Y337868D01*
X79810Y329158D02*
X81790Y329158D01*
X80460Y330488D02*
X78480Y330488D01*
X79130Y331818D02*
X77150Y331818D01*
X77800Y333148D02*
X75820Y333148D01*
X76470Y334478D02*
X74490Y334478D01*
X75140Y335808D02*
X73160Y335808D01*
X73810Y337138D02*
X71830Y337138D01*
X71700Y338468D02*
X72480Y338468D01*
X68555Y335323D02*
X67565Y334333D01*
X68555Y335323D02*
X78595Y325283D01*
X77605Y324293D01*
X67565Y334333D01*
X76275Y325623D02*
X78255Y325623D01*
X76925Y326953D02*
X74945Y326953D01*
X75595Y328283D02*
X73615Y328283D01*
X74265Y329613D02*
X72285Y329613D01*
X72935Y330943D02*
X70955Y330943D01*
X71605Y332273D02*
X69625Y332273D01*
X70275Y333603D02*
X68295Y333603D01*
X68165Y334933D02*
X68945Y334933D01*
X65019Y331787D02*
X64029Y330797D01*
X65019Y331787D02*
X75059Y321747D01*
X74069Y320757D01*
X64029Y330797D01*
X72739Y322087D02*
X74719Y322087D01*
X73389Y323417D02*
X71409Y323417D01*
X72059Y324747D02*
X70079Y324747D01*
X70729Y326077D02*
X68749Y326077D01*
X69399Y327407D02*
X67419Y327407D01*
X68069Y328737D02*
X66089Y328737D01*
X66739Y330067D02*
X64759Y330067D01*
X64629Y331397D02*
X65409Y331397D01*
X61484Y328252D02*
X60494Y327262D01*
X61484Y328252D02*
X71524Y318212D01*
X70534Y317222D01*
X60494Y327262D01*
X69204Y318552D02*
X71184Y318552D01*
X69854Y319882D02*
X67874Y319882D01*
X68524Y321212D02*
X66544Y321212D01*
X67194Y322542D02*
X65214Y322542D01*
X65864Y323872D02*
X63884Y323872D01*
X64534Y325202D02*
X62554Y325202D01*
X63204Y326532D02*
X61224Y326532D01*
X61094Y327862D02*
X61874Y327862D01*
X70534Y308028D02*
X71524Y307038D01*
X61484Y296998D01*
X60494Y297988D01*
X70534Y308028D01*
X62814Y298328D02*
X60834Y298328D01*
X62164Y299658D02*
X64144Y299658D01*
X63494Y300988D02*
X65474Y300988D01*
X64824Y302318D02*
X66804Y302318D01*
X66154Y303648D02*
X68134Y303648D01*
X67484Y304978D02*
X69464Y304978D01*
X68814Y306308D02*
X70794Y306308D01*
X70924Y307638D02*
X70144Y307638D01*
X74069Y304493D02*
X75059Y303503D01*
X65019Y293463D01*
X64029Y294453D01*
X74069Y304493D01*
X66349Y294793D02*
X64369Y294793D01*
X65699Y296123D02*
X67679Y296123D01*
X67029Y297453D02*
X69009Y297453D01*
X68359Y298783D02*
X70339Y298783D01*
X69689Y300113D02*
X71669Y300113D01*
X71019Y301443D02*
X72999Y301443D01*
X72349Y302773D02*
X74329Y302773D01*
X74459Y304103D02*
X73679Y304103D01*
X77605Y300957D02*
X78595Y299967D01*
X68555Y289927D01*
X67565Y290917D01*
X77605Y300957D01*
X69885Y291257D02*
X67905Y291257D01*
X69235Y292587D02*
X71215Y292587D01*
X70565Y293917D02*
X72545Y293917D01*
X71895Y295247D02*
X73875Y295247D01*
X73225Y296577D02*
X75205Y296577D01*
X74555Y297907D02*
X76535Y297907D01*
X75885Y299237D02*
X77865Y299237D01*
X77995Y300567D02*
X77215Y300567D01*
X81140Y297422D02*
X82130Y296432D01*
X72090Y286392D01*
X71100Y287382D01*
X81140Y297422D01*
X73420Y287722D02*
X71440Y287722D01*
X72770Y289052D02*
X74750Y289052D01*
X74100Y290382D02*
X76080Y290382D01*
X75430Y291712D02*
X77410Y291712D01*
X76760Y293042D02*
X78740Y293042D01*
X78090Y294372D02*
X80070Y294372D01*
X79420Y295702D02*
X81400Y295702D01*
X81530Y297032D02*
X80750Y297032D01*
X84676Y293886D02*
X85666Y292896D01*
X75626Y282856D01*
X74636Y283846D01*
X84676Y293886D01*
X76956Y284186D02*
X74976Y284186D01*
X76306Y285516D02*
X78286Y285516D01*
X77636Y286846D02*
X79616Y286846D01*
X78966Y288176D02*
X80946Y288176D01*
X80296Y289506D02*
X82276Y289506D01*
X81626Y290836D02*
X83606Y290836D01*
X82956Y292166D02*
X84936Y292166D01*
X85066Y293496D02*
X84286Y293496D01*
X88211Y290351D02*
X89201Y289361D01*
X79161Y279321D01*
X78171Y280311D01*
X88211Y290351D01*
X80491Y280651D02*
X78511Y280651D01*
X79841Y281981D02*
X81821Y281981D01*
X81171Y283311D02*
X83151Y283311D01*
X82501Y284641D02*
X84481Y284641D01*
X83831Y285971D02*
X85811Y285971D01*
X85161Y287301D02*
X87141Y287301D01*
X86491Y288631D02*
X88471Y288631D01*
X88601Y289961D02*
X87821Y289961D01*
X91747Y286815D02*
X92737Y285825D01*
X82697Y275785D01*
X81707Y276775D01*
X91747Y286815D01*
X84027Y277115D02*
X82047Y277115D01*
X83377Y278445D02*
X85357Y278445D01*
X84707Y279775D02*
X86687Y279775D01*
X86037Y281105D02*
X88017Y281105D01*
X87367Y282435D02*
X89347Y282435D01*
X88697Y283765D02*
X90677Y283765D01*
X90027Y285095D02*
X92007Y285095D01*
X92137Y286425D02*
X91357Y286425D01*
X95282Y283280D02*
X96272Y282290D01*
X86232Y272250D01*
X85242Y273240D01*
X95282Y283280D01*
X87562Y273580D02*
X85582Y273580D01*
X86912Y274910D02*
X88892Y274910D01*
X88242Y276240D02*
X90222Y276240D01*
X89572Y277570D02*
X91552Y277570D01*
X90902Y278900D02*
X92882Y278900D01*
X92232Y280230D02*
X94212Y280230D01*
X93562Y281560D02*
X95542Y281560D01*
X95672Y282890D02*
X94892Y282890D01*
X98818Y279744D02*
X99808Y278754D01*
X89768Y268714D01*
X88778Y269704D01*
X98818Y279744D01*
X91098Y270044D02*
X89118Y270044D01*
X90448Y271374D02*
X92428Y271374D01*
X91778Y272704D02*
X93758Y272704D01*
X93108Y274034D02*
X95088Y274034D01*
X94438Y275364D02*
X96418Y275364D01*
X95768Y276694D02*
X97748Y276694D01*
X97098Y278024D02*
X99078Y278024D01*
X99208Y279354D02*
X98428Y279354D01*
X102353Y276209D02*
X103343Y275219D01*
X93303Y265179D01*
X92313Y266169D01*
X102353Y276209D01*
X94633Y266509D02*
X92653Y266509D01*
X93983Y267839D02*
X95963Y267839D01*
X95313Y269169D02*
X97293Y269169D01*
X96643Y270499D02*
X98623Y270499D01*
X97973Y271829D02*
X99953Y271829D01*
X99303Y273159D02*
X101283Y273159D01*
X100633Y274489D02*
X102613Y274489D01*
X102743Y275819D02*
X101963Y275819D01*
X105889Y272673D02*
X106879Y271683D01*
X96839Y261643D01*
X95849Y262633D01*
X105889Y272673D01*
X98169Y262973D02*
X96189Y262973D01*
X97519Y264303D02*
X99499Y264303D01*
X98849Y265633D02*
X100829Y265633D01*
X100179Y266963D02*
X102159Y266963D01*
X101509Y268293D02*
X103489Y268293D01*
X102839Y269623D02*
X104819Y269623D01*
X104169Y270953D02*
X106149Y270953D01*
X106279Y272283D02*
X105499Y272283D01*
X109425Y269138D02*
X110415Y268148D01*
X100375Y258108D01*
X99385Y259098D01*
X109425Y269138D01*
X101705Y259438D02*
X99725Y259438D01*
X101055Y260768D02*
X103035Y260768D01*
X102385Y262098D02*
X104365Y262098D01*
X103715Y263428D02*
X105695Y263428D01*
X105045Y264758D02*
X107025Y264758D01*
X106375Y266088D02*
X108355Y266088D01*
X107705Y267418D02*
X109685Y267418D01*
X109815Y268748D02*
X109035Y268748D01*
D11*
X170574Y354250D03*
X170574Y344250D03*
X170574Y376475D03*
X170574Y366475D03*
D12*
X67624Y239713D03*
X57624Y239713D03*
X67624Y228600D03*
X57624Y228600D03*
D11*
X57861Y216138D03*
X57861Y206138D03*
X57861Y193913D03*
X57861Y183913D03*
X57861Y171688D03*
X57861Y161688D03*
X57861Y149463D03*
X57861Y139463D03*
X57861Y127238D03*
X57861Y117238D03*
X170574Y398700D03*
X170574Y388700D03*
X170574Y410925D03*
X170574Y420925D03*
X59449Y499825D03*
X59449Y509825D03*
X59449Y477600D03*
X59449Y487600D03*
X59449Y455375D03*
X59449Y465375D03*
X59449Y433150D03*
X59449Y443150D03*
X168986Y110888D03*
X168986Y120888D03*
X168986Y133113D03*
X168986Y143113D03*
X168986Y155338D03*
X168986Y165338D03*
X168986Y177563D03*
X168986Y187563D03*
X168986Y199788D03*
X168986Y209788D03*
X168986Y232013D03*
X168986Y222013D03*
X170574Y254238D03*
X170574Y244238D03*
X170574Y276463D03*
X170574Y266463D03*
X59449Y420925D03*
X59449Y410925D03*
X59449Y388700D03*
X59449Y398700D03*
X59449Y368063D03*
X59449Y378063D03*
X59449Y347425D03*
X59449Y357425D03*
D12*
X57624Y261938D03*
X67624Y261938D03*
D11*
X118186Y44213D03*
X118186Y54213D03*
D12*
X57624Y250825D03*
X67624Y250825D03*
D13*
X88158Y436947D02*
X96064Y436947D01*
X88158Y436947D02*
X88158Y448653D01*
X96064Y448653D01*
X96064Y436947D01*
X96064Y438272D02*
X88158Y438272D01*
X88158Y439597D02*
X96064Y439597D01*
X96064Y440922D02*
X88158Y440922D01*
X88158Y442247D02*
X96064Y442247D01*
X96064Y443572D02*
X88158Y443572D01*
X88158Y444897D02*
X96064Y444897D01*
X96064Y446222D02*
X88158Y446222D01*
X88158Y447547D02*
X96064Y447547D01*
X111058Y436947D02*
X118964Y436947D01*
X111058Y436947D02*
X111058Y448653D01*
X118964Y448653D01*
X118964Y436947D01*
X118964Y438272D02*
X111058Y438272D01*
X111058Y439597D02*
X118964Y439597D01*
X118964Y440922D02*
X111058Y440922D01*
X111058Y442247D02*
X118964Y442247D01*
X118964Y443572D02*
X111058Y443572D01*
X111058Y444897D02*
X118964Y444897D01*
X118964Y446222D02*
X111058Y446222D01*
X111058Y447547D02*
X118964Y447547D01*
X133958Y436947D02*
X141864Y436947D01*
X133958Y436947D02*
X133958Y448653D01*
X141864Y448653D01*
X141864Y436947D01*
X141864Y438272D02*
X133958Y438272D01*
X133958Y439597D02*
X141864Y439597D01*
X141864Y440922D02*
X133958Y440922D01*
X133958Y442247D02*
X141864Y442247D01*
X141864Y443572D02*
X133958Y443572D01*
X133958Y444897D02*
X141864Y444897D01*
X141864Y446222D02*
X133958Y446222D01*
X133958Y447547D02*
X141864Y447547D01*
D14*
X130229Y504132D02*
X99793Y504132D01*
X99793Y515268D01*
X130229Y515268D01*
X130229Y504132D01*
X130229Y505999D02*
X99793Y505999D01*
X99793Y507866D02*
X130229Y507866D01*
X130229Y509733D02*
X99793Y509733D01*
X99793Y511600D02*
X130229Y511600D01*
X130229Y513467D02*
X99793Y513467D01*
D11*
X130886Y407750D03*
X130886Y417750D03*
X153111Y417750D03*
X153111Y407750D03*
D15*
X89911Y176050D03*
X89911Y116050D03*
X127411Y116050D03*
X127411Y176050D03*
D16*
X156286Y435325D03*
X156286Y447325D03*
D11*
X168986Y446325D03*
X168986Y436325D03*
D17*
X94374Y71435D03*
X94374Y94935D03*
D18*
X64846Y99158D03*
X64846Y71658D03*
D11*
X141999Y407750D03*
X141999Y417750D03*
X119774Y407750D03*
X119774Y417750D03*
X108661Y407750D03*
X108661Y417750D03*
D19*
X121011Y374650D03*
X109011Y374650D03*
X106027Y250571D03*
X118027Y250571D03*
G36*
X154755Y259936D02*
X148215Y253396D01*
X142983Y258628D01*
X149523Y265168D01*
X154755Y259936D01*
G37*
G36*
X163240Y268422D02*
X156700Y261882D01*
X151468Y267114D01*
X158008Y273654D01*
X163240Y268422D01*
G37*
G36*
X67800Y285806D02*
X74340Y279266D01*
X69108Y274034D01*
X62568Y280574D01*
X67800Y285806D01*
G37*
G36*
X59315Y294291D02*
X65855Y287751D01*
X60623Y282519D01*
X54083Y289059D01*
X59315Y294291D01*
G37*
X75801Y51181D03*
X87801Y51181D03*
X155555Y159068D03*
X143555Y159068D03*
D20*
X111455Y200416D03*
X111455Y225416D03*
D21*
X146825Y196003D03*
X146825Y233003D03*
D16*
X155397Y180879D03*
X155397Y168879D03*
D11*
X144793Y179498D03*
X144793Y169498D03*
D19*
X168636Y76200D03*
X156636Y76200D03*
X156636Y101600D03*
X168636Y101600D03*
D22*
X146324Y69850D03*
X131324Y69850D03*
X146324Y60325D03*
X131324Y60325D03*
D12*
X132711Y80963D03*
X122711Y80963D03*
X167636Y50800D03*
X157636Y50800D03*
D10*
X369620Y268148D02*
X370610Y269138D01*
X380650Y259098D01*
X379660Y258108D01*
X369620Y268148D01*
X378330Y259438D02*
X380310Y259438D01*
X378980Y260768D02*
X377000Y260768D01*
X377650Y262098D02*
X375670Y262098D01*
X376320Y263428D02*
X374340Y263428D01*
X374990Y264758D02*
X373010Y264758D01*
X373660Y266088D02*
X371680Y266088D01*
X372330Y267418D02*
X370350Y267418D01*
X370220Y268748D02*
X371000Y268748D01*
X373156Y271683D02*
X374146Y272673D01*
X384186Y262633D01*
X383196Y261643D01*
X373156Y271683D01*
X381866Y262973D02*
X383846Y262973D01*
X382516Y264303D02*
X380536Y264303D01*
X381186Y265633D02*
X379206Y265633D01*
X379856Y266963D02*
X377876Y266963D01*
X378526Y268293D02*
X376546Y268293D01*
X377196Y269623D02*
X375216Y269623D01*
X375866Y270953D02*
X373886Y270953D01*
X373756Y272283D02*
X374536Y272283D01*
X376691Y275219D02*
X377681Y276209D01*
X387721Y266169D01*
X386731Y265179D01*
X376691Y275219D01*
X385401Y266509D02*
X387381Y266509D01*
X386051Y267839D02*
X384071Y267839D01*
X384721Y269169D02*
X382741Y269169D01*
X383391Y270499D02*
X381411Y270499D01*
X382061Y271829D02*
X380081Y271829D01*
X380731Y273159D02*
X378751Y273159D01*
X379401Y274489D02*
X377421Y274489D01*
X377291Y275819D02*
X378071Y275819D01*
X380227Y278754D02*
X381217Y279744D01*
X391257Y269704D01*
X390267Y268714D01*
X380227Y278754D01*
X388937Y270044D02*
X390917Y270044D01*
X389587Y271374D02*
X387607Y271374D01*
X388257Y272704D02*
X386277Y272704D01*
X386927Y274034D02*
X384947Y274034D01*
X385597Y275364D02*
X383617Y275364D01*
X384267Y276694D02*
X382287Y276694D01*
X382937Y278024D02*
X380957Y278024D01*
X380827Y279354D02*
X381607Y279354D01*
X383762Y282290D02*
X384752Y283280D01*
X394792Y273240D01*
X393802Y272250D01*
X383762Y282290D01*
X392472Y273580D02*
X394452Y273580D01*
X393122Y274910D02*
X391142Y274910D01*
X391792Y276240D02*
X389812Y276240D01*
X390462Y277570D02*
X388482Y277570D01*
X389132Y278900D02*
X387152Y278900D01*
X387802Y280230D02*
X385822Y280230D01*
X386472Y281560D02*
X384492Y281560D01*
X384362Y282890D02*
X385142Y282890D01*
X387298Y285825D02*
X388288Y286815D01*
X398328Y276775D01*
X397338Y275785D01*
X387298Y285825D01*
X396008Y277115D02*
X397988Y277115D01*
X396658Y278445D02*
X394678Y278445D01*
X395328Y279775D02*
X393348Y279775D01*
X393998Y281105D02*
X392018Y281105D01*
X392668Y282435D02*
X390688Y282435D01*
X391338Y283765D02*
X389358Y283765D01*
X390008Y285095D02*
X388028Y285095D01*
X387898Y286425D02*
X388678Y286425D01*
X390833Y289361D02*
X391823Y290351D01*
X401863Y280311D01*
X400873Y279321D01*
X390833Y289361D01*
X399543Y280651D02*
X401523Y280651D01*
X400193Y281981D02*
X398213Y281981D01*
X398863Y283311D02*
X396883Y283311D01*
X397533Y284641D02*
X395553Y284641D01*
X396203Y285971D02*
X394223Y285971D01*
X394873Y287301D02*
X392893Y287301D01*
X393543Y288631D02*
X391563Y288631D01*
X391433Y289961D02*
X392213Y289961D01*
X394369Y292896D02*
X395359Y293886D01*
X405399Y283846D01*
X404409Y282856D01*
X394369Y292896D01*
X403079Y284186D02*
X405059Y284186D01*
X403729Y285516D02*
X401749Y285516D01*
X402399Y286846D02*
X400419Y286846D01*
X401069Y288176D02*
X399089Y288176D01*
X399739Y289506D02*
X397759Y289506D01*
X398409Y290836D02*
X396429Y290836D01*
X397079Y292166D02*
X395099Y292166D01*
X394969Y293496D02*
X395749Y293496D01*
X397904Y296432D02*
X398894Y297422D01*
X408934Y287382D01*
X407944Y286392D01*
X397904Y296432D01*
X406614Y287722D02*
X408594Y287722D01*
X407264Y289052D02*
X405284Y289052D01*
X405934Y290382D02*
X403954Y290382D01*
X404604Y291712D02*
X402624Y291712D01*
X403274Y293042D02*
X401294Y293042D01*
X401944Y294372D02*
X399964Y294372D01*
X400614Y295702D02*
X398634Y295702D01*
X398504Y297032D02*
X399284Y297032D01*
X401440Y299967D02*
X402430Y300957D01*
X412470Y290917D01*
X411480Y289927D01*
X401440Y299967D01*
X410150Y291257D02*
X412130Y291257D01*
X410800Y292587D02*
X408820Y292587D01*
X409470Y293917D02*
X407490Y293917D01*
X408140Y295247D02*
X406160Y295247D01*
X406810Y296577D02*
X404830Y296577D01*
X405480Y297907D02*
X403500Y297907D01*
X404150Y299237D02*
X402170Y299237D01*
X402040Y300567D02*
X402820Y300567D01*
X404975Y303503D02*
X405965Y304493D01*
X416005Y294453D01*
X415015Y293463D01*
X404975Y303503D01*
X413685Y294793D02*
X415665Y294793D01*
X414335Y296123D02*
X412355Y296123D01*
X413005Y297453D02*
X411025Y297453D01*
X411675Y298783D02*
X409695Y298783D01*
X410345Y300113D02*
X408365Y300113D01*
X409015Y301443D02*
X407035Y301443D01*
X407685Y302773D02*
X405705Y302773D01*
X405575Y304103D02*
X406355Y304103D01*
X408511Y307038D02*
X409501Y308028D01*
X419541Y297988D01*
X418551Y296998D01*
X408511Y307038D01*
X417221Y298328D02*
X419201Y298328D01*
X417871Y299658D02*
X415891Y299658D01*
X416541Y300988D02*
X414561Y300988D01*
X415211Y302318D02*
X413231Y302318D01*
X413881Y303648D02*
X411901Y303648D01*
X412551Y304978D02*
X410571Y304978D01*
X411221Y306308D02*
X409241Y306308D01*
X409111Y307638D02*
X409891Y307638D01*
X419541Y327262D02*
X418551Y328252D01*
X419541Y327262D02*
X409501Y317222D01*
X408511Y318212D01*
X418551Y328252D01*
X410831Y318552D02*
X408851Y318552D01*
X410181Y319882D02*
X412161Y319882D01*
X411511Y321212D02*
X413491Y321212D01*
X412841Y322542D02*
X414821Y322542D01*
X414171Y323872D02*
X416151Y323872D01*
X415501Y325202D02*
X417481Y325202D01*
X416831Y326532D02*
X418811Y326532D01*
X418941Y327862D02*
X418161Y327862D01*
X416005Y330797D02*
X415015Y331787D01*
X416005Y330797D02*
X405965Y320757D01*
X404975Y321747D01*
X415015Y331787D01*
X407295Y322087D02*
X405315Y322087D01*
X406645Y323417D02*
X408625Y323417D01*
X407975Y324747D02*
X409955Y324747D01*
X409305Y326077D02*
X411285Y326077D01*
X410635Y327407D02*
X412615Y327407D01*
X411965Y328737D02*
X413945Y328737D01*
X413295Y330067D02*
X415275Y330067D01*
X415405Y331397D02*
X414625Y331397D01*
X412470Y334333D02*
X411480Y335323D01*
X412470Y334333D02*
X402430Y324293D01*
X401440Y325283D01*
X411480Y335323D01*
X403760Y325623D02*
X401780Y325623D01*
X403110Y326953D02*
X405090Y326953D01*
X404440Y328283D02*
X406420Y328283D01*
X405770Y329613D02*
X407750Y329613D01*
X407100Y330943D02*
X409080Y330943D01*
X408430Y332273D02*
X410410Y332273D01*
X409760Y333603D02*
X411740Y333603D01*
X411870Y334933D02*
X411090Y334933D01*
X408934Y337868D02*
X407944Y338858D01*
X408934Y337868D02*
X398894Y327828D01*
X397904Y328818D01*
X407944Y338858D01*
X400224Y329158D02*
X398244Y329158D01*
X399574Y330488D02*
X401554Y330488D01*
X400904Y331818D02*
X402884Y331818D01*
X402234Y333148D02*
X404214Y333148D01*
X403564Y334478D02*
X405544Y334478D01*
X404894Y335808D02*
X406874Y335808D01*
X406224Y337138D02*
X408204Y337138D01*
X408334Y338468D02*
X407554Y338468D01*
X405399Y341404D02*
X404409Y342394D01*
X405399Y341404D02*
X395359Y331364D01*
X394369Y332354D01*
X404409Y342394D01*
X396689Y332694D02*
X394709Y332694D01*
X396039Y334024D02*
X398019Y334024D01*
X397369Y335354D02*
X399349Y335354D01*
X398699Y336684D02*
X400679Y336684D01*
X400029Y338014D02*
X402009Y338014D01*
X401359Y339344D02*
X403339Y339344D01*
X402689Y340674D02*
X404669Y340674D01*
X404799Y342004D02*
X404019Y342004D01*
X401863Y344939D02*
X400873Y345929D01*
X401863Y344939D02*
X391823Y334899D01*
X390833Y335889D01*
X400873Y345929D01*
X393153Y336229D02*
X391173Y336229D01*
X392503Y337559D02*
X394483Y337559D01*
X393833Y338889D02*
X395813Y338889D01*
X395163Y340219D02*
X397143Y340219D01*
X396493Y341549D02*
X398473Y341549D01*
X397823Y342879D02*
X399803Y342879D01*
X399153Y344209D02*
X401133Y344209D01*
X401263Y345539D02*
X400483Y345539D01*
X398328Y348475D02*
X397338Y349465D01*
X398328Y348475D02*
X388288Y338435D01*
X387298Y339425D01*
X397338Y349465D01*
X389618Y339765D02*
X387638Y339765D01*
X388968Y341095D02*
X390948Y341095D01*
X390298Y342425D02*
X392278Y342425D01*
X391628Y343755D02*
X393608Y343755D01*
X392958Y345085D02*
X394938Y345085D01*
X394288Y346415D02*
X396268Y346415D01*
X395618Y347745D02*
X397598Y347745D01*
X397728Y349075D02*
X396948Y349075D01*
X394792Y352010D02*
X393802Y353000D01*
X394792Y352010D02*
X384752Y341970D01*
X383762Y342960D01*
X393802Y353000D01*
X386082Y343300D02*
X384102Y343300D01*
X385432Y344630D02*
X387412Y344630D01*
X386762Y345960D02*
X388742Y345960D01*
X388092Y347290D02*
X390072Y347290D01*
X389422Y348620D02*
X391402Y348620D01*
X390752Y349950D02*
X392732Y349950D01*
X392082Y351280D02*
X394062Y351280D01*
X394192Y352610D02*
X393412Y352610D01*
X391257Y355546D02*
X390267Y356536D01*
X391257Y355546D02*
X381217Y345506D01*
X380227Y346496D01*
X390267Y356536D01*
X382547Y346836D02*
X380567Y346836D01*
X381897Y348166D02*
X383877Y348166D01*
X383227Y349496D02*
X385207Y349496D01*
X384557Y350826D02*
X386537Y350826D01*
X385887Y352156D02*
X387867Y352156D01*
X387217Y353486D02*
X389197Y353486D01*
X388547Y354816D02*
X390527Y354816D01*
X390657Y356146D02*
X389877Y356146D01*
X387721Y359081D02*
X386731Y360071D01*
X387721Y359081D02*
X377681Y349041D01*
X376691Y350031D01*
X386731Y360071D01*
X379011Y350371D02*
X377031Y350371D01*
X378361Y351701D02*
X380341Y351701D01*
X379691Y353031D02*
X381671Y353031D01*
X381021Y354361D02*
X383001Y354361D01*
X382351Y355691D02*
X384331Y355691D01*
X383681Y357021D02*
X385661Y357021D01*
X385011Y358351D02*
X386991Y358351D01*
X387121Y359681D02*
X386341Y359681D01*
X384186Y362617D02*
X383196Y363607D01*
X384186Y362617D02*
X374146Y352577D01*
X373156Y353567D01*
X383196Y363607D01*
X375476Y353907D02*
X373496Y353907D01*
X374826Y355237D02*
X376806Y355237D01*
X376156Y356567D02*
X378136Y356567D01*
X377486Y357897D02*
X379466Y357897D01*
X378816Y359227D02*
X380796Y359227D01*
X380146Y360557D02*
X382126Y360557D01*
X381476Y361887D02*
X383456Y361887D01*
X383586Y363217D02*
X382806Y363217D01*
X380650Y366152D02*
X379660Y367142D01*
X380650Y366152D02*
X370610Y356112D01*
X369620Y357102D01*
X379660Y367142D01*
X371940Y357442D02*
X369960Y357442D01*
X371290Y358772D02*
X373270Y358772D01*
X372620Y360102D02*
X374600Y360102D01*
X373950Y361432D02*
X375930Y361432D01*
X375280Y362762D02*
X377260Y362762D01*
X376610Y364092D02*
X378590Y364092D01*
X377940Y365422D02*
X379920Y365422D01*
X380050Y366752D02*
X379270Y366752D01*
X350387Y367142D02*
X349397Y366152D01*
X350387Y367142D02*
X360427Y357102D01*
X359437Y356112D01*
X349397Y366152D01*
X358107Y357442D02*
X360087Y357442D01*
X358757Y358772D02*
X356777Y358772D01*
X357427Y360102D02*
X355447Y360102D01*
X356097Y361432D02*
X354117Y361432D01*
X354767Y362762D02*
X352787Y362762D01*
X353437Y364092D02*
X351457Y364092D01*
X352107Y365422D02*
X350127Y365422D01*
X349997Y366752D02*
X350777Y366752D01*
X346851Y363607D02*
X345861Y362617D01*
X346851Y363607D02*
X356891Y353567D01*
X355901Y352577D01*
X345861Y362617D01*
X354571Y353907D02*
X356551Y353907D01*
X355221Y355237D02*
X353241Y355237D01*
X353891Y356567D02*
X351911Y356567D01*
X352561Y357897D02*
X350581Y357897D01*
X351231Y359227D02*
X349251Y359227D01*
X349901Y360557D02*
X347921Y360557D01*
X348571Y361887D02*
X346591Y361887D01*
X346461Y363217D02*
X347241Y363217D01*
X343316Y360071D02*
X342326Y359081D01*
X343316Y360071D02*
X353356Y350031D01*
X352366Y349041D01*
X342326Y359081D01*
X351036Y350371D02*
X353016Y350371D01*
X351686Y351701D02*
X349706Y351701D01*
X350356Y353031D02*
X348376Y353031D01*
X349026Y354361D02*
X347046Y354361D01*
X347696Y355691D02*
X345716Y355691D01*
X346366Y357021D02*
X344386Y357021D01*
X345036Y358351D02*
X343056Y358351D01*
X342926Y359681D02*
X343706Y359681D01*
X339780Y356536D02*
X338790Y355546D01*
X339780Y356536D02*
X349820Y346496D01*
X348830Y345506D01*
X338790Y355546D01*
X347500Y346836D02*
X349480Y346836D01*
X348150Y348166D02*
X346170Y348166D01*
X346820Y349496D02*
X344840Y349496D01*
X345490Y350826D02*
X343510Y350826D01*
X344160Y352156D02*
X342180Y352156D01*
X342830Y353486D02*
X340850Y353486D01*
X341500Y354816D02*
X339520Y354816D01*
X339390Y356146D02*
X340170Y356146D01*
X336245Y353000D02*
X335255Y352010D01*
X336245Y353000D02*
X346285Y342960D01*
X345295Y341970D01*
X335255Y352010D01*
X343965Y343300D02*
X345945Y343300D01*
X344615Y344630D02*
X342635Y344630D01*
X343285Y345960D02*
X341305Y345960D01*
X341955Y347290D02*
X339975Y347290D01*
X340625Y348620D02*
X338645Y348620D01*
X339295Y349950D02*
X337315Y349950D01*
X337965Y351280D02*
X335985Y351280D01*
X335855Y352610D02*
X336635Y352610D01*
X332709Y349465D02*
X331719Y348475D01*
X332709Y349465D02*
X342749Y339425D01*
X341759Y338435D01*
X331719Y348475D01*
X340429Y339765D02*
X342409Y339765D01*
X341079Y341095D02*
X339099Y341095D01*
X339749Y342425D02*
X337769Y342425D01*
X338419Y343755D02*
X336439Y343755D01*
X337089Y345085D02*
X335109Y345085D01*
X335759Y346415D02*
X333779Y346415D01*
X334429Y347745D02*
X332449Y347745D01*
X332319Y349075D02*
X333099Y349075D01*
X329174Y345929D02*
X328184Y344939D01*
X329174Y345929D02*
X339214Y335889D01*
X338224Y334899D01*
X328184Y344939D01*
X336894Y336229D02*
X338874Y336229D01*
X337544Y337559D02*
X335564Y337559D01*
X336214Y338889D02*
X334234Y338889D01*
X334884Y340219D02*
X332904Y340219D01*
X333554Y341549D02*
X331574Y341549D01*
X332224Y342879D02*
X330244Y342879D01*
X330894Y344209D02*
X328914Y344209D01*
X328784Y345539D02*
X329564Y345539D01*
X325638Y342394D02*
X324648Y341404D01*
X325638Y342394D02*
X335678Y332354D01*
X334688Y331364D01*
X324648Y341404D01*
X333358Y332694D02*
X335338Y332694D01*
X334008Y334024D02*
X332028Y334024D01*
X332678Y335354D02*
X330698Y335354D01*
X331348Y336684D02*
X329368Y336684D01*
X330018Y338014D02*
X328038Y338014D01*
X328688Y339344D02*
X326708Y339344D01*
X327358Y340674D02*
X325378Y340674D01*
X325248Y342004D02*
X326028Y342004D01*
X322102Y338858D02*
X321112Y337868D01*
X322102Y338858D02*
X332142Y328818D01*
X331152Y327828D01*
X321112Y337868D01*
X329822Y329158D02*
X331802Y329158D01*
X330472Y330488D02*
X328492Y330488D01*
X329142Y331818D02*
X327162Y331818D01*
X327812Y333148D02*
X325832Y333148D01*
X326482Y334478D02*
X324502Y334478D01*
X325152Y335808D02*
X323172Y335808D01*
X323822Y337138D02*
X321842Y337138D01*
X321712Y338468D02*
X322492Y338468D01*
X318567Y335323D02*
X317577Y334333D01*
X318567Y335323D02*
X328607Y325283D01*
X327617Y324293D01*
X317577Y334333D01*
X326287Y325623D02*
X328267Y325623D01*
X326937Y326953D02*
X324957Y326953D01*
X325607Y328283D02*
X323627Y328283D01*
X324277Y329613D02*
X322297Y329613D01*
X322947Y330943D02*
X320967Y330943D01*
X321617Y332273D02*
X319637Y332273D01*
X320287Y333603D02*
X318307Y333603D01*
X318177Y334933D02*
X318957Y334933D01*
X315031Y331787D02*
X314041Y330797D01*
X315031Y331787D02*
X325071Y321747D01*
X324081Y320757D01*
X314041Y330797D01*
X322751Y322087D02*
X324731Y322087D01*
X323401Y323417D02*
X321421Y323417D01*
X322071Y324747D02*
X320091Y324747D01*
X320741Y326077D02*
X318761Y326077D01*
X319411Y327407D02*
X317431Y327407D01*
X318081Y328737D02*
X316101Y328737D01*
X316751Y330067D02*
X314771Y330067D01*
X314641Y331397D02*
X315421Y331397D01*
X311496Y328252D02*
X310506Y327262D01*
X311496Y328252D02*
X321536Y318212D01*
X320546Y317222D01*
X310506Y327262D01*
X319216Y318552D02*
X321196Y318552D01*
X319866Y319882D02*
X317886Y319882D01*
X318536Y321212D02*
X316556Y321212D01*
X317206Y322542D02*
X315226Y322542D01*
X315876Y323872D02*
X313896Y323872D01*
X314546Y325202D02*
X312566Y325202D01*
X313216Y326532D02*
X311236Y326532D01*
X311106Y327862D02*
X311886Y327862D01*
X320546Y308028D02*
X321536Y307038D01*
X311496Y296998D01*
X310506Y297988D01*
X320546Y308028D01*
X312826Y298328D02*
X310846Y298328D01*
X312176Y299658D02*
X314156Y299658D01*
X313506Y300988D02*
X315486Y300988D01*
X314836Y302318D02*
X316816Y302318D01*
X316166Y303648D02*
X318146Y303648D01*
X317496Y304978D02*
X319476Y304978D01*
X318826Y306308D02*
X320806Y306308D01*
X320936Y307638D02*
X320156Y307638D01*
X324081Y304493D02*
X325071Y303503D01*
X315031Y293463D01*
X314041Y294453D01*
X324081Y304493D01*
X316361Y294793D02*
X314381Y294793D01*
X315711Y296123D02*
X317691Y296123D01*
X317041Y297453D02*
X319021Y297453D01*
X318371Y298783D02*
X320351Y298783D01*
X319701Y300113D02*
X321681Y300113D01*
X321031Y301443D02*
X323011Y301443D01*
X322361Y302773D02*
X324341Y302773D01*
X324471Y304103D02*
X323691Y304103D01*
X327617Y300957D02*
X328607Y299967D01*
X318567Y289927D01*
X317577Y290917D01*
X327617Y300957D01*
X319897Y291257D02*
X317917Y291257D01*
X319247Y292587D02*
X321227Y292587D01*
X320577Y293917D02*
X322557Y293917D01*
X321907Y295247D02*
X323887Y295247D01*
X323237Y296577D02*
X325217Y296577D01*
X324567Y297907D02*
X326547Y297907D01*
X325897Y299237D02*
X327877Y299237D01*
X328007Y300567D02*
X327227Y300567D01*
X331152Y297422D02*
X332142Y296432D01*
X322102Y286392D01*
X321112Y287382D01*
X331152Y297422D01*
X323432Y287722D02*
X321452Y287722D01*
X322782Y289052D02*
X324762Y289052D01*
X324112Y290382D02*
X326092Y290382D01*
X325442Y291712D02*
X327422Y291712D01*
X326772Y293042D02*
X328752Y293042D01*
X328102Y294372D02*
X330082Y294372D01*
X329432Y295702D02*
X331412Y295702D01*
X331542Y297032D02*
X330762Y297032D01*
X334688Y293886D02*
X335678Y292896D01*
X325638Y282856D01*
X324648Y283846D01*
X334688Y293886D01*
X326968Y284186D02*
X324988Y284186D01*
X326318Y285516D02*
X328298Y285516D01*
X327648Y286846D02*
X329628Y286846D01*
X328978Y288176D02*
X330958Y288176D01*
X330308Y289506D02*
X332288Y289506D01*
X331638Y290836D02*
X333618Y290836D01*
X332968Y292166D02*
X334948Y292166D01*
X335078Y293496D02*
X334298Y293496D01*
X338224Y290351D02*
X339214Y289361D01*
X329174Y279321D01*
X328184Y280311D01*
X338224Y290351D01*
X330504Y280651D02*
X328524Y280651D01*
X329854Y281981D02*
X331834Y281981D01*
X331184Y283311D02*
X333164Y283311D01*
X332514Y284641D02*
X334494Y284641D01*
X333844Y285971D02*
X335824Y285971D01*
X335174Y287301D02*
X337154Y287301D01*
X336504Y288631D02*
X338484Y288631D01*
X338614Y289961D02*
X337834Y289961D01*
X341759Y286815D02*
X342749Y285825D01*
X332709Y275785D01*
X331719Y276775D01*
X341759Y286815D01*
X334039Y277115D02*
X332059Y277115D01*
X333389Y278445D02*
X335369Y278445D01*
X334719Y279775D02*
X336699Y279775D01*
X336049Y281105D02*
X338029Y281105D01*
X337379Y282435D02*
X339359Y282435D01*
X338709Y283765D02*
X340689Y283765D01*
X340039Y285095D02*
X342019Y285095D01*
X342149Y286425D02*
X341369Y286425D01*
X345295Y283280D02*
X346285Y282290D01*
X336245Y272250D01*
X335255Y273240D01*
X345295Y283280D01*
X337575Y273580D02*
X335595Y273580D01*
X336925Y274910D02*
X338905Y274910D01*
X338255Y276240D02*
X340235Y276240D01*
X339585Y277570D02*
X341565Y277570D01*
X340915Y278900D02*
X342895Y278900D01*
X342245Y280230D02*
X344225Y280230D01*
X343575Y281560D02*
X345555Y281560D01*
X345685Y282890D02*
X344905Y282890D01*
X348830Y279744D02*
X349820Y278754D01*
X339780Y268714D01*
X338790Y269704D01*
X348830Y279744D01*
X341110Y270044D02*
X339130Y270044D01*
X340460Y271374D02*
X342440Y271374D01*
X341790Y272704D02*
X343770Y272704D01*
X343120Y274034D02*
X345100Y274034D01*
X344450Y275364D02*
X346430Y275364D01*
X345780Y276694D02*
X347760Y276694D01*
X347110Y278024D02*
X349090Y278024D01*
X349220Y279354D02*
X348440Y279354D01*
X352366Y276209D02*
X353356Y275219D01*
X343316Y265179D01*
X342326Y266169D01*
X352366Y276209D01*
X344646Y266509D02*
X342666Y266509D01*
X343996Y267839D02*
X345976Y267839D01*
X345326Y269169D02*
X347306Y269169D01*
X346656Y270499D02*
X348636Y270499D01*
X347986Y271829D02*
X349966Y271829D01*
X349316Y273159D02*
X351296Y273159D01*
X350646Y274489D02*
X352626Y274489D01*
X352756Y275819D02*
X351976Y275819D01*
X355901Y272673D02*
X356891Y271683D01*
X346851Y261643D01*
X345861Y262633D01*
X355901Y272673D01*
X348181Y262973D02*
X346201Y262973D01*
X347531Y264303D02*
X349511Y264303D01*
X348861Y265633D02*
X350841Y265633D01*
X350191Y266963D02*
X352171Y266963D01*
X351521Y268293D02*
X353501Y268293D01*
X352851Y269623D02*
X354831Y269623D01*
X354181Y270953D02*
X356161Y270953D01*
X356291Y272283D02*
X355511Y272283D01*
X359437Y269138D02*
X360427Y268148D01*
X350387Y258108D01*
X349397Y259098D01*
X359437Y269138D01*
X351717Y259438D02*
X349737Y259438D01*
X351067Y260768D02*
X353047Y260768D01*
X352397Y262098D02*
X354377Y262098D01*
X353727Y263428D02*
X355707Y263428D01*
X355057Y264758D02*
X357037Y264758D01*
X356387Y266088D02*
X358367Y266088D01*
X357717Y267418D02*
X359697Y267418D01*
X359827Y268748D02*
X359047Y268748D01*
D11*
X420586Y354250D03*
X420586Y344250D03*
X420586Y376475D03*
X420586Y366475D03*
D12*
X317636Y239713D03*
X307636Y239713D03*
X317636Y228600D03*
X307636Y228600D03*
D11*
X307873Y216138D03*
X307873Y206138D03*
X307873Y193913D03*
X307873Y183913D03*
X307873Y171688D03*
X307873Y161688D03*
X307873Y149463D03*
X307873Y139463D03*
X307873Y127238D03*
X307873Y117238D03*
X420586Y398700D03*
X420586Y388700D03*
X420586Y410925D03*
X420586Y420925D03*
X309461Y499825D03*
X309461Y509825D03*
X309461Y477600D03*
X309461Y487600D03*
X309461Y455375D03*
X309461Y465375D03*
X309461Y433150D03*
X309461Y443150D03*
X418998Y110888D03*
X418998Y120888D03*
X418998Y133113D03*
X418998Y143113D03*
X418998Y155338D03*
X418998Y165338D03*
X418998Y177563D03*
X418998Y187563D03*
X418998Y199788D03*
X418998Y209788D03*
X418998Y232013D03*
X418998Y222013D03*
X420586Y254238D03*
X420586Y244238D03*
X420586Y276463D03*
X420586Y266463D03*
X309461Y420925D03*
X309461Y410925D03*
X309461Y388700D03*
X309461Y398700D03*
X309461Y368063D03*
X309461Y378063D03*
X309461Y347425D03*
X309461Y357425D03*
D12*
X307636Y261938D03*
X317636Y261938D03*
D11*
X368198Y44213D03*
X368198Y54213D03*
D12*
X307636Y250825D03*
X317636Y250825D03*
D13*
X338170Y436947D02*
X346076Y436947D01*
X338170Y436947D02*
X338170Y448653D01*
X346076Y448653D01*
X346076Y436947D01*
X346076Y438272D02*
X338170Y438272D01*
X338170Y439597D02*
X346076Y439597D01*
X346076Y440922D02*
X338170Y440922D01*
X338170Y442247D02*
X346076Y442247D01*
X346076Y443572D02*
X338170Y443572D01*
X338170Y444897D02*
X346076Y444897D01*
X346076Y446222D02*
X338170Y446222D01*
X338170Y447547D02*
X346076Y447547D01*
X361070Y436947D02*
X368976Y436947D01*
X361070Y436947D02*
X361070Y448653D01*
X368976Y448653D01*
X368976Y436947D01*
X368976Y438272D02*
X361070Y438272D01*
X361070Y439597D02*
X368976Y439597D01*
X368976Y440922D02*
X361070Y440922D01*
X361070Y442247D02*
X368976Y442247D01*
X368976Y443572D02*
X361070Y443572D01*
X361070Y444897D02*
X368976Y444897D01*
X368976Y446222D02*
X361070Y446222D01*
X361070Y447547D02*
X368976Y447547D01*
X383970Y436947D02*
X391876Y436947D01*
X383970Y436947D02*
X383970Y448653D01*
X391876Y448653D01*
X391876Y436947D01*
X391876Y438272D02*
X383970Y438272D01*
X383970Y439597D02*
X391876Y439597D01*
X391876Y440922D02*
X383970Y440922D01*
X383970Y442247D02*
X391876Y442247D01*
X391876Y443572D02*
X383970Y443572D01*
X383970Y444897D02*
X391876Y444897D01*
X391876Y446222D02*
X383970Y446222D01*
X383970Y447547D02*
X391876Y447547D01*
D14*
X380241Y504132D02*
X349805Y504132D01*
X349805Y515268D01*
X380241Y515268D01*
X380241Y504132D01*
X380241Y505999D02*
X349805Y505999D01*
X349805Y507866D02*
X380241Y507866D01*
X380241Y509733D02*
X349805Y509733D01*
X349805Y511600D02*
X380241Y511600D01*
X380241Y513467D02*
X349805Y513467D01*
D11*
X380898Y407750D03*
X380898Y417750D03*
X403123Y417750D03*
X403123Y407750D03*
D15*
X339923Y176050D03*
X339923Y116050D03*
X377423Y116050D03*
X377423Y176050D03*
D16*
X406298Y435325D03*
X406298Y447325D03*
D11*
X418998Y446325D03*
X418998Y436325D03*
D17*
X344386Y71435D03*
X344386Y94935D03*
D18*
X314858Y99158D03*
X314858Y71658D03*
D11*
X392011Y407750D03*
X392011Y417750D03*
X369786Y407750D03*
X369786Y417750D03*
X358673Y407750D03*
X358673Y417750D03*
D19*
X371023Y374650D03*
X359023Y374650D03*
X356039Y250571D03*
X368039Y250571D03*
G36*
X404767Y259936D02*
X398227Y253396D01*
X392995Y258628D01*
X399535Y265168D01*
X404767Y259936D01*
G37*
G36*
X413252Y268422D02*
X406712Y261882D01*
X401480Y267114D01*
X408020Y273654D01*
X413252Y268422D01*
G37*
G36*
X317812Y285806D02*
X324352Y279266D01*
X319120Y274034D01*
X312580Y280574D01*
X317812Y285806D01*
G37*
G36*
X309327Y294291D02*
X315867Y287751D01*
X310635Y282519D01*
X304095Y289059D01*
X309327Y294291D01*
G37*
X325813Y51181D03*
X337813Y51181D03*
X405567Y159068D03*
X393567Y159068D03*
D20*
X361467Y200416D03*
X361467Y225416D03*
D21*
X396837Y196003D03*
X396837Y233003D03*
D16*
X405409Y180879D03*
X405409Y168879D03*
D11*
X394805Y179498D03*
X394805Y169498D03*
D19*
X418648Y76200D03*
X406648Y76200D03*
X406648Y101600D03*
X418648Y101600D03*
D22*
X396336Y69850D03*
X381336Y69850D03*
X396336Y60325D03*
X381336Y60325D03*
D12*
X382723Y80963D03*
X372723Y80963D03*
X417648Y50800D03*
X407648Y50800D03*
D10*
X619607Y268148D02*
X620597Y269138D01*
X630637Y259098D01*
X629647Y258108D01*
X619607Y268148D01*
X628317Y259438D02*
X630297Y259438D01*
X628967Y260768D02*
X626987Y260768D01*
X627637Y262098D02*
X625657Y262098D01*
X626307Y263428D02*
X624327Y263428D01*
X624977Y264758D02*
X622997Y264758D01*
X623647Y266088D02*
X621667Y266088D01*
X622317Y267418D02*
X620337Y267418D01*
X620207Y268748D02*
X620987Y268748D01*
X623142Y271683D02*
X624132Y272673D01*
X634172Y262633D01*
X633182Y261643D01*
X623142Y271683D01*
X631852Y262973D02*
X633832Y262973D01*
X632502Y264303D02*
X630522Y264303D01*
X631172Y265633D02*
X629192Y265633D01*
X629842Y266963D02*
X627862Y266963D01*
X628512Y268293D02*
X626532Y268293D01*
X627182Y269623D02*
X625202Y269623D01*
X625852Y270953D02*
X623872Y270953D01*
X623742Y272283D02*
X624522Y272283D01*
X626678Y275219D02*
X627668Y276209D01*
X637708Y266169D01*
X636718Y265179D01*
X626678Y275219D01*
X635388Y266509D02*
X637368Y266509D01*
X636038Y267839D02*
X634058Y267839D01*
X634708Y269169D02*
X632728Y269169D01*
X633378Y270499D02*
X631398Y270499D01*
X632048Y271829D02*
X630068Y271829D01*
X630718Y273159D02*
X628738Y273159D01*
X629388Y274489D02*
X627408Y274489D01*
X627278Y275819D02*
X628058Y275819D01*
X630213Y278754D02*
X631203Y279744D01*
X641243Y269704D01*
X640253Y268714D01*
X630213Y278754D01*
X638923Y270044D02*
X640903Y270044D01*
X639573Y271374D02*
X637593Y271374D01*
X638243Y272704D02*
X636263Y272704D01*
X636913Y274034D02*
X634933Y274034D01*
X635583Y275364D02*
X633603Y275364D01*
X634253Y276694D02*
X632273Y276694D01*
X632923Y278024D02*
X630943Y278024D01*
X630813Y279354D02*
X631593Y279354D01*
X633749Y282290D02*
X634739Y283280D01*
X644779Y273240D01*
X643789Y272250D01*
X633749Y282290D01*
X642459Y273580D02*
X644439Y273580D01*
X643109Y274910D02*
X641129Y274910D01*
X641779Y276240D02*
X639799Y276240D01*
X640449Y277570D02*
X638469Y277570D01*
X639119Y278900D02*
X637139Y278900D01*
X637789Y280230D02*
X635809Y280230D01*
X636459Y281560D02*
X634479Y281560D01*
X634349Y282890D02*
X635129Y282890D01*
X637284Y285825D02*
X638274Y286815D01*
X648314Y276775D01*
X647324Y275785D01*
X637284Y285825D01*
X645994Y277115D02*
X647974Y277115D01*
X646644Y278445D02*
X644664Y278445D01*
X645314Y279775D02*
X643334Y279775D01*
X643984Y281105D02*
X642004Y281105D01*
X642654Y282435D02*
X640674Y282435D01*
X641324Y283765D02*
X639344Y283765D01*
X639994Y285095D02*
X638014Y285095D01*
X637884Y286425D02*
X638664Y286425D01*
X640820Y289361D02*
X641810Y290351D01*
X651850Y280311D01*
X650860Y279321D01*
X640820Y289361D01*
X649530Y280651D02*
X651510Y280651D01*
X650180Y281981D02*
X648200Y281981D01*
X648850Y283311D02*
X646870Y283311D01*
X647520Y284641D02*
X645540Y284641D01*
X646190Y285971D02*
X644210Y285971D01*
X644860Y287301D02*
X642880Y287301D01*
X643530Y288631D02*
X641550Y288631D01*
X641420Y289961D02*
X642200Y289961D01*
X644356Y292896D02*
X645346Y293886D01*
X655386Y283846D01*
X654396Y282856D01*
X644356Y292896D01*
X653066Y284186D02*
X655046Y284186D01*
X653716Y285516D02*
X651736Y285516D01*
X652386Y286846D02*
X650406Y286846D01*
X651056Y288176D02*
X649076Y288176D01*
X649726Y289506D02*
X647746Y289506D01*
X648396Y290836D02*
X646416Y290836D01*
X647066Y292166D02*
X645086Y292166D01*
X644956Y293496D02*
X645736Y293496D01*
X647891Y296432D02*
X648881Y297422D01*
X658921Y287382D01*
X657931Y286392D01*
X647891Y296432D01*
X656601Y287722D02*
X658581Y287722D01*
X657251Y289052D02*
X655271Y289052D01*
X655921Y290382D02*
X653941Y290382D01*
X654591Y291712D02*
X652611Y291712D01*
X653261Y293042D02*
X651281Y293042D01*
X651931Y294372D02*
X649951Y294372D01*
X650601Y295702D02*
X648621Y295702D01*
X648491Y297032D02*
X649271Y297032D01*
X651427Y299967D02*
X652417Y300957D01*
X662457Y290917D01*
X661467Y289927D01*
X651427Y299967D01*
X660137Y291257D02*
X662117Y291257D01*
X660787Y292587D02*
X658807Y292587D01*
X659457Y293917D02*
X657477Y293917D01*
X658127Y295247D02*
X656147Y295247D01*
X656797Y296577D02*
X654817Y296577D01*
X655467Y297907D02*
X653487Y297907D01*
X654137Y299237D02*
X652157Y299237D01*
X652027Y300567D02*
X652807Y300567D01*
X654962Y303503D02*
X655952Y304493D01*
X665992Y294453D01*
X665002Y293463D01*
X654962Y303503D01*
X663672Y294793D02*
X665652Y294793D01*
X664322Y296123D02*
X662342Y296123D01*
X662992Y297453D02*
X661012Y297453D01*
X661662Y298783D02*
X659682Y298783D01*
X660332Y300113D02*
X658352Y300113D01*
X659002Y301443D02*
X657022Y301443D01*
X657672Y302773D02*
X655692Y302773D01*
X655562Y304103D02*
X656342Y304103D01*
X658498Y307038D02*
X659488Y308028D01*
X669528Y297988D01*
X668538Y296998D01*
X658498Y307038D01*
X667208Y298328D02*
X669188Y298328D01*
X667858Y299658D02*
X665878Y299658D01*
X666528Y300988D02*
X664548Y300988D01*
X665198Y302318D02*
X663218Y302318D01*
X663868Y303648D02*
X661888Y303648D01*
X662538Y304978D02*
X660558Y304978D01*
X661208Y306308D02*
X659228Y306308D01*
X659098Y307638D02*
X659878Y307638D01*
X669528Y327262D02*
X668538Y328252D01*
X669528Y327262D02*
X659488Y317222D01*
X658498Y318212D01*
X668538Y328252D01*
X660818Y318552D02*
X658838Y318552D01*
X660168Y319882D02*
X662148Y319882D01*
X661498Y321212D02*
X663478Y321212D01*
X662828Y322542D02*
X664808Y322542D01*
X664158Y323872D02*
X666138Y323872D01*
X665488Y325202D02*
X667468Y325202D01*
X666818Y326532D02*
X668798Y326532D01*
X668928Y327862D02*
X668148Y327862D01*
X665992Y330797D02*
X665002Y331787D01*
X665992Y330797D02*
X655952Y320757D01*
X654962Y321747D01*
X665002Y331787D01*
X657282Y322087D02*
X655302Y322087D01*
X656632Y323417D02*
X658612Y323417D01*
X657962Y324747D02*
X659942Y324747D01*
X659292Y326077D02*
X661272Y326077D01*
X660622Y327407D02*
X662602Y327407D01*
X661952Y328737D02*
X663932Y328737D01*
X663282Y330067D02*
X665262Y330067D01*
X665392Y331397D02*
X664612Y331397D01*
X662457Y334333D02*
X661467Y335323D01*
X662457Y334333D02*
X652417Y324293D01*
X651427Y325283D01*
X661467Y335323D01*
X653747Y325623D02*
X651767Y325623D01*
X653097Y326953D02*
X655077Y326953D01*
X654427Y328283D02*
X656407Y328283D01*
X655757Y329613D02*
X657737Y329613D01*
X657087Y330943D02*
X659067Y330943D01*
X658417Y332273D02*
X660397Y332273D01*
X659747Y333603D02*
X661727Y333603D01*
X661857Y334933D02*
X661077Y334933D01*
X658921Y337868D02*
X657931Y338858D01*
X658921Y337868D02*
X648881Y327828D01*
X647891Y328818D01*
X657931Y338858D01*
X650211Y329158D02*
X648231Y329158D01*
X649561Y330488D02*
X651541Y330488D01*
X650891Y331818D02*
X652871Y331818D01*
X652221Y333148D02*
X654201Y333148D01*
X653551Y334478D02*
X655531Y334478D01*
X654881Y335808D02*
X656861Y335808D01*
X656211Y337138D02*
X658191Y337138D01*
X658321Y338468D02*
X657541Y338468D01*
X655386Y341404D02*
X654396Y342394D01*
X655386Y341404D02*
X645346Y331364D01*
X644356Y332354D01*
X654396Y342394D01*
X646676Y332694D02*
X644696Y332694D01*
X646026Y334024D02*
X648006Y334024D01*
X647356Y335354D02*
X649336Y335354D01*
X648686Y336684D02*
X650666Y336684D01*
X650016Y338014D02*
X651996Y338014D01*
X651346Y339344D02*
X653326Y339344D01*
X652676Y340674D02*
X654656Y340674D01*
X654786Y342004D02*
X654006Y342004D01*
X651850Y344939D02*
X650860Y345929D01*
X651850Y344939D02*
X641810Y334899D01*
X640820Y335889D01*
X650860Y345929D01*
X643140Y336229D02*
X641160Y336229D01*
X642490Y337559D02*
X644470Y337559D01*
X643820Y338889D02*
X645800Y338889D01*
X645150Y340219D02*
X647130Y340219D01*
X646480Y341549D02*
X648460Y341549D01*
X647810Y342879D02*
X649790Y342879D01*
X649140Y344209D02*
X651120Y344209D01*
X651250Y345539D02*
X650470Y345539D01*
X648314Y348475D02*
X647324Y349465D01*
X648314Y348475D02*
X638274Y338435D01*
X637284Y339425D01*
X647324Y349465D01*
X639604Y339765D02*
X637624Y339765D01*
X638954Y341095D02*
X640934Y341095D01*
X640284Y342425D02*
X642264Y342425D01*
X641614Y343755D02*
X643594Y343755D01*
X642944Y345085D02*
X644924Y345085D01*
X644274Y346415D02*
X646254Y346415D01*
X645604Y347745D02*
X647584Y347745D01*
X647714Y349075D02*
X646934Y349075D01*
X644779Y352010D02*
X643789Y353000D01*
X644779Y352010D02*
X634739Y341970D01*
X633749Y342960D01*
X643789Y353000D01*
X636069Y343300D02*
X634089Y343300D01*
X635419Y344630D02*
X637399Y344630D01*
X636749Y345960D02*
X638729Y345960D01*
X638079Y347290D02*
X640059Y347290D01*
X639409Y348620D02*
X641389Y348620D01*
X640739Y349950D02*
X642719Y349950D01*
X642069Y351280D02*
X644049Y351280D01*
X644179Y352610D02*
X643399Y352610D01*
X641243Y355546D02*
X640253Y356536D01*
X641243Y355546D02*
X631203Y345506D01*
X630213Y346496D01*
X640253Y356536D01*
X632533Y346836D02*
X630553Y346836D01*
X631883Y348166D02*
X633863Y348166D01*
X633213Y349496D02*
X635193Y349496D01*
X634543Y350826D02*
X636523Y350826D01*
X635873Y352156D02*
X637853Y352156D01*
X637203Y353486D02*
X639183Y353486D01*
X638533Y354816D02*
X640513Y354816D01*
X640643Y356146D02*
X639863Y356146D01*
X637708Y359081D02*
X636718Y360071D01*
X637708Y359081D02*
X627668Y349041D01*
X626678Y350031D01*
X636718Y360071D01*
X628998Y350371D02*
X627018Y350371D01*
X628348Y351701D02*
X630328Y351701D01*
X629678Y353031D02*
X631658Y353031D01*
X631008Y354361D02*
X632988Y354361D01*
X632338Y355691D02*
X634318Y355691D01*
X633668Y357021D02*
X635648Y357021D01*
X634998Y358351D02*
X636978Y358351D01*
X637108Y359681D02*
X636328Y359681D01*
X634172Y362617D02*
X633182Y363607D01*
X634172Y362617D02*
X624132Y352577D01*
X623142Y353567D01*
X633182Y363607D01*
X625462Y353907D02*
X623482Y353907D01*
X624812Y355237D02*
X626792Y355237D01*
X626142Y356567D02*
X628122Y356567D01*
X627472Y357897D02*
X629452Y357897D01*
X628802Y359227D02*
X630782Y359227D01*
X630132Y360557D02*
X632112Y360557D01*
X631462Y361887D02*
X633442Y361887D01*
X633572Y363217D02*
X632792Y363217D01*
X630637Y366152D02*
X629647Y367142D01*
X630637Y366152D02*
X620597Y356112D01*
X619607Y357102D01*
X629647Y367142D01*
X621927Y357442D02*
X619947Y357442D01*
X621277Y358772D02*
X623257Y358772D01*
X622607Y360102D02*
X624587Y360102D01*
X623937Y361432D02*
X625917Y361432D01*
X625267Y362762D02*
X627247Y362762D01*
X626597Y364092D02*
X628577Y364092D01*
X627927Y365422D02*
X629907Y365422D01*
X630037Y366752D02*
X629257Y366752D01*
X600374Y367142D02*
X599384Y366152D01*
X600374Y367142D02*
X610414Y357102D01*
X609424Y356112D01*
X599384Y366152D01*
X608094Y357442D02*
X610074Y357442D01*
X608744Y358772D02*
X606764Y358772D01*
X607414Y360102D02*
X605434Y360102D01*
X606084Y361432D02*
X604104Y361432D01*
X604754Y362762D02*
X602774Y362762D01*
X603424Y364092D02*
X601444Y364092D01*
X602094Y365422D02*
X600114Y365422D01*
X599984Y366752D02*
X600764Y366752D01*
X596838Y363607D02*
X595848Y362617D01*
X596838Y363607D02*
X606878Y353567D01*
X605888Y352577D01*
X595848Y362617D01*
X604558Y353907D02*
X606538Y353907D01*
X605208Y355237D02*
X603228Y355237D01*
X603878Y356567D02*
X601898Y356567D01*
X602548Y357897D02*
X600568Y357897D01*
X601218Y359227D02*
X599238Y359227D01*
X599888Y360557D02*
X597908Y360557D01*
X598558Y361887D02*
X596578Y361887D01*
X596448Y363217D02*
X597228Y363217D01*
X593302Y360071D02*
X592312Y359081D01*
X593302Y360071D02*
X603342Y350031D01*
X602352Y349041D01*
X592312Y359081D01*
X601022Y350371D02*
X603002Y350371D01*
X601672Y351701D02*
X599692Y351701D01*
X600342Y353031D02*
X598362Y353031D01*
X599012Y354361D02*
X597032Y354361D01*
X597682Y355691D02*
X595702Y355691D01*
X596352Y357021D02*
X594372Y357021D01*
X595022Y358351D02*
X593042Y358351D01*
X592912Y359681D02*
X593692Y359681D01*
X589767Y356536D02*
X588777Y355546D01*
X589767Y356536D02*
X599807Y346496D01*
X598817Y345506D01*
X588777Y355546D01*
X597487Y346836D02*
X599467Y346836D01*
X598137Y348166D02*
X596157Y348166D01*
X596807Y349496D02*
X594827Y349496D01*
X595477Y350826D02*
X593497Y350826D01*
X594147Y352156D02*
X592167Y352156D01*
X592817Y353486D02*
X590837Y353486D01*
X591487Y354816D02*
X589507Y354816D01*
X589377Y356146D02*
X590157Y356146D01*
X586231Y353000D02*
X585241Y352010D01*
X586231Y353000D02*
X596271Y342960D01*
X595281Y341970D01*
X585241Y352010D01*
X593951Y343300D02*
X595931Y343300D01*
X594601Y344630D02*
X592621Y344630D01*
X593271Y345960D02*
X591291Y345960D01*
X591941Y347290D02*
X589961Y347290D01*
X590611Y348620D02*
X588631Y348620D01*
X589281Y349950D02*
X587301Y349950D01*
X587951Y351280D02*
X585971Y351280D01*
X585841Y352610D02*
X586621Y352610D01*
X582696Y349465D02*
X581706Y348475D01*
X582696Y349465D02*
X592736Y339425D01*
X591746Y338435D01*
X581706Y348475D01*
X590416Y339765D02*
X592396Y339765D01*
X591066Y341095D02*
X589086Y341095D01*
X589736Y342425D02*
X587756Y342425D01*
X588406Y343755D02*
X586426Y343755D01*
X587076Y345085D02*
X585096Y345085D01*
X585746Y346415D02*
X583766Y346415D01*
X584416Y347745D02*
X582436Y347745D01*
X582306Y349075D02*
X583086Y349075D01*
X579160Y345929D02*
X578170Y344939D01*
X579160Y345929D02*
X589200Y335889D01*
X588210Y334899D01*
X578170Y344939D01*
X586880Y336229D02*
X588860Y336229D01*
X587530Y337559D02*
X585550Y337559D01*
X586200Y338889D02*
X584220Y338889D01*
X584870Y340219D02*
X582890Y340219D01*
X583540Y341549D02*
X581560Y341549D01*
X582210Y342879D02*
X580230Y342879D01*
X580880Y344209D02*
X578900Y344209D01*
X578770Y345539D02*
X579550Y345539D01*
X575625Y342394D02*
X574635Y341404D01*
X575625Y342394D02*
X585665Y332354D01*
X584675Y331364D01*
X574635Y341404D01*
X583345Y332694D02*
X585325Y332694D01*
X583995Y334024D02*
X582015Y334024D01*
X582665Y335354D02*
X580685Y335354D01*
X581335Y336684D02*
X579355Y336684D01*
X580005Y338014D02*
X578025Y338014D01*
X578675Y339344D02*
X576695Y339344D01*
X577345Y340674D02*
X575365Y340674D01*
X575235Y342004D02*
X576015Y342004D01*
X572089Y338858D02*
X571099Y337868D01*
X572089Y338858D02*
X582129Y328818D01*
X581139Y327828D01*
X571099Y337868D01*
X579809Y329158D02*
X581789Y329158D01*
X580459Y330488D02*
X578479Y330488D01*
X579129Y331818D02*
X577149Y331818D01*
X577799Y333148D02*
X575819Y333148D01*
X576469Y334478D02*
X574489Y334478D01*
X575139Y335808D02*
X573159Y335808D01*
X573809Y337138D02*
X571829Y337138D01*
X571699Y338468D02*
X572479Y338468D01*
X568554Y335323D02*
X567564Y334333D01*
X568554Y335323D02*
X578594Y325283D01*
X577604Y324293D01*
X567564Y334333D01*
X576274Y325623D02*
X578254Y325623D01*
X576924Y326953D02*
X574944Y326953D01*
X575594Y328283D02*
X573614Y328283D01*
X574264Y329613D02*
X572284Y329613D01*
X572934Y330943D02*
X570954Y330943D01*
X571604Y332273D02*
X569624Y332273D01*
X570274Y333603D02*
X568294Y333603D01*
X568164Y334933D02*
X568944Y334933D01*
X565018Y331787D02*
X564028Y330797D01*
X565018Y331787D02*
X575058Y321747D01*
X574068Y320757D01*
X564028Y330797D01*
X572738Y322087D02*
X574718Y322087D01*
X573388Y323417D02*
X571408Y323417D01*
X572058Y324747D02*
X570078Y324747D01*
X570728Y326077D02*
X568748Y326077D01*
X569398Y327407D02*
X567418Y327407D01*
X568068Y328737D02*
X566088Y328737D01*
X566738Y330067D02*
X564758Y330067D01*
X564628Y331397D02*
X565408Y331397D01*
X561483Y328252D02*
X560493Y327262D01*
X561483Y328252D02*
X571523Y318212D01*
X570533Y317222D01*
X560493Y327262D01*
X569203Y318552D02*
X571183Y318552D01*
X569853Y319882D02*
X567873Y319882D01*
X568523Y321212D02*
X566543Y321212D01*
X567193Y322542D02*
X565213Y322542D01*
X565863Y323872D02*
X563883Y323872D01*
X564533Y325202D02*
X562553Y325202D01*
X563203Y326532D02*
X561223Y326532D01*
X561093Y327862D02*
X561873Y327862D01*
X570533Y308028D02*
X571523Y307038D01*
X561483Y296998D01*
X560493Y297988D01*
X570533Y308028D01*
X562813Y298328D02*
X560833Y298328D01*
X562163Y299658D02*
X564143Y299658D01*
X563493Y300988D02*
X565473Y300988D01*
X564823Y302318D02*
X566803Y302318D01*
X566153Y303648D02*
X568133Y303648D01*
X567483Y304978D02*
X569463Y304978D01*
X568813Y306308D02*
X570793Y306308D01*
X570923Y307638D02*
X570143Y307638D01*
X574068Y304493D02*
X575058Y303503D01*
X565018Y293463D01*
X564028Y294453D01*
X574068Y304493D01*
X566348Y294793D02*
X564368Y294793D01*
X565698Y296123D02*
X567678Y296123D01*
X567028Y297453D02*
X569008Y297453D01*
X568358Y298783D02*
X570338Y298783D01*
X569688Y300113D02*
X571668Y300113D01*
X571018Y301443D02*
X572998Y301443D01*
X572348Y302773D02*
X574328Y302773D01*
X574458Y304103D02*
X573678Y304103D01*
X577604Y300957D02*
X578594Y299967D01*
X568554Y289927D01*
X567564Y290917D01*
X577604Y300957D01*
X569884Y291257D02*
X567904Y291257D01*
X569234Y292587D02*
X571214Y292587D01*
X570564Y293917D02*
X572544Y293917D01*
X571894Y295247D02*
X573874Y295247D01*
X573224Y296577D02*
X575204Y296577D01*
X574554Y297907D02*
X576534Y297907D01*
X575884Y299237D02*
X577864Y299237D01*
X577994Y300567D02*
X577214Y300567D01*
X581139Y297422D02*
X582129Y296432D01*
X572089Y286392D01*
X571099Y287382D01*
X581139Y297422D01*
X573419Y287722D02*
X571439Y287722D01*
X572769Y289052D02*
X574749Y289052D01*
X574099Y290382D02*
X576079Y290382D01*
X575429Y291712D02*
X577409Y291712D01*
X576759Y293042D02*
X578739Y293042D01*
X578089Y294372D02*
X580069Y294372D01*
X579419Y295702D02*
X581399Y295702D01*
X581529Y297032D02*
X580749Y297032D01*
X584675Y293886D02*
X585665Y292896D01*
X575625Y282856D01*
X574635Y283846D01*
X584675Y293886D01*
X576955Y284186D02*
X574975Y284186D01*
X576305Y285516D02*
X578285Y285516D01*
X577635Y286846D02*
X579615Y286846D01*
X578965Y288176D02*
X580945Y288176D01*
X580295Y289506D02*
X582275Y289506D01*
X581625Y290836D02*
X583605Y290836D01*
X582955Y292166D02*
X584935Y292166D01*
X585065Y293496D02*
X584285Y293496D01*
X588210Y290351D02*
X589200Y289361D01*
X579160Y279321D01*
X578170Y280311D01*
X588210Y290351D01*
X580490Y280651D02*
X578510Y280651D01*
X579840Y281981D02*
X581820Y281981D01*
X581170Y283311D02*
X583150Y283311D01*
X582500Y284641D02*
X584480Y284641D01*
X583830Y285971D02*
X585810Y285971D01*
X585160Y287301D02*
X587140Y287301D01*
X586490Y288631D02*
X588470Y288631D01*
X588600Y289961D02*
X587820Y289961D01*
X591746Y286815D02*
X592736Y285825D01*
X582696Y275785D01*
X581706Y276775D01*
X591746Y286815D01*
X584026Y277115D02*
X582046Y277115D01*
X583376Y278445D02*
X585356Y278445D01*
X584706Y279775D02*
X586686Y279775D01*
X586036Y281105D02*
X588016Y281105D01*
X587366Y282435D02*
X589346Y282435D01*
X588696Y283765D02*
X590676Y283765D01*
X590026Y285095D02*
X592006Y285095D01*
X592136Y286425D02*
X591356Y286425D01*
X595281Y283280D02*
X596271Y282290D01*
X586231Y272250D01*
X585241Y273240D01*
X595281Y283280D01*
X587561Y273580D02*
X585581Y273580D01*
X586911Y274910D02*
X588891Y274910D01*
X588241Y276240D02*
X590221Y276240D01*
X589571Y277570D02*
X591551Y277570D01*
X590901Y278900D02*
X592881Y278900D01*
X592231Y280230D02*
X594211Y280230D01*
X593561Y281560D02*
X595541Y281560D01*
X595671Y282890D02*
X594891Y282890D01*
X598817Y279744D02*
X599807Y278754D01*
X589767Y268714D01*
X588777Y269704D01*
X598817Y279744D01*
X591097Y270044D02*
X589117Y270044D01*
X590447Y271374D02*
X592427Y271374D01*
X591777Y272704D02*
X593757Y272704D01*
X593107Y274034D02*
X595087Y274034D01*
X594437Y275364D02*
X596417Y275364D01*
X595767Y276694D02*
X597747Y276694D01*
X597097Y278024D02*
X599077Y278024D01*
X599207Y279354D02*
X598427Y279354D01*
X602352Y276209D02*
X603342Y275219D01*
X593302Y265179D01*
X592312Y266169D01*
X602352Y276209D01*
X594632Y266509D02*
X592652Y266509D01*
X593982Y267839D02*
X595962Y267839D01*
X595312Y269169D02*
X597292Y269169D01*
X596642Y270499D02*
X598622Y270499D01*
X597972Y271829D02*
X599952Y271829D01*
X599302Y273159D02*
X601282Y273159D01*
X600632Y274489D02*
X602612Y274489D01*
X602742Y275819D02*
X601962Y275819D01*
X605888Y272673D02*
X606878Y271683D01*
X596838Y261643D01*
X595848Y262633D01*
X605888Y272673D01*
X598168Y262973D02*
X596188Y262973D01*
X597518Y264303D02*
X599498Y264303D01*
X598848Y265633D02*
X600828Y265633D01*
X600178Y266963D02*
X602158Y266963D01*
X601508Y268293D02*
X603488Y268293D01*
X602838Y269623D02*
X604818Y269623D01*
X604168Y270953D02*
X606148Y270953D01*
X606278Y272283D02*
X605498Y272283D01*
X609424Y269138D02*
X610414Y268148D01*
X600374Y258108D01*
X599384Y259098D01*
X609424Y269138D01*
X601704Y259438D02*
X599724Y259438D01*
X601054Y260768D02*
X603034Y260768D01*
X602384Y262098D02*
X604364Y262098D01*
X603714Y263428D02*
X605694Y263428D01*
X605044Y264758D02*
X607024Y264758D01*
X606374Y266088D02*
X608354Y266088D01*
X607704Y267418D02*
X609684Y267418D01*
X609814Y268748D02*
X609034Y268748D01*
D11*
X670573Y354250D03*
X670573Y344250D03*
X670573Y376475D03*
X670573Y366475D03*
D12*
X567623Y239713D03*
X557623Y239713D03*
X567623Y228600D03*
X557623Y228600D03*
D11*
X557860Y216138D03*
X557860Y206138D03*
X557860Y193913D03*
X557860Y183913D03*
X557860Y171688D03*
X557860Y161688D03*
X557860Y149463D03*
X557860Y139463D03*
X557860Y127238D03*
X557860Y117238D03*
X670573Y398700D03*
X670573Y388700D03*
X670573Y410925D03*
X670573Y420925D03*
X559448Y499825D03*
X559448Y509825D03*
X559448Y477600D03*
X559448Y487600D03*
X559448Y455375D03*
X559448Y465375D03*
X559448Y433150D03*
X559448Y443150D03*
X668985Y110888D03*
X668985Y120888D03*
X668985Y133113D03*
X668985Y143113D03*
X668985Y155338D03*
X668985Y165338D03*
X668985Y177563D03*
X668985Y187563D03*
X668985Y199788D03*
X668985Y209788D03*
X668985Y232013D03*
X668985Y222013D03*
X670573Y254238D03*
X670573Y244238D03*
X670573Y276463D03*
X670573Y266463D03*
X559448Y420925D03*
X559448Y410925D03*
X559448Y388700D03*
X559448Y398700D03*
X559448Y368063D03*
X559448Y378063D03*
X559448Y347425D03*
X559448Y357425D03*
D12*
X557623Y261938D03*
X567623Y261938D03*
D11*
X618185Y44213D03*
X618185Y54213D03*
D12*
X557623Y250825D03*
X567623Y250825D03*
D13*
X588157Y436947D02*
X596063Y436947D01*
X588157Y436947D02*
X588157Y448653D01*
X596063Y448653D01*
X596063Y436947D01*
X596063Y438272D02*
X588157Y438272D01*
X588157Y439597D02*
X596063Y439597D01*
X596063Y440922D02*
X588157Y440922D01*
X588157Y442247D02*
X596063Y442247D01*
X596063Y443572D02*
X588157Y443572D01*
X588157Y444897D02*
X596063Y444897D01*
X596063Y446222D02*
X588157Y446222D01*
X588157Y447547D02*
X596063Y447547D01*
X611057Y436947D02*
X618963Y436947D01*
X611057Y436947D02*
X611057Y448653D01*
X618963Y448653D01*
X618963Y436947D01*
X618963Y438272D02*
X611057Y438272D01*
X611057Y439597D02*
X618963Y439597D01*
X618963Y440922D02*
X611057Y440922D01*
X611057Y442247D02*
X618963Y442247D01*
X618963Y443572D02*
X611057Y443572D01*
X611057Y444897D02*
X618963Y444897D01*
X618963Y446222D02*
X611057Y446222D01*
X611057Y447547D02*
X618963Y447547D01*
X633957Y436947D02*
X641863Y436947D01*
X633957Y436947D02*
X633957Y448653D01*
X641863Y448653D01*
X641863Y436947D01*
X641863Y438272D02*
X633957Y438272D01*
X633957Y439597D02*
X641863Y439597D01*
X641863Y440922D02*
X633957Y440922D01*
X633957Y442247D02*
X641863Y442247D01*
X641863Y443572D02*
X633957Y443572D01*
X633957Y444897D02*
X641863Y444897D01*
X641863Y446222D02*
X633957Y446222D01*
X633957Y447547D02*
X641863Y447547D01*
D14*
X630228Y504132D02*
X599792Y504132D01*
X599792Y515268D01*
X630228Y515268D01*
X630228Y504132D01*
X630228Y505999D02*
X599792Y505999D01*
X599792Y507866D02*
X630228Y507866D01*
X630228Y509733D02*
X599792Y509733D01*
X599792Y511600D02*
X630228Y511600D01*
X630228Y513467D02*
X599792Y513467D01*
D11*
X630885Y407750D03*
X630885Y417750D03*
X653110Y417750D03*
X653110Y407750D03*
D15*
X589910Y176050D03*
X589910Y116050D03*
X627410Y116050D03*
X627410Y176050D03*
D16*
X656285Y435325D03*
X656285Y447325D03*
D11*
X668985Y446325D03*
X668985Y436325D03*
D17*
X594373Y71435D03*
X594373Y94935D03*
D18*
X564845Y99158D03*
X564845Y71658D03*
D11*
X641998Y407750D03*
X641998Y417750D03*
X619773Y407750D03*
X619773Y417750D03*
X608660Y407750D03*
X608660Y417750D03*
D19*
X621010Y374650D03*
X609010Y374650D03*
X606026Y250571D03*
X618026Y250571D03*
G36*
X654754Y259936D02*
X648214Y253396D01*
X642982Y258628D01*
X649522Y265168D01*
X654754Y259936D01*
G37*
G36*
X663239Y268422D02*
X656699Y261882D01*
X651467Y267114D01*
X658007Y273654D01*
X663239Y268422D01*
G37*
G36*
X567799Y285806D02*
X574339Y279266D01*
X569107Y274034D01*
X562567Y280574D01*
X567799Y285806D01*
G37*
G36*
X559314Y294291D02*
X565854Y287751D01*
X560622Y282519D01*
X554082Y289059D01*
X559314Y294291D01*
G37*
X575800Y51181D03*
X587800Y51181D03*
X655554Y159068D03*
X643554Y159068D03*
D20*
X611454Y200416D03*
X611454Y225416D03*
D21*
X646824Y196003D03*
X646824Y233003D03*
D16*
X655396Y180879D03*
X655396Y168879D03*
D11*
X644792Y179498D03*
X644792Y169498D03*
D19*
X668635Y76200D03*
X656635Y76200D03*
X656635Y101600D03*
X668635Y101600D03*
D22*
X646323Y69850D03*
X631323Y69850D03*
X646323Y60325D03*
X631323Y60325D03*
D12*
X632710Y80963D03*
X622710Y80963D03*
X667635Y50800D03*
X657635Y50800D03*
D10*
X361852Y669619D02*
X360862Y670609D01*
X370902Y680649D01*
X371892Y679659D01*
X361852Y669619D01*
X361202Y670949D02*
X363182Y670949D01*
X362532Y672279D02*
X364512Y672279D01*
X363862Y673609D02*
X365842Y673609D01*
X365192Y674939D02*
X367172Y674939D01*
X366522Y676269D02*
X368502Y676269D01*
X367852Y677599D02*
X369832Y677599D01*
X369182Y678929D02*
X371162Y678929D01*
X371292Y680259D02*
X370512Y680259D01*
X358317Y673155D02*
X357327Y674145D01*
X367367Y684185D01*
X368357Y683195D01*
X358317Y673155D01*
X357667Y674485D02*
X359647Y674485D01*
X358997Y675815D02*
X360977Y675815D01*
X360327Y677145D02*
X362307Y677145D01*
X361657Y678475D02*
X363637Y678475D01*
X362987Y679805D02*
X364967Y679805D01*
X364317Y681135D02*
X366297Y681135D01*
X365647Y682465D02*
X367627Y682465D01*
X367757Y683795D02*
X366977Y683795D01*
X354781Y676690D02*
X353791Y677680D01*
X363831Y687720D01*
X364821Y686730D01*
X354781Y676690D01*
X354131Y678020D02*
X356111Y678020D01*
X355461Y679350D02*
X357441Y679350D01*
X356791Y680680D02*
X358771Y680680D01*
X358121Y682010D02*
X360101Y682010D01*
X359451Y683340D02*
X361431Y683340D01*
X360781Y684670D02*
X362761Y684670D01*
X362111Y686000D02*
X364091Y686000D01*
X364221Y687330D02*
X363441Y687330D01*
X351246Y680226D02*
X350256Y681216D01*
X360296Y691256D01*
X361286Y690266D01*
X351246Y680226D01*
X350596Y681556D02*
X352576Y681556D01*
X351926Y682886D02*
X353906Y682886D01*
X353256Y684216D02*
X355236Y684216D01*
X354586Y685546D02*
X356566Y685546D01*
X355916Y686876D02*
X357896Y686876D01*
X357246Y688206D02*
X359226Y688206D01*
X358576Y689536D02*
X360556Y689536D01*
X360686Y690866D02*
X359906Y690866D01*
X347710Y683761D02*
X346720Y684751D01*
X356760Y694791D01*
X357750Y693801D01*
X347710Y683761D01*
X347060Y685091D02*
X349040Y685091D01*
X348390Y686421D02*
X350370Y686421D01*
X349720Y687751D02*
X351700Y687751D01*
X351050Y689081D02*
X353030Y689081D01*
X352380Y690411D02*
X354360Y690411D01*
X353710Y691741D02*
X355690Y691741D01*
X355040Y693071D02*
X357020Y693071D01*
X357150Y694401D02*
X356370Y694401D01*
X344175Y687297D02*
X343185Y688287D01*
X353225Y698327D01*
X354215Y697337D01*
X344175Y687297D01*
X343525Y688627D02*
X345505Y688627D01*
X344855Y689957D02*
X346835Y689957D01*
X346185Y691287D02*
X348165Y691287D01*
X347515Y692617D02*
X349495Y692617D01*
X348845Y693947D02*
X350825Y693947D01*
X350175Y695277D02*
X352155Y695277D01*
X351505Y696607D02*
X353485Y696607D01*
X353615Y697937D02*
X352835Y697937D01*
X340639Y690832D02*
X339649Y691822D01*
X349689Y701862D01*
X350679Y700872D01*
X340639Y690832D01*
X339989Y692162D02*
X341969Y692162D01*
X341319Y693492D02*
X343299Y693492D01*
X342649Y694822D02*
X344629Y694822D01*
X343979Y696152D02*
X345959Y696152D01*
X345309Y697482D02*
X347289Y697482D01*
X346639Y698812D02*
X348619Y698812D01*
X347969Y700142D02*
X349949Y700142D01*
X350079Y701472D02*
X349299Y701472D01*
X337104Y694368D02*
X336114Y695358D01*
X346154Y705398D01*
X347144Y704408D01*
X337104Y694368D01*
X336454Y695698D02*
X338434Y695698D01*
X337784Y697028D02*
X339764Y697028D01*
X339114Y698358D02*
X341094Y698358D01*
X340444Y699688D02*
X342424Y699688D01*
X341774Y701018D02*
X343754Y701018D01*
X343104Y702348D02*
X345084Y702348D01*
X344434Y703678D02*
X346414Y703678D01*
X346544Y705008D02*
X345764Y705008D01*
X333568Y697903D02*
X332578Y698893D01*
X342618Y708933D01*
X343608Y707943D01*
X333568Y697903D01*
X332918Y699233D02*
X334898Y699233D01*
X334248Y700563D02*
X336228Y700563D01*
X335578Y701893D02*
X337558Y701893D01*
X336908Y703223D02*
X338888Y703223D01*
X338238Y704553D02*
X340218Y704553D01*
X339568Y705883D02*
X341548Y705883D01*
X340898Y707213D02*
X342878Y707213D01*
X343008Y708543D02*
X342228Y708543D01*
X330033Y701439D02*
X329043Y702429D01*
X339083Y712469D01*
X340073Y711479D01*
X330033Y701439D01*
X329383Y702769D02*
X331363Y702769D01*
X330713Y704099D02*
X332693Y704099D01*
X332043Y705429D02*
X334023Y705429D01*
X333373Y706759D02*
X335353Y706759D01*
X334703Y708089D02*
X336683Y708089D01*
X336033Y709419D02*
X338013Y709419D01*
X337363Y710749D02*
X339343Y710749D01*
X339473Y712079D02*
X338693Y712079D01*
X326497Y704974D02*
X325507Y705964D01*
X335547Y716004D01*
X336537Y715014D01*
X326497Y704974D01*
X325847Y706304D02*
X327827Y706304D01*
X327177Y707634D02*
X329157Y707634D01*
X328507Y708964D02*
X330487Y708964D01*
X329837Y710294D02*
X331817Y710294D01*
X331167Y711624D02*
X333147Y711624D01*
X332497Y712954D02*
X334477Y712954D01*
X333827Y714284D02*
X335807Y714284D01*
X335937Y715614D02*
X335157Y715614D01*
X322962Y708510D02*
X321972Y709500D01*
X332012Y719540D01*
X333002Y718550D01*
X322962Y708510D01*
X322312Y709840D02*
X324292Y709840D01*
X323642Y711170D02*
X325622Y711170D01*
X324972Y712500D02*
X326952Y712500D01*
X326302Y713830D02*
X328282Y713830D01*
X327632Y715160D02*
X329612Y715160D01*
X328962Y716490D02*
X330942Y716490D01*
X330292Y717820D02*
X332272Y717820D01*
X332402Y719150D02*
X331622Y719150D01*
X302738Y719540D02*
X301748Y718550D01*
X302738Y719540D02*
X312778Y709500D01*
X311788Y708510D01*
X301748Y718550D01*
X310458Y709840D02*
X312438Y709840D01*
X311108Y711170D02*
X309128Y711170D01*
X309778Y712500D02*
X307798Y712500D01*
X308448Y713830D02*
X306468Y713830D01*
X307118Y715160D02*
X305138Y715160D01*
X305788Y716490D02*
X303808Y716490D01*
X304458Y717820D02*
X302478Y717820D01*
X302348Y719150D02*
X303128Y719150D01*
X299203Y716004D02*
X298213Y715014D01*
X299203Y716004D02*
X309243Y705964D01*
X308253Y704974D01*
X298213Y715014D01*
X306923Y706304D02*
X308903Y706304D01*
X307573Y707634D02*
X305593Y707634D01*
X306243Y708964D02*
X304263Y708964D01*
X304913Y710294D02*
X302933Y710294D01*
X303583Y711624D02*
X301603Y711624D01*
X302253Y712954D02*
X300273Y712954D01*
X300923Y714284D02*
X298943Y714284D01*
X298813Y715614D02*
X299593Y715614D01*
X295667Y712469D02*
X294677Y711479D01*
X295667Y712469D02*
X305707Y702429D01*
X304717Y701439D01*
X294677Y711479D01*
X303387Y702769D02*
X305367Y702769D01*
X304037Y704099D02*
X302057Y704099D01*
X302707Y705429D02*
X300727Y705429D01*
X301377Y706759D02*
X299397Y706759D01*
X300047Y708089D02*
X298067Y708089D01*
X298717Y709419D02*
X296737Y709419D01*
X297387Y710749D02*
X295407Y710749D01*
X295277Y712079D02*
X296057Y712079D01*
X292132Y708933D02*
X291142Y707943D01*
X292132Y708933D02*
X302172Y698893D01*
X301182Y697903D01*
X291142Y707943D01*
X299852Y699233D02*
X301832Y699233D01*
X300502Y700563D02*
X298522Y700563D01*
X299172Y701893D02*
X297192Y701893D01*
X297842Y703223D02*
X295862Y703223D01*
X296512Y704553D02*
X294532Y704553D01*
X295182Y705883D02*
X293202Y705883D01*
X293852Y707213D02*
X291872Y707213D01*
X291742Y708543D02*
X292522Y708543D01*
X288596Y705398D02*
X287606Y704408D01*
X288596Y705398D02*
X298636Y695358D01*
X297646Y694368D01*
X287606Y704408D01*
X296316Y695698D02*
X298296Y695698D01*
X296966Y697028D02*
X294986Y697028D01*
X295636Y698358D02*
X293656Y698358D01*
X294306Y699688D02*
X292326Y699688D01*
X292976Y701018D02*
X290996Y701018D01*
X291646Y702348D02*
X289666Y702348D01*
X290316Y703678D02*
X288336Y703678D01*
X288206Y705008D02*
X288986Y705008D01*
X285061Y701862D02*
X284071Y700872D01*
X285061Y701862D02*
X295101Y691822D01*
X294111Y690832D01*
X284071Y700872D01*
X292781Y692162D02*
X294761Y692162D01*
X293431Y693492D02*
X291451Y693492D01*
X292101Y694822D02*
X290121Y694822D01*
X290771Y696152D02*
X288791Y696152D01*
X289441Y697482D02*
X287461Y697482D01*
X288111Y698812D02*
X286131Y698812D01*
X286781Y700142D02*
X284801Y700142D01*
X284671Y701472D02*
X285451Y701472D01*
X281525Y698327D02*
X280535Y697337D01*
X281525Y698327D02*
X291565Y688287D01*
X290575Y687297D01*
X280535Y697337D01*
X289245Y688627D02*
X291225Y688627D01*
X289895Y689957D02*
X287915Y689957D01*
X288565Y691287D02*
X286585Y691287D01*
X287235Y692617D02*
X285255Y692617D01*
X285905Y693947D02*
X283925Y693947D01*
X284575Y695277D02*
X282595Y695277D01*
X283245Y696607D02*
X281265Y696607D01*
X281135Y697937D02*
X281915Y697937D01*
X277990Y694791D02*
X277000Y693801D01*
X277990Y694791D02*
X288030Y684751D01*
X287040Y683761D01*
X277000Y693801D01*
X285710Y685091D02*
X287690Y685091D01*
X286360Y686421D02*
X284380Y686421D01*
X285030Y687751D02*
X283050Y687751D01*
X283700Y689081D02*
X281720Y689081D01*
X282370Y690411D02*
X280390Y690411D01*
X281040Y691741D02*
X279060Y691741D01*
X279710Y693071D02*
X277730Y693071D01*
X277600Y694401D02*
X278380Y694401D01*
X274454Y691256D02*
X273464Y690266D01*
X274454Y691256D02*
X284494Y681216D01*
X283504Y680226D01*
X273464Y690266D01*
X282174Y681556D02*
X284154Y681556D01*
X282824Y682886D02*
X280844Y682886D01*
X281494Y684216D02*
X279514Y684216D01*
X280164Y685546D02*
X278184Y685546D01*
X278834Y686876D02*
X276854Y686876D01*
X277504Y688206D02*
X275524Y688206D01*
X276174Y689536D02*
X274194Y689536D01*
X274064Y690866D02*
X274844Y690866D01*
X270919Y687720D02*
X269929Y686730D01*
X270919Y687720D02*
X280959Y677680D01*
X279969Y676690D01*
X269929Y686730D01*
X278639Y678020D02*
X280619Y678020D01*
X279289Y679350D02*
X277309Y679350D01*
X277959Y680680D02*
X275979Y680680D01*
X276629Y682010D02*
X274649Y682010D01*
X275299Y683340D02*
X273319Y683340D01*
X273969Y684670D02*
X271989Y684670D01*
X272639Y686000D02*
X270659Y686000D01*
X270529Y687330D02*
X271309Y687330D01*
X267383Y684185D02*
X266393Y683195D01*
X267383Y684185D02*
X277423Y674145D01*
X276433Y673155D01*
X266393Y683195D01*
X275103Y674485D02*
X277083Y674485D01*
X275753Y675815D02*
X273773Y675815D01*
X274423Y677145D02*
X272443Y677145D01*
X273093Y678475D02*
X271113Y678475D01*
X271763Y679805D02*
X269783Y679805D01*
X270433Y681135D02*
X268453Y681135D01*
X269103Y682465D02*
X267123Y682465D01*
X266993Y683795D02*
X267773Y683795D01*
X263848Y680649D02*
X262858Y679659D01*
X263848Y680649D02*
X273888Y670609D01*
X272898Y669619D01*
X262858Y679659D01*
X271568Y670949D02*
X273548Y670949D01*
X272218Y672279D02*
X270238Y672279D01*
X270888Y673609D02*
X268908Y673609D01*
X269558Y674939D02*
X267578Y674939D01*
X268228Y676269D02*
X266248Y676269D01*
X266898Y677599D02*
X264918Y677599D01*
X265568Y678929D02*
X263588Y678929D01*
X263458Y680259D02*
X264238Y680259D01*
X262858Y650386D02*
X263848Y649396D01*
X262858Y650386D02*
X272898Y660426D01*
X273888Y659436D01*
X263848Y649396D01*
X263198Y650726D02*
X265178Y650726D01*
X264528Y652056D02*
X266508Y652056D01*
X265858Y653386D02*
X267838Y653386D01*
X267188Y654716D02*
X269168Y654716D01*
X268518Y656046D02*
X270498Y656046D01*
X269848Y657376D02*
X271828Y657376D01*
X271178Y658706D02*
X273158Y658706D01*
X273288Y660036D02*
X272508Y660036D01*
X266393Y646850D02*
X267383Y645860D01*
X266393Y646850D02*
X276433Y656890D01*
X277423Y655900D01*
X267383Y645860D01*
X266733Y647190D02*
X268713Y647190D01*
X268063Y648520D02*
X270043Y648520D01*
X269393Y649850D02*
X271373Y649850D01*
X270723Y651180D02*
X272703Y651180D01*
X272053Y652510D02*
X274033Y652510D01*
X273383Y653840D02*
X275363Y653840D01*
X274713Y655170D02*
X276693Y655170D01*
X276823Y656500D02*
X276043Y656500D01*
X269929Y643315D02*
X270919Y642325D01*
X269929Y643315D02*
X279969Y653355D01*
X280959Y652365D01*
X270919Y642325D01*
X270269Y643655D02*
X272249Y643655D01*
X271599Y644985D02*
X273579Y644985D01*
X272929Y646315D02*
X274909Y646315D01*
X274259Y647645D02*
X276239Y647645D01*
X275589Y648975D02*
X277569Y648975D01*
X276919Y650305D02*
X278899Y650305D01*
X278249Y651635D02*
X280229Y651635D01*
X280359Y652965D02*
X279579Y652965D01*
X273464Y639779D02*
X274454Y638789D01*
X273464Y639779D02*
X283504Y649819D01*
X284494Y648829D01*
X274454Y638789D01*
X273804Y640119D02*
X275784Y640119D01*
X275134Y641449D02*
X277114Y641449D01*
X276464Y642779D02*
X278444Y642779D01*
X277794Y644109D02*
X279774Y644109D01*
X279124Y645439D02*
X281104Y645439D01*
X280454Y646769D02*
X282434Y646769D01*
X281784Y648099D02*
X283764Y648099D01*
X283894Y649429D02*
X283114Y649429D01*
X277000Y636244D02*
X277990Y635254D01*
X277000Y636244D02*
X287040Y646284D01*
X288030Y645294D01*
X277990Y635254D01*
X277340Y636584D02*
X279320Y636584D01*
X278670Y637914D02*
X280650Y637914D01*
X280000Y639244D02*
X281980Y639244D01*
X281330Y640574D02*
X283310Y640574D01*
X282660Y641904D02*
X284640Y641904D01*
X283990Y643234D02*
X285970Y643234D01*
X285320Y644564D02*
X287300Y644564D01*
X287430Y645894D02*
X286650Y645894D01*
X280535Y632708D02*
X281525Y631718D01*
X280535Y632708D02*
X290575Y642748D01*
X291565Y641758D01*
X281525Y631718D01*
X280875Y633048D02*
X282855Y633048D01*
X282205Y634378D02*
X284185Y634378D01*
X283535Y635708D02*
X285515Y635708D01*
X284865Y637038D02*
X286845Y637038D01*
X286195Y638368D02*
X288175Y638368D01*
X287525Y639698D02*
X289505Y639698D01*
X288855Y641028D02*
X290835Y641028D01*
X290965Y642358D02*
X290185Y642358D01*
X284071Y629173D02*
X285061Y628183D01*
X284071Y629173D02*
X294111Y639213D01*
X295101Y638223D01*
X285061Y628183D01*
X284411Y629513D02*
X286391Y629513D01*
X285741Y630843D02*
X287721Y630843D01*
X287071Y632173D02*
X289051Y632173D01*
X288401Y633503D02*
X290381Y633503D01*
X289731Y634833D02*
X291711Y634833D01*
X291061Y636163D02*
X293041Y636163D01*
X292391Y637493D02*
X294371Y637493D01*
X294501Y638823D02*
X293721Y638823D01*
X287606Y625637D02*
X288596Y624647D01*
X287606Y625637D02*
X297646Y635677D01*
X298636Y634687D01*
X288596Y624647D01*
X287946Y625977D02*
X289926Y625977D01*
X289276Y627307D02*
X291256Y627307D01*
X290606Y628637D02*
X292586Y628637D01*
X291936Y629967D02*
X293916Y629967D01*
X293266Y631297D02*
X295246Y631297D01*
X294596Y632627D02*
X296576Y632627D01*
X295926Y633957D02*
X297906Y633957D01*
X298036Y635287D02*
X297256Y635287D01*
X291142Y622101D02*
X292132Y621111D01*
X291142Y622101D02*
X301182Y632141D01*
X302172Y631151D01*
X292132Y621111D01*
X291482Y622441D02*
X293462Y622441D01*
X292812Y623771D02*
X294792Y623771D01*
X294142Y625101D02*
X296122Y625101D01*
X295472Y626431D02*
X297452Y626431D01*
X296802Y627761D02*
X298782Y627761D01*
X298132Y629091D02*
X300112Y629091D01*
X299462Y630421D02*
X301442Y630421D01*
X301572Y631751D02*
X300792Y631751D01*
X294677Y618566D02*
X295667Y617576D01*
X294677Y618566D02*
X304717Y628606D01*
X305707Y627616D01*
X295667Y617576D01*
X295017Y618906D02*
X296997Y618906D01*
X296347Y620236D02*
X298327Y620236D01*
X297677Y621566D02*
X299657Y621566D01*
X299007Y622896D02*
X300987Y622896D01*
X300337Y624226D02*
X302317Y624226D01*
X301667Y625556D02*
X303647Y625556D01*
X302997Y626886D02*
X304977Y626886D01*
X305107Y628216D02*
X304327Y628216D01*
X298213Y615030D02*
X299203Y614040D01*
X298213Y615030D02*
X308253Y625070D01*
X309243Y624080D01*
X299203Y614040D01*
X298553Y615370D02*
X300533Y615370D01*
X299883Y616700D02*
X301863Y616700D01*
X301213Y618030D02*
X303193Y618030D01*
X302543Y619360D02*
X304523Y619360D01*
X303873Y620690D02*
X305853Y620690D01*
X305203Y622020D02*
X307183Y622020D01*
X306533Y623350D02*
X308513Y623350D01*
X308643Y624680D02*
X307863Y624680D01*
X301748Y611495D02*
X302738Y610505D01*
X301748Y611495D02*
X311788Y621535D01*
X312778Y620545D01*
X302738Y610505D01*
X302088Y611835D02*
X304068Y611835D01*
X303418Y613165D02*
X305398Y613165D01*
X304748Y614495D02*
X306728Y614495D01*
X306078Y615825D02*
X308058Y615825D01*
X307408Y617155D02*
X309388Y617155D01*
X308738Y618485D02*
X310718Y618485D01*
X310068Y619815D02*
X312048Y619815D01*
X312178Y621145D02*
X311398Y621145D01*
X321972Y620545D02*
X322962Y621535D01*
X333002Y611495D01*
X332012Y610505D01*
X321972Y620545D01*
X330682Y611835D02*
X332662Y611835D01*
X331332Y613165D02*
X329352Y613165D01*
X330002Y614495D02*
X328022Y614495D01*
X328672Y615825D02*
X326692Y615825D01*
X327342Y617155D02*
X325362Y617155D01*
X326012Y618485D02*
X324032Y618485D01*
X324682Y619815D02*
X322702Y619815D01*
X322572Y621145D02*
X323352Y621145D01*
X325507Y624080D02*
X326497Y625070D01*
X336537Y615030D01*
X335547Y614040D01*
X325507Y624080D01*
X334217Y615370D02*
X336197Y615370D01*
X334867Y616700D02*
X332887Y616700D01*
X333537Y618030D02*
X331557Y618030D01*
X332207Y619360D02*
X330227Y619360D01*
X330877Y620690D02*
X328897Y620690D01*
X329547Y622020D02*
X327567Y622020D01*
X328217Y623350D02*
X326237Y623350D01*
X326107Y624680D02*
X326887Y624680D01*
X329043Y627616D02*
X330033Y628606D01*
X340073Y618566D01*
X339083Y617576D01*
X329043Y627616D01*
X337753Y618906D02*
X339733Y618906D01*
X338403Y620236D02*
X336423Y620236D01*
X337073Y621566D02*
X335093Y621566D01*
X335743Y622896D02*
X333763Y622896D01*
X334413Y624226D02*
X332433Y624226D01*
X333083Y625556D02*
X331103Y625556D01*
X331753Y626886D02*
X329773Y626886D01*
X329643Y628216D02*
X330423Y628216D01*
X332578Y631151D02*
X333568Y632141D01*
X343608Y622101D01*
X342618Y621111D01*
X332578Y631151D01*
X341288Y622441D02*
X343268Y622441D01*
X341938Y623771D02*
X339958Y623771D01*
X340608Y625101D02*
X338628Y625101D01*
X339278Y626431D02*
X337298Y626431D01*
X337948Y627761D02*
X335968Y627761D01*
X336618Y629091D02*
X334638Y629091D01*
X335288Y630421D02*
X333308Y630421D01*
X333178Y631751D02*
X333958Y631751D01*
X336114Y634687D02*
X337104Y635677D01*
X347144Y625637D01*
X346154Y624647D01*
X336114Y634687D01*
X344824Y625977D02*
X346804Y625977D01*
X345474Y627307D02*
X343494Y627307D01*
X344144Y628637D02*
X342164Y628637D01*
X342814Y629967D02*
X340834Y629967D01*
X341484Y631297D02*
X339504Y631297D01*
X340154Y632627D02*
X338174Y632627D01*
X338824Y633957D02*
X336844Y633957D01*
X336714Y635287D02*
X337494Y635287D01*
X339649Y638223D02*
X340639Y639213D01*
X350679Y629173D01*
X349689Y628183D01*
X339649Y638223D01*
X348359Y629513D02*
X350339Y629513D01*
X349009Y630843D02*
X347029Y630843D01*
X347679Y632173D02*
X345699Y632173D01*
X346349Y633503D02*
X344369Y633503D01*
X345019Y634833D02*
X343039Y634833D01*
X343689Y636163D02*
X341709Y636163D01*
X342359Y637493D02*
X340379Y637493D01*
X340249Y638823D02*
X341029Y638823D01*
X343185Y641758D02*
X344175Y642748D01*
X354215Y632708D01*
X353225Y631718D01*
X343185Y641758D01*
X351895Y633048D02*
X353875Y633048D01*
X352545Y634378D02*
X350565Y634378D01*
X351215Y635708D02*
X349235Y635708D01*
X349885Y637038D02*
X347905Y637038D01*
X348555Y638368D02*
X346575Y638368D01*
X347225Y639698D02*
X345245Y639698D01*
X345895Y641028D02*
X343915Y641028D01*
X343785Y642358D02*
X344565Y642358D01*
X346720Y645294D02*
X347710Y646284D01*
X357750Y636244D01*
X356760Y635254D01*
X346720Y645294D01*
X355430Y636584D02*
X357410Y636584D01*
X356080Y637914D02*
X354100Y637914D01*
X354750Y639244D02*
X352770Y639244D01*
X353420Y640574D02*
X351440Y640574D01*
X352090Y641904D02*
X350110Y641904D01*
X350760Y643234D02*
X348780Y643234D01*
X349430Y644564D02*
X347450Y644564D01*
X347320Y645894D02*
X348100Y645894D01*
X350256Y648829D02*
X351246Y649819D01*
X361286Y639779D01*
X360296Y638789D01*
X350256Y648829D01*
X358966Y640119D02*
X360946Y640119D01*
X359616Y641449D02*
X357636Y641449D01*
X358286Y642779D02*
X356306Y642779D01*
X356956Y644109D02*
X354976Y644109D01*
X355626Y645439D02*
X353646Y645439D01*
X354296Y646769D02*
X352316Y646769D01*
X352966Y648099D02*
X350986Y648099D01*
X350856Y649429D02*
X351636Y649429D01*
X353791Y652365D02*
X354781Y653355D01*
X364821Y643315D01*
X363831Y642325D01*
X353791Y652365D01*
X362501Y643655D02*
X364481Y643655D01*
X363151Y644985D02*
X361171Y644985D01*
X361821Y646315D02*
X359841Y646315D01*
X360491Y647645D02*
X358511Y647645D01*
X359161Y648975D02*
X357181Y648975D01*
X357831Y650305D02*
X355851Y650305D01*
X356501Y651635D02*
X354521Y651635D01*
X354391Y652965D02*
X355171Y652965D01*
X357327Y655900D02*
X358317Y656890D01*
X368357Y646850D01*
X367367Y645860D01*
X357327Y655900D01*
X366037Y647190D02*
X368017Y647190D01*
X366687Y648520D02*
X364707Y648520D01*
X365357Y649850D02*
X363377Y649850D01*
X364027Y651180D02*
X362047Y651180D01*
X362697Y652510D02*
X360717Y652510D01*
X361367Y653840D02*
X359387Y653840D01*
X360037Y655170D02*
X358057Y655170D01*
X357927Y656500D02*
X358707Y656500D01*
X360862Y659436D02*
X361852Y660426D01*
X371892Y650386D01*
X370902Y649396D01*
X360862Y659436D01*
X369572Y650726D02*
X371552Y650726D01*
X370222Y652056D02*
X368242Y652056D01*
X368892Y653386D02*
X366912Y653386D01*
X367562Y654716D02*
X365582Y654716D01*
X366232Y656046D02*
X364252Y656046D01*
X364902Y657376D02*
X362922Y657376D01*
X363572Y658706D02*
X361592Y658706D01*
X361462Y660036D02*
X362242Y660036D01*
D12*
X275750Y720585D03*
X285750Y720585D03*
X253525Y720585D03*
X263525Y720585D03*
D11*
X390288Y617635D03*
X390288Y607635D03*
X401400Y617635D03*
X401400Y607635D03*
D12*
X413863Y607872D03*
X423863Y607872D03*
X436088Y607872D03*
X446088Y607872D03*
X458313Y607872D03*
X468313Y607872D03*
X480538Y607872D03*
X490538Y607872D03*
X502763Y607872D03*
X512763Y607872D03*
X231300Y720585D03*
X241300Y720585D03*
X219075Y720585D03*
X209075Y720585D03*
X130175Y609460D03*
X120175Y609460D03*
X152400Y609460D03*
X142400Y609460D03*
X174625Y609460D03*
X164625Y609460D03*
X196850Y609460D03*
X186850Y609460D03*
X519113Y718997D03*
X509113Y718997D03*
X496888Y718997D03*
X486888Y718997D03*
X474663Y718997D03*
X464663Y718997D03*
X452438Y718997D03*
X442438Y718997D03*
X430213Y718997D03*
X420213Y718997D03*
X397988Y718997D03*
X407988Y718997D03*
X375763Y720585D03*
X385763Y720585D03*
X353538Y720585D03*
X363538Y720585D03*
X209075Y609460D03*
X219075Y609460D03*
X241300Y609460D03*
X231300Y609460D03*
X261938Y609460D03*
X251938Y609460D03*
X282575Y609460D03*
X272575Y609460D03*
D11*
X368063Y607635D03*
X368063Y617635D03*
D12*
X585788Y668197D03*
X575788Y668197D03*
D11*
X379175Y607635D03*
X379175Y617635D03*
D13*
X193053Y638169D02*
X193053Y646075D01*
X193053Y638169D02*
X181347Y638169D01*
X181347Y646075D01*
X193053Y646075D01*
X193053Y639494D02*
X181347Y639494D01*
X181347Y640819D02*
X193053Y640819D01*
X193053Y642144D02*
X181347Y642144D01*
X181347Y643469D02*
X193053Y643469D01*
X193053Y644794D02*
X181347Y644794D01*
X193053Y661069D02*
X193053Y668975D01*
X193053Y661069D02*
X181347Y661069D01*
X181347Y668975D01*
X193053Y668975D01*
X193053Y662394D02*
X181347Y662394D01*
X181347Y663719D02*
X193053Y663719D01*
X193053Y665044D02*
X181347Y665044D01*
X181347Y666369D02*
X193053Y666369D01*
X193053Y667694D02*
X181347Y667694D01*
X193053Y683969D02*
X193053Y691875D01*
X193053Y683969D02*
X181347Y683969D01*
X181347Y691875D01*
X193053Y691875D01*
X193053Y685294D02*
X181347Y685294D01*
X181347Y686619D02*
X193053Y686619D01*
X193053Y687944D02*
X181347Y687944D01*
X181347Y689269D02*
X193053Y689269D01*
X193053Y690594D02*
X181347Y690594D01*
D14*
X125868Y680240D02*
X125868Y649804D01*
X114732Y649804D01*
X114732Y680240D01*
X125868Y680240D01*
X125868Y651671D02*
X114732Y651671D01*
X114732Y653538D02*
X125868Y653538D01*
X125868Y655405D02*
X114732Y655405D01*
X114732Y657272D02*
X125868Y657272D01*
X125868Y659139D02*
X114732Y659139D01*
X114732Y661006D02*
X125868Y661006D01*
X125868Y662873D02*
X114732Y662873D01*
X114732Y664740D02*
X125868Y664740D01*
X125868Y666607D02*
X114732Y666607D01*
X114732Y668474D02*
X125868Y668474D01*
X125868Y670341D02*
X114732Y670341D01*
X114732Y672208D02*
X125868Y672208D01*
X125868Y674075D02*
X114732Y674075D01*
X114732Y675942D02*
X125868Y675942D01*
X125868Y677809D02*
X114732Y677809D01*
X114732Y679676D02*
X125868Y679676D01*
D12*
X222250Y680897D03*
X212250Y680897D03*
X212250Y703122D03*
X222250Y703122D03*
D23*
X453950Y639922D03*
X513950Y639922D03*
X513950Y677422D03*
X453950Y677422D03*
D19*
X194675Y706297D03*
X182675Y706297D03*
D12*
X183675Y718997D03*
X193675Y718997D03*
D24*
X558565Y644385D03*
X535065Y644385D03*
D25*
X530843Y614857D03*
X558343Y614857D03*
D12*
X222250Y692010D03*
X212250Y692010D03*
X222250Y669785D03*
X212250Y669785D03*
X222250Y658672D03*
X212250Y658672D03*
D16*
X255350Y671022D03*
X255350Y659022D03*
X379429Y656038D03*
X379429Y668038D03*
D19*
G36*
X370064Y704766D02*
X376604Y698226D01*
X371372Y692994D01*
X364832Y699534D01*
X370064Y704766D01*
G37*
G36*
X361578Y713251D02*
X368118Y706711D01*
X362886Y701479D01*
X356346Y708019D01*
X361578Y713251D01*
G37*
G36*
X344194Y617811D02*
X350734Y624351D01*
X355966Y619119D01*
X349426Y612579D01*
X344194Y617811D01*
G37*
G36*
X335709Y609326D02*
X342249Y615866D01*
X347481Y610634D01*
X340941Y604094D01*
X335709Y609326D01*
G37*
D16*
X578819Y625812D03*
X578819Y637812D03*
X470933Y705566D03*
X470933Y693566D03*
D26*
X429585Y661466D03*
X404585Y661466D03*
D27*
X433997Y696836D03*
X396997Y696836D03*
D19*
X449121Y705408D03*
X461121Y705408D03*
D12*
X450502Y694804D03*
X460502Y694804D03*
D16*
X553800Y718647D03*
X553800Y706647D03*
X528400Y706647D03*
X528400Y718647D03*
D22*
X560150Y696335D03*
X560150Y681335D03*
X569675Y696335D03*
X569675Y681335D03*
D11*
X549038Y682722D03*
X549038Y672722D03*
X579200Y717647D03*
X579200Y707647D03*
M02*
