G04 EAGLE Gerber RS-274X export*
G75*
%MOMM*%
%FSLAX34Y34*%
%LPD*%
%INSoldermask Top*%
%IPPOS*%
%AMOC8*
5,1,8,0,0,1.08239X$1,22.5*%
G01*
%ADD10C,1.350000*%
%ADD11C,0.700000*%
%ADD12C,2.072637*%
%ADD13C,0.340800*%
%ADD14R,0.900000X0.800000*%
%ADD15R,0.800000X0.900000*%
%ADD16C,0.339000*%
%ADD17C,0.455878*%
%ADD18R,0.950000X1.200000*%
%ADD19R,0.940000X1.125000*%
%ADD20R,2.110000X1.860000*%
%ADD21R,1.800000X2.250000*%
%ADD22R,1.125000X0.940000*%
%ADD23R,2.000000X1.200000*%
%ADD24R,3.640000X2.040000*%
%ADD25R,1.000000X1.000000*%
%ADD26R,1.200000X0.950000*%
%ADD27R,1.860000X2.110000*%
%ADD28R,2.250000X1.800000*%
%ADD29R,1.200000X2.000000*%
%ADD30R,2.040000X3.640000*%
%ADD31C,1.224000*%


D10*
X772500Y822500D03*
X-32500Y822500D03*
X-32500Y-32500D03*
X772500Y-32500D03*
D11*
X-4000Y445000D03*
X-4000Y455000D03*
X-4000Y465000D03*
X-4000Y475000D03*
X-4000Y485000D03*
X-4000Y45000D03*
X-4000Y55000D03*
X-4000Y65000D03*
X-4000Y75000D03*
X-4000Y85000D03*
X145000Y784000D03*
X155000Y784000D03*
X165000Y784000D03*
X175000Y784000D03*
X185000Y784000D03*
X525000Y784000D03*
X535000Y784000D03*
X545000Y784000D03*
X555000Y784000D03*
X565000Y784000D03*
X734000Y485000D03*
X734000Y475000D03*
X734000Y465000D03*
X734000Y455000D03*
X734000Y445000D03*
X734000Y85000D03*
X734000Y75000D03*
X734000Y65000D03*
X734000Y55000D03*
X734000Y45000D03*
X635000Y-4000D03*
X625000Y-4000D03*
X615000Y-4000D03*
X605000Y-4000D03*
X595000Y-4000D03*
X385000Y-4000D03*
X375000Y-4000D03*
X365000Y-4000D03*
X355000Y-4000D03*
X345000Y-4000D03*
X135000Y-4000D03*
X125000Y-4000D03*
X115000Y-4000D03*
X105000Y-4000D03*
X95000Y-4000D03*
X345000Y534000D03*
X355000Y534000D03*
X365000Y534000D03*
X375000Y534000D03*
X385000Y534000D03*
X345000Y546000D03*
X355000Y546000D03*
X365000Y546000D03*
X375000Y546000D03*
X385000Y546000D03*
X145000Y534000D03*
X155000Y534000D03*
X165000Y534000D03*
X175000Y534000D03*
X185000Y534000D03*
X145000Y546000D03*
X155000Y546000D03*
X165000Y546000D03*
X175000Y546000D03*
X185000Y546000D03*
X545000Y534000D03*
X555000Y534000D03*
X565000Y534000D03*
X575000Y534000D03*
X585000Y534000D03*
X545000Y546000D03*
X555000Y546000D03*
X565000Y546000D03*
X575000Y546000D03*
X585000Y546000D03*
X246000Y445000D03*
X246000Y455000D03*
X246000Y465000D03*
X246000Y475000D03*
X246000Y485000D03*
X234000Y445000D03*
X234000Y455000D03*
X234000Y465000D03*
X234000Y475000D03*
X234000Y485000D03*
X496000Y445000D03*
X496000Y455000D03*
X496000Y465000D03*
X496000Y475000D03*
X496000Y485000D03*
X484000Y445000D03*
X484000Y455000D03*
X484000Y465000D03*
X484000Y475000D03*
X484000Y485000D03*
X246000Y45000D03*
X246000Y55000D03*
X246000Y65000D03*
X246000Y75000D03*
X246000Y85000D03*
X234000Y45000D03*
X234000Y55000D03*
X234000Y65000D03*
X234000Y75000D03*
X234000Y85000D03*
X496000Y45000D03*
X496000Y55000D03*
X496000Y65000D03*
X496000Y75000D03*
X496000Y85000D03*
X484000Y45000D03*
X484000Y55000D03*
X484000Y65000D03*
X484000Y75000D03*
X484000Y85000D03*
X646000Y645000D03*
X646000Y655000D03*
X646000Y665000D03*
X646000Y675000D03*
X646000Y685000D03*
X634000Y645000D03*
X634000Y655000D03*
X634000Y665000D03*
X634000Y675000D03*
X634000Y685000D03*
X96000Y645000D03*
X96000Y655000D03*
X96000Y665000D03*
X96000Y675000D03*
X96000Y685000D03*
X84000Y645000D03*
X84000Y655000D03*
X84000Y665000D03*
X84000Y675000D03*
X84000Y685000D03*
D12*
X38811Y25400D03*
X38811Y50800D03*
X38811Y76200D03*
X38811Y101600D03*
X38811Y127000D03*
X38811Y152400D03*
X38811Y177800D03*
X38811Y203200D03*
X38811Y228600D03*
X38811Y254000D03*
X38811Y279400D03*
X38811Y304800D03*
X38811Y330200D03*
X38811Y355600D03*
X38811Y381000D03*
X38811Y406400D03*
X38811Y431800D03*
X38811Y457200D03*
X38811Y482600D03*
X38811Y508000D03*
X191211Y25400D03*
X191211Y50800D03*
X191211Y76200D03*
X191211Y101600D03*
X191211Y127000D03*
X191211Y152400D03*
X191211Y177800D03*
X191211Y203200D03*
X191211Y228600D03*
X191211Y254000D03*
X191211Y279400D03*
X191211Y304800D03*
X191211Y330200D03*
X191211Y355600D03*
X191211Y381000D03*
X191211Y406400D03*
X191211Y431800D03*
X191211Y457200D03*
X191211Y482600D03*
X191211Y508000D03*
X76911Y25400D03*
X102311Y25400D03*
X127711Y25400D03*
X153111Y25400D03*
D13*
X119614Y268148D02*
X120598Y269132D01*
X130632Y259098D01*
X129648Y258114D01*
X119614Y268148D01*
X126410Y261352D02*
X128378Y261352D01*
X125140Y264590D02*
X123172Y264590D01*
X121902Y267828D02*
X119934Y267828D01*
X123149Y271683D02*
X124133Y272667D01*
X134167Y262633D01*
X133183Y261649D01*
X123149Y271683D01*
X129945Y264887D02*
X131913Y264887D01*
X128675Y268125D02*
X126707Y268125D01*
X125437Y271363D02*
X123469Y271363D01*
X126685Y275219D02*
X127669Y276203D01*
X137703Y266169D01*
X136719Y265185D01*
X126685Y275219D01*
X133481Y268423D02*
X135449Y268423D01*
X132211Y271661D02*
X130243Y271661D01*
X128973Y274899D02*
X127005Y274899D01*
X130220Y278754D02*
X131204Y279738D01*
X141238Y269704D01*
X140254Y268720D01*
X130220Y278754D01*
X137016Y271958D02*
X138984Y271958D01*
X135746Y275196D02*
X133778Y275196D01*
X132508Y278434D02*
X130540Y278434D01*
X133756Y282290D02*
X134740Y283274D01*
X144774Y273240D01*
X143790Y272256D01*
X133756Y282290D01*
X140552Y275494D02*
X142520Y275494D01*
X139282Y278732D02*
X137314Y278732D01*
X136044Y281970D02*
X134076Y281970D01*
X137291Y285825D02*
X138275Y286809D01*
X148309Y276775D01*
X147325Y275791D01*
X137291Y285825D01*
X144087Y279029D02*
X146055Y279029D01*
X142817Y282267D02*
X140849Y282267D01*
X139579Y285505D02*
X137611Y285505D01*
X140827Y289361D02*
X141811Y290345D01*
X151845Y280311D01*
X150861Y279327D01*
X140827Y289361D01*
X147623Y282565D02*
X149591Y282565D01*
X146353Y285803D02*
X144385Y285803D01*
X143115Y289041D02*
X141147Y289041D01*
X144363Y292896D02*
X145347Y293880D01*
X155381Y283846D01*
X154397Y282862D01*
X144363Y292896D01*
X151159Y286100D02*
X153127Y286100D01*
X149889Y289338D02*
X147921Y289338D01*
X146651Y292576D02*
X144683Y292576D01*
X147898Y296432D02*
X148882Y297416D01*
X158916Y287382D01*
X157932Y286398D01*
X147898Y296432D01*
X154694Y289636D02*
X156662Y289636D01*
X153424Y292874D02*
X151456Y292874D01*
X150186Y296112D02*
X148218Y296112D01*
X151434Y299967D02*
X152418Y300951D01*
X162452Y290917D01*
X161468Y289933D01*
X151434Y299967D01*
X158230Y293171D02*
X160198Y293171D01*
X156960Y296409D02*
X154992Y296409D01*
X153722Y299647D02*
X151754Y299647D01*
X154969Y303503D02*
X155953Y304487D01*
X165987Y294453D01*
X165003Y293469D01*
X154969Y303503D01*
X161765Y296707D02*
X163733Y296707D01*
X160495Y299945D02*
X158527Y299945D01*
X157257Y303183D02*
X155289Y303183D01*
X158505Y307038D02*
X159489Y308022D01*
X169523Y297988D01*
X168539Y297004D01*
X158505Y307038D01*
X165301Y300242D02*
X167269Y300242D01*
X164031Y303480D02*
X162063Y303480D01*
X160793Y306718D02*
X158825Y306718D01*
X169523Y327262D02*
X168539Y328246D01*
X169523Y327262D02*
X159489Y317228D01*
X158505Y318212D01*
X168539Y328246D01*
X162727Y320466D02*
X160759Y320466D01*
X163997Y323704D02*
X165965Y323704D01*
X167235Y326942D02*
X169203Y326942D01*
X165987Y330797D02*
X165003Y331781D01*
X165987Y330797D02*
X155953Y320763D01*
X154969Y321747D01*
X165003Y331781D01*
X159191Y324001D02*
X157223Y324001D01*
X160461Y327239D02*
X162429Y327239D01*
X163699Y330477D02*
X165667Y330477D01*
X162452Y334333D02*
X161468Y335317D01*
X162452Y334333D02*
X152418Y324299D01*
X151434Y325283D01*
X161468Y335317D01*
X155656Y327537D02*
X153688Y327537D01*
X156926Y330775D02*
X158894Y330775D01*
X160164Y334013D02*
X162132Y334013D01*
X158916Y337868D02*
X157932Y338852D01*
X158916Y337868D02*
X148882Y327834D01*
X147898Y328818D01*
X157932Y338852D01*
X152120Y331072D02*
X150152Y331072D01*
X153390Y334310D02*
X155358Y334310D01*
X156628Y337548D02*
X158596Y337548D01*
X155381Y341404D02*
X154397Y342388D01*
X155381Y341404D02*
X145347Y331370D01*
X144363Y332354D01*
X154397Y342388D01*
X148585Y334608D02*
X146617Y334608D01*
X149855Y337846D02*
X151823Y337846D01*
X153093Y341084D02*
X155061Y341084D01*
X151845Y344939D02*
X150861Y345923D01*
X151845Y344939D02*
X141811Y334905D01*
X140827Y335889D01*
X150861Y345923D01*
X145049Y338143D02*
X143081Y338143D01*
X146319Y341381D02*
X148287Y341381D01*
X149557Y344619D02*
X151525Y344619D01*
X148309Y348475D02*
X147325Y349459D01*
X148309Y348475D02*
X138275Y338441D01*
X137291Y339425D01*
X147325Y349459D01*
X141513Y341679D02*
X139545Y341679D01*
X142783Y344917D02*
X144751Y344917D01*
X146021Y348155D02*
X147989Y348155D01*
X144774Y352010D02*
X143790Y352994D01*
X144774Y352010D02*
X134740Y341976D01*
X133756Y342960D01*
X143790Y352994D01*
X137978Y345214D02*
X136010Y345214D01*
X139248Y348452D02*
X141216Y348452D01*
X142486Y351690D02*
X144454Y351690D01*
X141238Y355546D02*
X140254Y356530D01*
X141238Y355546D02*
X131204Y345512D01*
X130220Y346496D01*
X140254Y356530D01*
X134442Y348750D02*
X132474Y348750D01*
X135712Y351988D02*
X137680Y351988D01*
X138950Y355226D02*
X140918Y355226D01*
X137703Y359081D02*
X136719Y360065D01*
X137703Y359081D02*
X127669Y349047D01*
X126685Y350031D01*
X136719Y360065D01*
X130907Y352285D02*
X128939Y352285D01*
X132177Y355523D02*
X134145Y355523D01*
X135415Y358761D02*
X137383Y358761D01*
X134167Y362617D02*
X133183Y363601D01*
X134167Y362617D02*
X124133Y352583D01*
X123149Y353567D01*
X133183Y363601D01*
X127371Y355821D02*
X125403Y355821D01*
X128641Y359059D02*
X130609Y359059D01*
X131879Y362297D02*
X133847Y362297D01*
X130632Y366152D02*
X129648Y367136D01*
X130632Y366152D02*
X120598Y356118D01*
X119614Y357102D01*
X129648Y367136D01*
X123836Y359356D02*
X121868Y359356D01*
X125106Y362594D02*
X127074Y362594D01*
X128344Y365832D02*
X130312Y365832D01*
X100375Y367136D02*
X99391Y366152D01*
X100375Y367136D02*
X110409Y357102D01*
X109425Y356118D01*
X99391Y366152D01*
X106187Y359356D02*
X108155Y359356D01*
X104917Y362594D02*
X102949Y362594D01*
X101679Y365832D02*
X99711Y365832D01*
X96839Y363601D02*
X95855Y362617D01*
X96839Y363601D02*
X106873Y353567D01*
X105889Y352583D01*
X95855Y362617D01*
X102651Y355821D02*
X104619Y355821D01*
X101381Y359059D02*
X99413Y359059D01*
X98143Y362297D02*
X96175Y362297D01*
X93303Y360065D02*
X92319Y359081D01*
X93303Y360065D02*
X103337Y350031D01*
X102353Y349047D01*
X92319Y359081D01*
X99115Y352285D02*
X101083Y352285D01*
X97845Y355523D02*
X95877Y355523D01*
X94607Y358761D02*
X92639Y358761D01*
X89768Y356530D02*
X88784Y355546D01*
X89768Y356530D02*
X99802Y346496D01*
X98818Y345512D01*
X88784Y355546D01*
X95580Y348750D02*
X97548Y348750D01*
X94310Y351988D02*
X92342Y351988D01*
X91072Y355226D02*
X89104Y355226D01*
X86232Y352994D02*
X85248Y352010D01*
X86232Y352994D02*
X96266Y342960D01*
X95282Y341976D01*
X85248Y352010D01*
X92044Y345214D02*
X94012Y345214D01*
X90774Y348452D02*
X88806Y348452D01*
X87536Y351690D02*
X85568Y351690D01*
X82697Y349459D02*
X81713Y348475D01*
X82697Y349459D02*
X92731Y339425D01*
X91747Y338441D01*
X81713Y348475D01*
X88509Y341679D02*
X90477Y341679D01*
X87239Y344917D02*
X85271Y344917D01*
X84001Y348155D02*
X82033Y348155D01*
X79161Y345923D02*
X78177Y344939D01*
X79161Y345923D02*
X89195Y335889D01*
X88211Y334905D01*
X78177Y344939D01*
X84973Y338143D02*
X86941Y338143D01*
X83703Y341381D02*
X81735Y341381D01*
X80465Y344619D02*
X78497Y344619D01*
X75626Y342388D02*
X74642Y341404D01*
X75626Y342388D02*
X85660Y332354D01*
X84676Y331370D01*
X74642Y341404D01*
X81438Y334608D02*
X83406Y334608D01*
X80168Y337846D02*
X78200Y337846D01*
X76930Y341084D02*
X74962Y341084D01*
X72090Y338852D02*
X71106Y337868D01*
X72090Y338852D02*
X82124Y328818D01*
X81140Y327834D01*
X71106Y337868D01*
X77902Y331072D02*
X79870Y331072D01*
X76632Y334310D02*
X74664Y334310D01*
X73394Y337548D02*
X71426Y337548D01*
X68555Y335317D02*
X67571Y334333D01*
X68555Y335317D02*
X78589Y325283D01*
X77605Y324299D01*
X67571Y334333D01*
X74367Y327537D02*
X76335Y327537D01*
X73097Y330775D02*
X71129Y330775D01*
X69859Y334013D02*
X67891Y334013D01*
X65019Y331781D02*
X64035Y330797D01*
X65019Y331781D02*
X75053Y321747D01*
X74069Y320763D01*
X64035Y330797D01*
X70831Y324001D02*
X72799Y324001D01*
X69561Y327239D02*
X67593Y327239D01*
X66323Y330477D02*
X64355Y330477D01*
X61484Y328246D02*
X60500Y327262D01*
X61484Y328246D02*
X71518Y318212D01*
X70534Y317228D01*
X60500Y327262D01*
X67296Y320466D02*
X69264Y320466D01*
X66026Y323704D02*
X64058Y323704D01*
X62788Y326942D02*
X60820Y326942D01*
X70534Y308022D02*
X71518Y307038D01*
X61484Y297004D01*
X60500Y297988D01*
X70534Y308022D01*
X64722Y300242D02*
X62754Y300242D01*
X65992Y303480D02*
X67960Y303480D01*
X69230Y306718D02*
X71198Y306718D01*
X74069Y304487D02*
X75053Y303503D01*
X65019Y293469D01*
X64035Y294453D01*
X74069Y304487D01*
X68257Y296707D02*
X66289Y296707D01*
X69527Y299945D02*
X71495Y299945D01*
X72765Y303183D02*
X74733Y303183D01*
X77605Y300951D02*
X78589Y299967D01*
X68555Y289933D01*
X67571Y290917D01*
X77605Y300951D01*
X71793Y293171D02*
X69825Y293171D01*
X73063Y296409D02*
X75031Y296409D01*
X76301Y299647D02*
X78269Y299647D01*
X81140Y297416D02*
X82124Y296432D01*
X72090Y286398D01*
X71106Y287382D01*
X81140Y297416D01*
X75328Y289636D02*
X73360Y289636D01*
X76598Y292874D02*
X78566Y292874D01*
X79836Y296112D02*
X81804Y296112D01*
X84676Y293880D02*
X85660Y292896D01*
X75626Y282862D01*
X74642Y283846D01*
X84676Y293880D01*
X78864Y286100D02*
X76896Y286100D01*
X80134Y289338D02*
X82102Y289338D01*
X83372Y292576D02*
X85340Y292576D01*
X88211Y290345D02*
X89195Y289361D01*
X79161Y279327D01*
X78177Y280311D01*
X88211Y290345D01*
X82399Y282565D02*
X80431Y282565D01*
X83669Y285803D02*
X85637Y285803D01*
X86907Y289041D02*
X88875Y289041D01*
X91747Y286809D02*
X92731Y285825D01*
X82697Y275791D01*
X81713Y276775D01*
X91747Y286809D01*
X85935Y279029D02*
X83967Y279029D01*
X87205Y282267D02*
X89173Y282267D01*
X90443Y285505D02*
X92411Y285505D01*
X95282Y283274D02*
X96266Y282290D01*
X86232Y272256D01*
X85248Y273240D01*
X95282Y283274D01*
X89470Y275494D02*
X87502Y275494D01*
X90740Y278732D02*
X92708Y278732D01*
X93978Y281970D02*
X95946Y281970D01*
X98818Y279738D02*
X99802Y278754D01*
X89768Y268720D01*
X88784Y269704D01*
X98818Y279738D01*
X93006Y271958D02*
X91038Y271958D01*
X94276Y275196D02*
X96244Y275196D01*
X97514Y278434D02*
X99482Y278434D01*
X102353Y276203D02*
X103337Y275219D01*
X93303Y265185D01*
X92319Y266169D01*
X102353Y276203D01*
X96541Y268423D02*
X94573Y268423D01*
X97811Y271661D02*
X99779Y271661D01*
X101049Y274899D02*
X103017Y274899D01*
X105889Y272667D02*
X106873Y271683D01*
X96839Y261649D01*
X95855Y262633D01*
X105889Y272667D01*
X100077Y264887D02*
X98109Y264887D01*
X101347Y268125D02*
X103315Y268125D01*
X104585Y271363D02*
X106553Y271363D01*
X109425Y269132D02*
X110409Y268148D01*
X100375Y258114D01*
X99391Y259098D01*
X109425Y269132D01*
X103613Y261352D02*
X101645Y261352D01*
X104883Y264590D02*
X106851Y264590D01*
X108121Y267828D02*
X110089Y267828D01*
D14*
X170574Y354250D03*
X170574Y344250D03*
X170574Y376475D03*
X170574Y366475D03*
D15*
X67624Y239713D03*
X57624Y239713D03*
X67624Y228600D03*
X57624Y228600D03*
D14*
X57861Y216138D03*
X57861Y206138D03*
X57861Y193913D03*
X57861Y183913D03*
X57861Y171688D03*
X57861Y161688D03*
X57861Y149463D03*
X57861Y139463D03*
X57861Y127238D03*
X57861Y117238D03*
X170574Y398700D03*
X170574Y388700D03*
X170574Y410925D03*
X170574Y420925D03*
X59449Y499825D03*
X59449Y509825D03*
X59449Y477600D03*
X59449Y487600D03*
X59449Y455375D03*
X59449Y465375D03*
X59449Y433150D03*
X59449Y443150D03*
X168986Y110888D03*
X168986Y120888D03*
X168986Y133113D03*
X168986Y143113D03*
X168986Y155338D03*
X168986Y165338D03*
X168986Y177563D03*
X168986Y187563D03*
X168986Y199788D03*
X168986Y209788D03*
X168986Y232013D03*
X168986Y222013D03*
X170574Y254238D03*
X170574Y244238D03*
X170574Y276463D03*
X170574Y266463D03*
X59449Y420925D03*
X59449Y410925D03*
X59449Y388700D03*
X59449Y398700D03*
X59449Y368063D03*
X59449Y378063D03*
X59449Y347425D03*
X59449Y357425D03*
D15*
X57624Y261938D03*
X67624Y261938D03*
D14*
X118186Y44213D03*
X118186Y54213D03*
D15*
X57624Y250825D03*
X67624Y250825D03*
D16*
X88156Y436945D02*
X96066Y436945D01*
X88156Y436945D02*
X88156Y448655D01*
X96066Y448655D01*
X96066Y436945D01*
X96066Y440165D02*
X88156Y440165D01*
X88156Y443385D02*
X96066Y443385D01*
X96066Y446605D02*
X88156Y446605D01*
X111056Y436945D02*
X118966Y436945D01*
X111056Y436945D02*
X111056Y448655D01*
X118966Y448655D01*
X118966Y436945D01*
X118966Y440165D02*
X111056Y440165D01*
X111056Y443385D02*
X118966Y443385D01*
X118966Y446605D02*
X111056Y446605D01*
X133956Y436945D02*
X141866Y436945D01*
X133956Y436945D02*
X133956Y448655D01*
X141866Y448655D01*
X141866Y436945D01*
X141866Y440165D02*
X133956Y440165D01*
X133956Y443385D02*
X141866Y443385D01*
X141866Y446605D02*
X133956Y446605D01*
D17*
X130242Y504119D02*
X99780Y504119D01*
X99780Y515281D01*
X130242Y515281D01*
X130242Y504119D01*
X130242Y508450D02*
X99780Y508450D01*
X99780Y512781D02*
X130242Y512781D01*
D14*
X130886Y407750D03*
X130886Y417750D03*
X153111Y417750D03*
X153111Y407750D03*
D18*
X89911Y176050D03*
X89911Y116050D03*
X127411Y116050D03*
X127411Y176050D03*
D19*
X156286Y435325D03*
X156286Y447325D03*
D14*
X168986Y446325D03*
X168986Y436325D03*
D20*
X94374Y71435D03*
X94374Y94935D03*
D21*
X64846Y99158D03*
X64846Y71658D03*
D14*
X141999Y407750D03*
X141999Y417750D03*
X119774Y407750D03*
X119774Y417750D03*
X108661Y407750D03*
X108661Y417750D03*
D22*
X121011Y374650D03*
X109011Y374650D03*
X106027Y250571D03*
X118027Y250571D03*
G36*
X156169Y259936D02*
X148215Y251982D01*
X141569Y258628D01*
X149523Y266582D01*
X156169Y259936D01*
G37*
G36*
X164654Y268422D02*
X156700Y260468D01*
X150054Y267114D01*
X158008Y275068D01*
X164654Y268422D01*
G37*
G36*
X67800Y287220D02*
X75754Y279266D01*
X69108Y272620D01*
X61154Y280574D01*
X67800Y287220D01*
G37*
G36*
X59315Y295705D02*
X67269Y287751D01*
X60623Y281105D01*
X52669Y289059D01*
X59315Y295705D01*
G37*
X75801Y51181D03*
X87801Y51181D03*
X155555Y159068D03*
X143555Y159068D03*
D23*
X111455Y200416D03*
X111455Y225416D03*
D24*
X146825Y196003D03*
X146825Y233003D03*
D19*
X155397Y180879D03*
X155397Y168879D03*
D14*
X144793Y179498D03*
X144793Y169498D03*
D22*
X168636Y76200D03*
X156636Y76200D03*
X156636Y101600D03*
X168636Y101600D03*
D25*
X146324Y69850D03*
X131324Y69850D03*
X146324Y60325D03*
X131324Y60325D03*
D15*
X132711Y80963D03*
X122711Y80963D03*
X167636Y50800D03*
X157636Y50800D03*
D12*
X288823Y25400D03*
X288823Y50800D03*
X288823Y76200D03*
X288823Y101600D03*
X288823Y127000D03*
X288823Y152400D03*
X288823Y177800D03*
X288823Y203200D03*
X288823Y228600D03*
X288823Y254000D03*
X288823Y279400D03*
X288823Y304800D03*
X288823Y330200D03*
X288823Y355600D03*
X288823Y381000D03*
X288823Y406400D03*
X288823Y431800D03*
X288823Y457200D03*
X288823Y482600D03*
X288823Y508000D03*
X441223Y25400D03*
X441223Y50800D03*
X441223Y76200D03*
X441223Y101600D03*
X441223Y127000D03*
X441223Y152400D03*
X441223Y177800D03*
X441223Y203200D03*
X441223Y228600D03*
X441223Y254000D03*
X441223Y279400D03*
X441223Y304800D03*
X441223Y330200D03*
X441223Y355600D03*
X441223Y381000D03*
X441223Y406400D03*
X441223Y431800D03*
X441223Y457200D03*
X441223Y482600D03*
X441223Y508000D03*
X326923Y25400D03*
X352323Y25400D03*
X377723Y25400D03*
X403123Y25400D03*
D13*
X369626Y268148D02*
X370610Y269132D01*
X380644Y259098D01*
X379660Y258114D01*
X369626Y268148D01*
X376422Y261352D02*
X378390Y261352D01*
X375152Y264590D02*
X373184Y264590D01*
X371914Y267828D02*
X369946Y267828D01*
X373162Y271683D02*
X374146Y272667D01*
X384180Y262633D01*
X383196Y261649D01*
X373162Y271683D01*
X379958Y264887D02*
X381926Y264887D01*
X378688Y268125D02*
X376720Y268125D01*
X375450Y271363D02*
X373482Y271363D01*
X376697Y275219D02*
X377681Y276203D01*
X387715Y266169D01*
X386731Y265185D01*
X376697Y275219D01*
X383493Y268423D02*
X385461Y268423D01*
X382223Y271661D02*
X380255Y271661D01*
X378985Y274899D02*
X377017Y274899D01*
X380233Y278754D02*
X381217Y279738D01*
X391251Y269704D01*
X390267Y268720D01*
X380233Y278754D01*
X387029Y271958D02*
X388997Y271958D01*
X385759Y275196D02*
X383791Y275196D01*
X382521Y278434D02*
X380553Y278434D01*
X383768Y282290D02*
X384752Y283274D01*
X394786Y273240D01*
X393802Y272256D01*
X383768Y282290D01*
X390564Y275494D02*
X392532Y275494D01*
X389294Y278732D02*
X387326Y278732D01*
X386056Y281970D02*
X384088Y281970D01*
X387304Y285825D02*
X388288Y286809D01*
X398322Y276775D01*
X397338Y275791D01*
X387304Y285825D01*
X394100Y279029D02*
X396068Y279029D01*
X392830Y282267D02*
X390862Y282267D01*
X389592Y285505D02*
X387624Y285505D01*
X390839Y289361D02*
X391823Y290345D01*
X401857Y280311D01*
X400873Y279327D01*
X390839Y289361D01*
X397635Y282565D02*
X399603Y282565D01*
X396365Y285803D02*
X394397Y285803D01*
X393127Y289041D02*
X391159Y289041D01*
X394375Y292896D02*
X395359Y293880D01*
X405393Y283846D01*
X404409Y282862D01*
X394375Y292896D01*
X401171Y286100D02*
X403139Y286100D01*
X399901Y289338D02*
X397933Y289338D01*
X396663Y292576D02*
X394695Y292576D01*
X397910Y296432D02*
X398894Y297416D01*
X408928Y287382D01*
X407944Y286398D01*
X397910Y296432D01*
X404706Y289636D02*
X406674Y289636D01*
X403436Y292874D02*
X401468Y292874D01*
X400198Y296112D02*
X398230Y296112D01*
X401446Y299967D02*
X402430Y300951D01*
X412464Y290917D01*
X411480Y289933D01*
X401446Y299967D01*
X408242Y293171D02*
X410210Y293171D01*
X406972Y296409D02*
X405004Y296409D01*
X403734Y299647D02*
X401766Y299647D01*
X404981Y303503D02*
X405965Y304487D01*
X415999Y294453D01*
X415015Y293469D01*
X404981Y303503D01*
X411777Y296707D02*
X413745Y296707D01*
X410507Y299945D02*
X408539Y299945D01*
X407269Y303183D02*
X405301Y303183D01*
X408517Y307038D02*
X409501Y308022D01*
X419535Y297988D01*
X418551Y297004D01*
X408517Y307038D01*
X415313Y300242D02*
X417281Y300242D01*
X414043Y303480D02*
X412075Y303480D01*
X410805Y306718D02*
X408837Y306718D01*
X419535Y327262D02*
X418551Y328246D01*
X419535Y327262D02*
X409501Y317228D01*
X408517Y318212D01*
X418551Y328246D01*
X412739Y320466D02*
X410771Y320466D01*
X414009Y323704D02*
X415977Y323704D01*
X417247Y326942D02*
X419215Y326942D01*
X415999Y330797D02*
X415015Y331781D01*
X415999Y330797D02*
X405965Y320763D01*
X404981Y321747D01*
X415015Y331781D01*
X409203Y324001D02*
X407235Y324001D01*
X410473Y327239D02*
X412441Y327239D01*
X413711Y330477D02*
X415679Y330477D01*
X412464Y334333D02*
X411480Y335317D01*
X412464Y334333D02*
X402430Y324299D01*
X401446Y325283D01*
X411480Y335317D01*
X405668Y327537D02*
X403700Y327537D01*
X406938Y330775D02*
X408906Y330775D01*
X410176Y334013D02*
X412144Y334013D01*
X408928Y337868D02*
X407944Y338852D01*
X408928Y337868D02*
X398894Y327834D01*
X397910Y328818D01*
X407944Y338852D01*
X402132Y331072D02*
X400164Y331072D01*
X403402Y334310D02*
X405370Y334310D01*
X406640Y337548D02*
X408608Y337548D01*
X405393Y341404D02*
X404409Y342388D01*
X405393Y341404D02*
X395359Y331370D01*
X394375Y332354D01*
X404409Y342388D01*
X398597Y334608D02*
X396629Y334608D01*
X399867Y337846D02*
X401835Y337846D01*
X403105Y341084D02*
X405073Y341084D01*
X401857Y344939D02*
X400873Y345923D01*
X401857Y344939D02*
X391823Y334905D01*
X390839Y335889D01*
X400873Y345923D01*
X395061Y338143D02*
X393093Y338143D01*
X396331Y341381D02*
X398299Y341381D01*
X399569Y344619D02*
X401537Y344619D01*
X398322Y348475D02*
X397338Y349459D01*
X398322Y348475D02*
X388288Y338441D01*
X387304Y339425D01*
X397338Y349459D01*
X391526Y341679D02*
X389558Y341679D01*
X392796Y344917D02*
X394764Y344917D01*
X396034Y348155D02*
X398002Y348155D01*
X394786Y352010D02*
X393802Y352994D01*
X394786Y352010D02*
X384752Y341976D01*
X383768Y342960D01*
X393802Y352994D01*
X387990Y345214D02*
X386022Y345214D01*
X389260Y348452D02*
X391228Y348452D01*
X392498Y351690D02*
X394466Y351690D01*
X391251Y355546D02*
X390267Y356530D01*
X391251Y355546D02*
X381217Y345512D01*
X380233Y346496D01*
X390267Y356530D01*
X384455Y348750D02*
X382487Y348750D01*
X385725Y351988D02*
X387693Y351988D01*
X388963Y355226D02*
X390931Y355226D01*
X387715Y359081D02*
X386731Y360065D01*
X387715Y359081D02*
X377681Y349047D01*
X376697Y350031D01*
X386731Y360065D01*
X380919Y352285D02*
X378951Y352285D01*
X382189Y355523D02*
X384157Y355523D01*
X385427Y358761D02*
X387395Y358761D01*
X384180Y362617D02*
X383196Y363601D01*
X384180Y362617D02*
X374146Y352583D01*
X373162Y353567D01*
X383196Y363601D01*
X377384Y355821D02*
X375416Y355821D01*
X378654Y359059D02*
X380622Y359059D01*
X381892Y362297D02*
X383860Y362297D01*
X380644Y366152D02*
X379660Y367136D01*
X380644Y366152D02*
X370610Y356118D01*
X369626Y357102D01*
X379660Y367136D01*
X373848Y359356D02*
X371880Y359356D01*
X375118Y362594D02*
X377086Y362594D01*
X378356Y365832D02*
X380324Y365832D01*
X350387Y367136D02*
X349403Y366152D01*
X350387Y367136D02*
X360421Y357102D01*
X359437Y356118D01*
X349403Y366152D01*
X356199Y359356D02*
X358167Y359356D01*
X354929Y362594D02*
X352961Y362594D01*
X351691Y365832D02*
X349723Y365832D01*
X346851Y363601D02*
X345867Y362617D01*
X346851Y363601D02*
X356885Y353567D01*
X355901Y352583D01*
X345867Y362617D01*
X352663Y355821D02*
X354631Y355821D01*
X351393Y359059D02*
X349425Y359059D01*
X348155Y362297D02*
X346187Y362297D01*
X343316Y360065D02*
X342332Y359081D01*
X343316Y360065D02*
X353350Y350031D01*
X352366Y349047D01*
X342332Y359081D01*
X349128Y352285D02*
X351096Y352285D01*
X347858Y355523D02*
X345890Y355523D01*
X344620Y358761D02*
X342652Y358761D01*
X339780Y356530D02*
X338796Y355546D01*
X339780Y356530D02*
X349814Y346496D01*
X348830Y345512D01*
X338796Y355546D01*
X345592Y348750D02*
X347560Y348750D01*
X344322Y351988D02*
X342354Y351988D01*
X341084Y355226D02*
X339116Y355226D01*
X336245Y352994D02*
X335261Y352010D01*
X336245Y352994D02*
X346279Y342960D01*
X345295Y341976D01*
X335261Y352010D01*
X342057Y345214D02*
X344025Y345214D01*
X340787Y348452D02*
X338819Y348452D01*
X337549Y351690D02*
X335581Y351690D01*
X332709Y349459D02*
X331725Y348475D01*
X332709Y349459D02*
X342743Y339425D01*
X341759Y338441D01*
X331725Y348475D01*
X338521Y341679D02*
X340489Y341679D01*
X337251Y344917D02*
X335283Y344917D01*
X334013Y348155D02*
X332045Y348155D01*
X329174Y345923D02*
X328190Y344939D01*
X329174Y345923D02*
X339208Y335889D01*
X338224Y334905D01*
X328190Y344939D01*
X334986Y338143D02*
X336954Y338143D01*
X333716Y341381D02*
X331748Y341381D01*
X330478Y344619D02*
X328510Y344619D01*
X325638Y342388D02*
X324654Y341404D01*
X325638Y342388D02*
X335672Y332354D01*
X334688Y331370D01*
X324654Y341404D01*
X331450Y334608D02*
X333418Y334608D01*
X330180Y337846D02*
X328212Y337846D01*
X326942Y341084D02*
X324974Y341084D01*
X322102Y338852D02*
X321118Y337868D01*
X322102Y338852D02*
X332136Y328818D01*
X331152Y327834D01*
X321118Y337868D01*
X327914Y331072D02*
X329882Y331072D01*
X326644Y334310D02*
X324676Y334310D01*
X323406Y337548D02*
X321438Y337548D01*
X318567Y335317D02*
X317583Y334333D01*
X318567Y335317D02*
X328601Y325283D01*
X327617Y324299D01*
X317583Y334333D01*
X324379Y327537D02*
X326347Y327537D01*
X323109Y330775D02*
X321141Y330775D01*
X319871Y334013D02*
X317903Y334013D01*
X315031Y331781D02*
X314047Y330797D01*
X315031Y331781D02*
X325065Y321747D01*
X324081Y320763D01*
X314047Y330797D01*
X320843Y324001D02*
X322811Y324001D01*
X319573Y327239D02*
X317605Y327239D01*
X316335Y330477D02*
X314367Y330477D01*
X311496Y328246D02*
X310512Y327262D01*
X311496Y328246D02*
X321530Y318212D01*
X320546Y317228D01*
X310512Y327262D01*
X317308Y320466D02*
X319276Y320466D01*
X316038Y323704D02*
X314070Y323704D01*
X312800Y326942D02*
X310832Y326942D01*
X320546Y308022D02*
X321530Y307038D01*
X311496Y297004D01*
X310512Y297988D01*
X320546Y308022D01*
X314734Y300242D02*
X312766Y300242D01*
X316004Y303480D02*
X317972Y303480D01*
X319242Y306718D02*
X321210Y306718D01*
X324081Y304487D02*
X325065Y303503D01*
X315031Y293469D01*
X314047Y294453D01*
X324081Y304487D01*
X318269Y296707D02*
X316301Y296707D01*
X319539Y299945D02*
X321507Y299945D01*
X322777Y303183D02*
X324745Y303183D01*
X327617Y300951D02*
X328601Y299967D01*
X318567Y289933D01*
X317583Y290917D01*
X327617Y300951D01*
X321805Y293171D02*
X319837Y293171D01*
X323075Y296409D02*
X325043Y296409D01*
X326313Y299647D02*
X328281Y299647D01*
X331152Y297416D02*
X332136Y296432D01*
X322102Y286398D01*
X321118Y287382D01*
X331152Y297416D01*
X325340Y289636D02*
X323372Y289636D01*
X326610Y292874D02*
X328578Y292874D01*
X329848Y296112D02*
X331816Y296112D01*
X334688Y293880D02*
X335672Y292896D01*
X325638Y282862D01*
X324654Y283846D01*
X334688Y293880D01*
X328876Y286100D02*
X326908Y286100D01*
X330146Y289338D02*
X332114Y289338D01*
X333384Y292576D02*
X335352Y292576D01*
X338224Y290345D02*
X339208Y289361D01*
X329174Y279327D01*
X328190Y280311D01*
X338224Y290345D01*
X332412Y282565D02*
X330444Y282565D01*
X333682Y285803D02*
X335650Y285803D01*
X336920Y289041D02*
X338888Y289041D01*
X341759Y286809D02*
X342743Y285825D01*
X332709Y275791D01*
X331725Y276775D01*
X341759Y286809D01*
X335947Y279029D02*
X333979Y279029D01*
X337217Y282267D02*
X339185Y282267D01*
X340455Y285505D02*
X342423Y285505D01*
X345295Y283274D02*
X346279Y282290D01*
X336245Y272256D01*
X335261Y273240D01*
X345295Y283274D01*
X339483Y275494D02*
X337515Y275494D01*
X340753Y278732D02*
X342721Y278732D01*
X343991Y281970D02*
X345959Y281970D01*
X348830Y279738D02*
X349814Y278754D01*
X339780Y268720D01*
X338796Y269704D01*
X348830Y279738D01*
X343018Y271958D02*
X341050Y271958D01*
X344288Y275196D02*
X346256Y275196D01*
X347526Y278434D02*
X349494Y278434D01*
X352366Y276203D02*
X353350Y275219D01*
X343316Y265185D01*
X342332Y266169D01*
X352366Y276203D01*
X346554Y268423D02*
X344586Y268423D01*
X347824Y271661D02*
X349792Y271661D01*
X351062Y274899D02*
X353030Y274899D01*
X355901Y272667D02*
X356885Y271683D01*
X346851Y261649D01*
X345867Y262633D01*
X355901Y272667D01*
X350089Y264887D02*
X348121Y264887D01*
X351359Y268125D02*
X353327Y268125D01*
X354597Y271363D02*
X356565Y271363D01*
X359437Y269132D02*
X360421Y268148D01*
X350387Y258114D01*
X349403Y259098D01*
X359437Y269132D01*
X353625Y261352D02*
X351657Y261352D01*
X354895Y264590D02*
X356863Y264590D01*
X358133Y267828D02*
X360101Y267828D01*
D14*
X420586Y354250D03*
X420586Y344250D03*
X420586Y376475D03*
X420586Y366475D03*
D15*
X317636Y239713D03*
X307636Y239713D03*
X317636Y228600D03*
X307636Y228600D03*
D14*
X307873Y216138D03*
X307873Y206138D03*
X307873Y193913D03*
X307873Y183913D03*
X307873Y171688D03*
X307873Y161688D03*
X307873Y149463D03*
X307873Y139463D03*
X307873Y127238D03*
X307873Y117238D03*
X420586Y398700D03*
X420586Y388700D03*
X420586Y410925D03*
X420586Y420925D03*
X309461Y499825D03*
X309461Y509825D03*
X309461Y477600D03*
X309461Y487600D03*
X309461Y455375D03*
X309461Y465375D03*
X309461Y433150D03*
X309461Y443150D03*
X418998Y110888D03*
X418998Y120888D03*
X418998Y133113D03*
X418998Y143113D03*
X418998Y155338D03*
X418998Y165338D03*
X418998Y177563D03*
X418998Y187563D03*
X418998Y199788D03*
X418998Y209788D03*
X418998Y232013D03*
X418998Y222013D03*
X420586Y254238D03*
X420586Y244238D03*
X420586Y276463D03*
X420586Y266463D03*
X309461Y420925D03*
X309461Y410925D03*
X309461Y388700D03*
X309461Y398700D03*
X309461Y368063D03*
X309461Y378063D03*
X309461Y347425D03*
X309461Y357425D03*
D15*
X307636Y261938D03*
X317636Y261938D03*
D14*
X368198Y44213D03*
X368198Y54213D03*
D15*
X307636Y250825D03*
X317636Y250825D03*
D16*
X338168Y436945D02*
X346078Y436945D01*
X338168Y436945D02*
X338168Y448655D01*
X346078Y448655D01*
X346078Y436945D01*
X346078Y440165D02*
X338168Y440165D01*
X338168Y443385D02*
X346078Y443385D01*
X346078Y446605D02*
X338168Y446605D01*
X361068Y436945D02*
X368978Y436945D01*
X361068Y436945D02*
X361068Y448655D01*
X368978Y448655D01*
X368978Y436945D01*
X368978Y440165D02*
X361068Y440165D01*
X361068Y443385D02*
X368978Y443385D01*
X368978Y446605D02*
X361068Y446605D01*
X383968Y436945D02*
X391878Y436945D01*
X383968Y436945D02*
X383968Y448655D01*
X391878Y448655D01*
X391878Y436945D01*
X391878Y440165D02*
X383968Y440165D01*
X383968Y443385D02*
X391878Y443385D01*
X391878Y446605D02*
X383968Y446605D01*
D17*
X380254Y504119D02*
X349792Y504119D01*
X349792Y515281D01*
X380254Y515281D01*
X380254Y504119D01*
X380254Y508450D02*
X349792Y508450D01*
X349792Y512781D02*
X380254Y512781D01*
D14*
X380898Y407750D03*
X380898Y417750D03*
X403123Y417750D03*
X403123Y407750D03*
D18*
X339923Y176050D03*
X339923Y116050D03*
X377423Y116050D03*
X377423Y176050D03*
D19*
X406298Y435325D03*
X406298Y447325D03*
D14*
X418998Y446325D03*
X418998Y436325D03*
D20*
X344386Y71435D03*
X344386Y94935D03*
D21*
X314858Y99158D03*
X314858Y71658D03*
D14*
X392011Y407750D03*
X392011Y417750D03*
X369786Y407750D03*
X369786Y417750D03*
X358673Y407750D03*
X358673Y417750D03*
D22*
X371023Y374650D03*
X359023Y374650D03*
X356039Y250571D03*
X368039Y250571D03*
G36*
X406181Y259936D02*
X398227Y251982D01*
X391581Y258628D01*
X399535Y266582D01*
X406181Y259936D01*
G37*
G36*
X414666Y268422D02*
X406712Y260468D01*
X400066Y267114D01*
X408020Y275068D01*
X414666Y268422D01*
G37*
G36*
X317812Y287220D02*
X325766Y279266D01*
X319120Y272620D01*
X311166Y280574D01*
X317812Y287220D01*
G37*
G36*
X309327Y295705D02*
X317281Y287751D01*
X310635Y281105D01*
X302681Y289059D01*
X309327Y295705D01*
G37*
X325813Y51181D03*
X337813Y51181D03*
X405567Y159068D03*
X393567Y159068D03*
D23*
X361467Y200416D03*
X361467Y225416D03*
D24*
X396837Y196003D03*
X396837Y233003D03*
D19*
X405409Y180879D03*
X405409Y168879D03*
D14*
X394805Y179498D03*
X394805Y169498D03*
D22*
X418648Y76200D03*
X406648Y76200D03*
X406648Y101600D03*
X418648Y101600D03*
D25*
X396336Y69850D03*
X381336Y69850D03*
X396336Y60325D03*
X381336Y60325D03*
D15*
X382723Y80963D03*
X372723Y80963D03*
X417648Y50800D03*
X407648Y50800D03*
D12*
X538810Y25400D03*
X538810Y50800D03*
X538810Y76200D03*
X538810Y101600D03*
X538810Y127000D03*
X538810Y152400D03*
X538810Y177800D03*
X538810Y203200D03*
X538810Y228600D03*
X538810Y254000D03*
X538810Y279400D03*
X538810Y304800D03*
X538810Y330200D03*
X538810Y355600D03*
X538810Y381000D03*
X538810Y406400D03*
X538810Y431800D03*
X538810Y457200D03*
X538810Y482600D03*
X538810Y508000D03*
X691210Y25400D03*
X691210Y50800D03*
X691210Y76200D03*
X691210Y101600D03*
X691210Y127000D03*
X691210Y152400D03*
X691210Y177800D03*
X691210Y203200D03*
X691210Y228600D03*
X691210Y254000D03*
X691210Y279400D03*
X691210Y304800D03*
X691210Y330200D03*
X691210Y355600D03*
X691210Y381000D03*
X691210Y406400D03*
X691210Y431800D03*
X691210Y457200D03*
X691210Y482600D03*
X691210Y508000D03*
X576910Y25400D03*
X602310Y25400D03*
X627710Y25400D03*
X653110Y25400D03*
D13*
X619613Y268148D02*
X620597Y269132D01*
X630631Y259098D01*
X629647Y258114D01*
X619613Y268148D01*
X626409Y261352D02*
X628377Y261352D01*
X625139Y264590D02*
X623171Y264590D01*
X621901Y267828D02*
X619933Y267828D01*
X623148Y271683D02*
X624132Y272667D01*
X634166Y262633D01*
X633182Y261649D01*
X623148Y271683D01*
X629944Y264887D02*
X631912Y264887D01*
X628674Y268125D02*
X626706Y268125D01*
X625436Y271363D02*
X623468Y271363D01*
X626684Y275219D02*
X627668Y276203D01*
X637702Y266169D01*
X636718Y265185D01*
X626684Y275219D01*
X633480Y268423D02*
X635448Y268423D01*
X632210Y271661D02*
X630242Y271661D01*
X628972Y274899D02*
X627004Y274899D01*
X630219Y278754D02*
X631203Y279738D01*
X641237Y269704D01*
X640253Y268720D01*
X630219Y278754D01*
X637015Y271958D02*
X638983Y271958D01*
X635745Y275196D02*
X633777Y275196D01*
X632507Y278434D02*
X630539Y278434D01*
X633755Y282290D02*
X634739Y283274D01*
X644773Y273240D01*
X643789Y272256D01*
X633755Y282290D01*
X640551Y275494D02*
X642519Y275494D01*
X639281Y278732D02*
X637313Y278732D01*
X636043Y281970D02*
X634075Y281970D01*
X637290Y285825D02*
X638274Y286809D01*
X648308Y276775D01*
X647324Y275791D01*
X637290Y285825D01*
X644086Y279029D02*
X646054Y279029D01*
X642816Y282267D02*
X640848Y282267D01*
X639578Y285505D02*
X637610Y285505D01*
X640826Y289361D02*
X641810Y290345D01*
X651844Y280311D01*
X650860Y279327D01*
X640826Y289361D01*
X647622Y282565D02*
X649590Y282565D01*
X646352Y285803D02*
X644384Y285803D01*
X643114Y289041D02*
X641146Y289041D01*
X644362Y292896D02*
X645346Y293880D01*
X655380Y283846D01*
X654396Y282862D01*
X644362Y292896D01*
X651158Y286100D02*
X653126Y286100D01*
X649888Y289338D02*
X647920Y289338D01*
X646650Y292576D02*
X644682Y292576D01*
X647897Y296432D02*
X648881Y297416D01*
X658915Y287382D01*
X657931Y286398D01*
X647897Y296432D01*
X654693Y289636D02*
X656661Y289636D01*
X653423Y292874D02*
X651455Y292874D01*
X650185Y296112D02*
X648217Y296112D01*
X651433Y299967D02*
X652417Y300951D01*
X662451Y290917D01*
X661467Y289933D01*
X651433Y299967D01*
X658229Y293171D02*
X660197Y293171D01*
X656959Y296409D02*
X654991Y296409D01*
X653721Y299647D02*
X651753Y299647D01*
X654968Y303503D02*
X655952Y304487D01*
X665986Y294453D01*
X665002Y293469D01*
X654968Y303503D01*
X661764Y296707D02*
X663732Y296707D01*
X660494Y299945D02*
X658526Y299945D01*
X657256Y303183D02*
X655288Y303183D01*
X658504Y307038D02*
X659488Y308022D01*
X669522Y297988D01*
X668538Y297004D01*
X658504Y307038D01*
X665300Y300242D02*
X667268Y300242D01*
X664030Y303480D02*
X662062Y303480D01*
X660792Y306718D02*
X658824Y306718D01*
X669522Y327262D02*
X668538Y328246D01*
X669522Y327262D02*
X659488Y317228D01*
X658504Y318212D01*
X668538Y328246D01*
X662726Y320466D02*
X660758Y320466D01*
X663996Y323704D02*
X665964Y323704D01*
X667234Y326942D02*
X669202Y326942D01*
X665986Y330797D02*
X665002Y331781D01*
X665986Y330797D02*
X655952Y320763D01*
X654968Y321747D01*
X665002Y331781D01*
X659190Y324001D02*
X657222Y324001D01*
X660460Y327239D02*
X662428Y327239D01*
X663698Y330477D02*
X665666Y330477D01*
X662451Y334333D02*
X661467Y335317D01*
X662451Y334333D02*
X652417Y324299D01*
X651433Y325283D01*
X661467Y335317D01*
X655655Y327537D02*
X653687Y327537D01*
X656925Y330775D02*
X658893Y330775D01*
X660163Y334013D02*
X662131Y334013D01*
X658915Y337868D02*
X657931Y338852D01*
X658915Y337868D02*
X648881Y327834D01*
X647897Y328818D01*
X657931Y338852D01*
X652119Y331072D02*
X650151Y331072D01*
X653389Y334310D02*
X655357Y334310D01*
X656627Y337548D02*
X658595Y337548D01*
X655380Y341404D02*
X654396Y342388D01*
X655380Y341404D02*
X645346Y331370D01*
X644362Y332354D01*
X654396Y342388D01*
X648584Y334608D02*
X646616Y334608D01*
X649854Y337846D02*
X651822Y337846D01*
X653092Y341084D02*
X655060Y341084D01*
X651844Y344939D02*
X650860Y345923D01*
X651844Y344939D02*
X641810Y334905D01*
X640826Y335889D01*
X650860Y345923D01*
X645048Y338143D02*
X643080Y338143D01*
X646318Y341381D02*
X648286Y341381D01*
X649556Y344619D02*
X651524Y344619D01*
X648308Y348475D02*
X647324Y349459D01*
X648308Y348475D02*
X638274Y338441D01*
X637290Y339425D01*
X647324Y349459D01*
X641512Y341679D02*
X639544Y341679D01*
X642782Y344917D02*
X644750Y344917D01*
X646020Y348155D02*
X647988Y348155D01*
X644773Y352010D02*
X643789Y352994D01*
X644773Y352010D02*
X634739Y341976D01*
X633755Y342960D01*
X643789Y352994D01*
X637977Y345214D02*
X636009Y345214D01*
X639247Y348452D02*
X641215Y348452D01*
X642485Y351690D02*
X644453Y351690D01*
X641237Y355546D02*
X640253Y356530D01*
X641237Y355546D02*
X631203Y345512D01*
X630219Y346496D01*
X640253Y356530D01*
X634441Y348750D02*
X632473Y348750D01*
X635711Y351988D02*
X637679Y351988D01*
X638949Y355226D02*
X640917Y355226D01*
X637702Y359081D02*
X636718Y360065D01*
X637702Y359081D02*
X627668Y349047D01*
X626684Y350031D01*
X636718Y360065D01*
X630906Y352285D02*
X628938Y352285D01*
X632176Y355523D02*
X634144Y355523D01*
X635414Y358761D02*
X637382Y358761D01*
X634166Y362617D02*
X633182Y363601D01*
X634166Y362617D02*
X624132Y352583D01*
X623148Y353567D01*
X633182Y363601D01*
X627370Y355821D02*
X625402Y355821D01*
X628640Y359059D02*
X630608Y359059D01*
X631878Y362297D02*
X633846Y362297D01*
X630631Y366152D02*
X629647Y367136D01*
X630631Y366152D02*
X620597Y356118D01*
X619613Y357102D01*
X629647Y367136D01*
X623835Y359356D02*
X621867Y359356D01*
X625105Y362594D02*
X627073Y362594D01*
X628343Y365832D02*
X630311Y365832D01*
X600374Y367136D02*
X599390Y366152D01*
X600374Y367136D02*
X610408Y357102D01*
X609424Y356118D01*
X599390Y366152D01*
X606186Y359356D02*
X608154Y359356D01*
X604916Y362594D02*
X602948Y362594D01*
X601678Y365832D02*
X599710Y365832D01*
X596838Y363601D02*
X595854Y362617D01*
X596838Y363601D02*
X606872Y353567D01*
X605888Y352583D01*
X595854Y362617D01*
X602650Y355821D02*
X604618Y355821D01*
X601380Y359059D02*
X599412Y359059D01*
X598142Y362297D02*
X596174Y362297D01*
X593302Y360065D02*
X592318Y359081D01*
X593302Y360065D02*
X603336Y350031D01*
X602352Y349047D01*
X592318Y359081D01*
X599114Y352285D02*
X601082Y352285D01*
X597844Y355523D02*
X595876Y355523D01*
X594606Y358761D02*
X592638Y358761D01*
X589767Y356530D02*
X588783Y355546D01*
X589767Y356530D02*
X599801Y346496D01*
X598817Y345512D01*
X588783Y355546D01*
X595579Y348750D02*
X597547Y348750D01*
X594309Y351988D02*
X592341Y351988D01*
X591071Y355226D02*
X589103Y355226D01*
X586231Y352994D02*
X585247Y352010D01*
X586231Y352994D02*
X596265Y342960D01*
X595281Y341976D01*
X585247Y352010D01*
X592043Y345214D02*
X594011Y345214D01*
X590773Y348452D02*
X588805Y348452D01*
X587535Y351690D02*
X585567Y351690D01*
X582696Y349459D02*
X581712Y348475D01*
X582696Y349459D02*
X592730Y339425D01*
X591746Y338441D01*
X581712Y348475D01*
X588508Y341679D02*
X590476Y341679D01*
X587238Y344917D02*
X585270Y344917D01*
X584000Y348155D02*
X582032Y348155D01*
X579160Y345923D02*
X578176Y344939D01*
X579160Y345923D02*
X589194Y335889D01*
X588210Y334905D01*
X578176Y344939D01*
X584972Y338143D02*
X586940Y338143D01*
X583702Y341381D02*
X581734Y341381D01*
X580464Y344619D02*
X578496Y344619D01*
X575625Y342388D02*
X574641Y341404D01*
X575625Y342388D02*
X585659Y332354D01*
X584675Y331370D01*
X574641Y341404D01*
X581437Y334608D02*
X583405Y334608D01*
X580167Y337846D02*
X578199Y337846D01*
X576929Y341084D02*
X574961Y341084D01*
X572089Y338852D02*
X571105Y337868D01*
X572089Y338852D02*
X582123Y328818D01*
X581139Y327834D01*
X571105Y337868D01*
X577901Y331072D02*
X579869Y331072D01*
X576631Y334310D02*
X574663Y334310D01*
X573393Y337548D02*
X571425Y337548D01*
X568554Y335317D02*
X567570Y334333D01*
X568554Y335317D02*
X578588Y325283D01*
X577604Y324299D01*
X567570Y334333D01*
X574366Y327537D02*
X576334Y327537D01*
X573096Y330775D02*
X571128Y330775D01*
X569858Y334013D02*
X567890Y334013D01*
X565018Y331781D02*
X564034Y330797D01*
X565018Y331781D02*
X575052Y321747D01*
X574068Y320763D01*
X564034Y330797D01*
X570830Y324001D02*
X572798Y324001D01*
X569560Y327239D02*
X567592Y327239D01*
X566322Y330477D02*
X564354Y330477D01*
X561483Y328246D02*
X560499Y327262D01*
X561483Y328246D02*
X571517Y318212D01*
X570533Y317228D01*
X560499Y327262D01*
X567295Y320466D02*
X569263Y320466D01*
X566025Y323704D02*
X564057Y323704D01*
X562787Y326942D02*
X560819Y326942D01*
X570533Y308022D02*
X571517Y307038D01*
X561483Y297004D01*
X560499Y297988D01*
X570533Y308022D01*
X564721Y300242D02*
X562753Y300242D01*
X565991Y303480D02*
X567959Y303480D01*
X569229Y306718D02*
X571197Y306718D01*
X574068Y304487D02*
X575052Y303503D01*
X565018Y293469D01*
X564034Y294453D01*
X574068Y304487D01*
X568256Y296707D02*
X566288Y296707D01*
X569526Y299945D02*
X571494Y299945D01*
X572764Y303183D02*
X574732Y303183D01*
X577604Y300951D02*
X578588Y299967D01*
X568554Y289933D01*
X567570Y290917D01*
X577604Y300951D01*
X571792Y293171D02*
X569824Y293171D01*
X573062Y296409D02*
X575030Y296409D01*
X576300Y299647D02*
X578268Y299647D01*
X581139Y297416D02*
X582123Y296432D01*
X572089Y286398D01*
X571105Y287382D01*
X581139Y297416D01*
X575327Y289636D02*
X573359Y289636D01*
X576597Y292874D02*
X578565Y292874D01*
X579835Y296112D02*
X581803Y296112D01*
X584675Y293880D02*
X585659Y292896D01*
X575625Y282862D01*
X574641Y283846D01*
X584675Y293880D01*
X578863Y286100D02*
X576895Y286100D01*
X580133Y289338D02*
X582101Y289338D01*
X583371Y292576D02*
X585339Y292576D01*
X588210Y290345D02*
X589194Y289361D01*
X579160Y279327D01*
X578176Y280311D01*
X588210Y290345D01*
X582398Y282565D02*
X580430Y282565D01*
X583668Y285803D02*
X585636Y285803D01*
X586906Y289041D02*
X588874Y289041D01*
X591746Y286809D02*
X592730Y285825D01*
X582696Y275791D01*
X581712Y276775D01*
X591746Y286809D01*
X585934Y279029D02*
X583966Y279029D01*
X587204Y282267D02*
X589172Y282267D01*
X590442Y285505D02*
X592410Y285505D01*
X595281Y283274D02*
X596265Y282290D01*
X586231Y272256D01*
X585247Y273240D01*
X595281Y283274D01*
X589469Y275494D02*
X587501Y275494D01*
X590739Y278732D02*
X592707Y278732D01*
X593977Y281970D02*
X595945Y281970D01*
X598817Y279738D02*
X599801Y278754D01*
X589767Y268720D01*
X588783Y269704D01*
X598817Y279738D01*
X593005Y271958D02*
X591037Y271958D01*
X594275Y275196D02*
X596243Y275196D01*
X597513Y278434D02*
X599481Y278434D01*
X602352Y276203D02*
X603336Y275219D01*
X593302Y265185D01*
X592318Y266169D01*
X602352Y276203D01*
X596540Y268423D02*
X594572Y268423D01*
X597810Y271661D02*
X599778Y271661D01*
X601048Y274899D02*
X603016Y274899D01*
X605888Y272667D02*
X606872Y271683D01*
X596838Y261649D01*
X595854Y262633D01*
X605888Y272667D01*
X600076Y264887D02*
X598108Y264887D01*
X601346Y268125D02*
X603314Y268125D01*
X604584Y271363D02*
X606552Y271363D01*
X609424Y269132D02*
X610408Y268148D01*
X600374Y258114D01*
X599390Y259098D01*
X609424Y269132D01*
X603612Y261352D02*
X601644Y261352D01*
X604882Y264590D02*
X606850Y264590D01*
X608120Y267828D02*
X610088Y267828D01*
D14*
X670573Y354250D03*
X670573Y344250D03*
X670573Y376475D03*
X670573Y366475D03*
D15*
X567623Y239713D03*
X557623Y239713D03*
X567623Y228600D03*
X557623Y228600D03*
D14*
X557860Y216138D03*
X557860Y206138D03*
X557860Y193913D03*
X557860Y183913D03*
X557860Y171688D03*
X557860Y161688D03*
X557860Y149463D03*
X557860Y139463D03*
X557860Y127238D03*
X557860Y117238D03*
X670573Y398700D03*
X670573Y388700D03*
X670573Y410925D03*
X670573Y420925D03*
X559448Y499825D03*
X559448Y509825D03*
X559448Y477600D03*
X559448Y487600D03*
X559448Y455375D03*
X559448Y465375D03*
X559448Y433150D03*
X559448Y443150D03*
X668985Y110888D03*
X668985Y120888D03*
X668985Y133113D03*
X668985Y143113D03*
X668985Y155338D03*
X668985Y165338D03*
X668985Y177563D03*
X668985Y187563D03*
X668985Y199788D03*
X668985Y209788D03*
X668985Y232013D03*
X668985Y222013D03*
X670573Y254238D03*
X670573Y244238D03*
X670573Y276463D03*
X670573Y266463D03*
X559448Y420925D03*
X559448Y410925D03*
X559448Y388700D03*
X559448Y398700D03*
X559448Y368063D03*
X559448Y378063D03*
X559448Y347425D03*
X559448Y357425D03*
D15*
X557623Y261938D03*
X567623Y261938D03*
D14*
X618185Y44213D03*
X618185Y54213D03*
D15*
X557623Y250825D03*
X567623Y250825D03*
D16*
X588155Y436945D02*
X596065Y436945D01*
X588155Y436945D02*
X588155Y448655D01*
X596065Y448655D01*
X596065Y436945D01*
X596065Y440165D02*
X588155Y440165D01*
X588155Y443385D02*
X596065Y443385D01*
X596065Y446605D02*
X588155Y446605D01*
X611055Y436945D02*
X618965Y436945D01*
X611055Y436945D02*
X611055Y448655D01*
X618965Y448655D01*
X618965Y436945D01*
X618965Y440165D02*
X611055Y440165D01*
X611055Y443385D02*
X618965Y443385D01*
X618965Y446605D02*
X611055Y446605D01*
X633955Y436945D02*
X641865Y436945D01*
X633955Y436945D02*
X633955Y448655D01*
X641865Y448655D01*
X641865Y436945D01*
X641865Y440165D02*
X633955Y440165D01*
X633955Y443385D02*
X641865Y443385D01*
X641865Y446605D02*
X633955Y446605D01*
D17*
X630241Y504119D02*
X599779Y504119D01*
X599779Y515281D01*
X630241Y515281D01*
X630241Y504119D01*
X630241Y508450D02*
X599779Y508450D01*
X599779Y512781D02*
X630241Y512781D01*
D14*
X630885Y407750D03*
X630885Y417750D03*
X653110Y417750D03*
X653110Y407750D03*
D18*
X589910Y176050D03*
X589910Y116050D03*
X627410Y116050D03*
X627410Y176050D03*
D19*
X656285Y435325D03*
X656285Y447325D03*
D14*
X668985Y446325D03*
X668985Y436325D03*
D20*
X594373Y71435D03*
X594373Y94935D03*
D21*
X564845Y99158D03*
X564845Y71658D03*
D14*
X641998Y407750D03*
X641998Y417750D03*
X619773Y407750D03*
X619773Y417750D03*
X608660Y407750D03*
X608660Y417750D03*
D22*
X621010Y374650D03*
X609010Y374650D03*
X606026Y250571D03*
X618026Y250571D03*
G36*
X656168Y259936D02*
X648214Y251982D01*
X641568Y258628D01*
X649522Y266582D01*
X656168Y259936D01*
G37*
G36*
X664653Y268422D02*
X656699Y260468D01*
X650053Y267114D01*
X658007Y275068D01*
X664653Y268422D01*
G37*
G36*
X567799Y287220D02*
X575753Y279266D01*
X569107Y272620D01*
X561153Y280574D01*
X567799Y287220D01*
G37*
G36*
X559314Y295705D02*
X567268Y287751D01*
X560622Y281105D01*
X552668Y289059D01*
X559314Y295705D01*
G37*
X575800Y51181D03*
X587800Y51181D03*
X655554Y159068D03*
X643554Y159068D03*
D23*
X611454Y200416D03*
X611454Y225416D03*
D24*
X646824Y196003D03*
X646824Y233003D03*
D19*
X655396Y180879D03*
X655396Y168879D03*
D14*
X644792Y179498D03*
X644792Y169498D03*
D22*
X668635Y76200D03*
X656635Y76200D03*
X656635Y101600D03*
X668635Y101600D03*
D25*
X646323Y69850D03*
X631323Y69850D03*
X646323Y60325D03*
X631323Y60325D03*
D15*
X632710Y80963D03*
X622710Y80963D03*
X667635Y50800D03*
X657635Y50800D03*
D12*
X604600Y588822D03*
X579200Y588822D03*
X553800Y588822D03*
X528400Y588822D03*
X503000Y588822D03*
X477600Y588822D03*
X452200Y588822D03*
X426800Y588822D03*
X401400Y588822D03*
X376000Y588822D03*
X350600Y588822D03*
X325200Y588822D03*
X299800Y588822D03*
X274400Y588822D03*
X249000Y588822D03*
X223600Y588822D03*
X198200Y588822D03*
X172800Y588822D03*
X147400Y588822D03*
X122000Y588822D03*
X604600Y741222D03*
X579200Y741222D03*
X553800Y741222D03*
X528400Y741222D03*
X503000Y741222D03*
X477600Y741222D03*
X452200Y741222D03*
X426800Y741222D03*
X401400Y741222D03*
X376000Y741222D03*
X350600Y741222D03*
X325200Y741222D03*
X299800Y741222D03*
X274400Y741222D03*
X249000Y741222D03*
X223600Y741222D03*
X198200Y741222D03*
X172800Y741222D03*
X147400Y741222D03*
X122000Y741222D03*
X604600Y626922D03*
X604600Y652322D03*
X604600Y677722D03*
X604600Y703122D03*
D13*
X361852Y669625D02*
X360868Y670609D01*
X370902Y680643D01*
X371886Y679659D01*
X361852Y669625D01*
X363122Y672863D02*
X365090Y672863D01*
X366360Y676101D02*
X368328Y676101D01*
X369598Y679339D02*
X371566Y679339D01*
X358317Y673161D02*
X357333Y674145D01*
X367367Y684179D01*
X368351Y683195D01*
X358317Y673161D01*
X359587Y676399D02*
X361555Y676399D01*
X362825Y679637D02*
X364793Y679637D01*
X366063Y682875D02*
X368031Y682875D01*
X354781Y676696D02*
X353797Y677680D01*
X363831Y687714D01*
X364815Y686730D01*
X354781Y676696D01*
X356051Y679934D02*
X358019Y679934D01*
X359289Y683172D02*
X361257Y683172D01*
X362527Y686410D02*
X364495Y686410D01*
X351246Y680232D02*
X350262Y681216D01*
X360296Y691250D01*
X361280Y690266D01*
X351246Y680232D01*
X352516Y683470D02*
X354484Y683470D01*
X355754Y686708D02*
X357722Y686708D01*
X358992Y689946D02*
X360960Y689946D01*
X347710Y683767D02*
X346726Y684751D01*
X356760Y694785D01*
X357744Y693801D01*
X347710Y683767D01*
X348980Y687005D02*
X350948Y687005D01*
X352218Y690243D02*
X354186Y690243D01*
X355456Y693481D02*
X357424Y693481D01*
X344175Y687303D02*
X343191Y688287D01*
X353225Y698321D01*
X354209Y697337D01*
X344175Y687303D01*
X345445Y690541D02*
X347413Y690541D01*
X348683Y693779D02*
X350651Y693779D01*
X351921Y697017D02*
X353889Y697017D01*
X340639Y690838D02*
X339655Y691822D01*
X349689Y701856D01*
X350673Y700872D01*
X340639Y690838D01*
X341909Y694076D02*
X343877Y694076D01*
X345147Y697314D02*
X347115Y697314D01*
X348385Y700552D02*
X350353Y700552D01*
X337104Y694374D02*
X336120Y695358D01*
X346154Y705392D01*
X347138Y704408D01*
X337104Y694374D01*
X338374Y697612D02*
X340342Y697612D01*
X341612Y700850D02*
X343580Y700850D01*
X344850Y704088D02*
X346818Y704088D01*
X333568Y697909D02*
X332584Y698893D01*
X342618Y708927D01*
X343602Y707943D01*
X333568Y697909D01*
X334838Y701147D02*
X336806Y701147D01*
X338076Y704385D02*
X340044Y704385D01*
X341314Y707623D02*
X343282Y707623D01*
X330033Y701445D02*
X329049Y702429D01*
X339083Y712463D01*
X340067Y711479D01*
X330033Y701445D01*
X331303Y704683D02*
X333271Y704683D01*
X334541Y707921D02*
X336509Y707921D01*
X337779Y711159D02*
X339747Y711159D01*
X326497Y704980D02*
X325513Y705964D01*
X335547Y715998D01*
X336531Y715014D01*
X326497Y704980D01*
X327767Y708218D02*
X329735Y708218D01*
X331005Y711456D02*
X332973Y711456D01*
X334243Y714694D02*
X336211Y714694D01*
X322962Y708516D02*
X321978Y709500D01*
X332012Y719534D01*
X332996Y718550D01*
X322962Y708516D01*
X324232Y711754D02*
X326200Y711754D01*
X327470Y714992D02*
X329438Y714992D01*
X330708Y718230D02*
X332676Y718230D01*
X302738Y719534D02*
X301754Y718550D01*
X302738Y719534D02*
X312772Y709500D01*
X311788Y708516D01*
X301754Y718550D01*
X308550Y711754D02*
X310518Y711754D01*
X307280Y714992D02*
X305312Y714992D01*
X304042Y718230D02*
X302074Y718230D01*
X299203Y715998D02*
X298219Y715014D01*
X299203Y715998D02*
X309237Y705964D01*
X308253Y704980D01*
X298219Y715014D01*
X305015Y708218D02*
X306983Y708218D01*
X303745Y711456D02*
X301777Y711456D01*
X300507Y714694D02*
X298539Y714694D01*
X295667Y712463D02*
X294683Y711479D01*
X295667Y712463D02*
X305701Y702429D01*
X304717Y701445D01*
X294683Y711479D01*
X301479Y704683D02*
X303447Y704683D01*
X300209Y707921D02*
X298241Y707921D01*
X296971Y711159D02*
X295003Y711159D01*
X292132Y708927D02*
X291148Y707943D01*
X292132Y708927D02*
X302166Y698893D01*
X301182Y697909D01*
X291148Y707943D01*
X297944Y701147D02*
X299912Y701147D01*
X296674Y704385D02*
X294706Y704385D01*
X293436Y707623D02*
X291468Y707623D01*
X288596Y705392D02*
X287612Y704408D01*
X288596Y705392D02*
X298630Y695358D01*
X297646Y694374D01*
X287612Y704408D01*
X294408Y697612D02*
X296376Y697612D01*
X293138Y700850D02*
X291170Y700850D01*
X289900Y704088D02*
X287932Y704088D01*
X285061Y701856D02*
X284077Y700872D01*
X285061Y701856D02*
X295095Y691822D01*
X294111Y690838D01*
X284077Y700872D01*
X290873Y694076D02*
X292841Y694076D01*
X289603Y697314D02*
X287635Y697314D01*
X286365Y700552D02*
X284397Y700552D01*
X281525Y698321D02*
X280541Y697337D01*
X281525Y698321D02*
X291559Y688287D01*
X290575Y687303D01*
X280541Y697337D01*
X287337Y690541D02*
X289305Y690541D01*
X286067Y693779D02*
X284099Y693779D01*
X282829Y697017D02*
X280861Y697017D01*
X277990Y694785D02*
X277006Y693801D01*
X277990Y694785D02*
X288024Y684751D01*
X287040Y683767D01*
X277006Y693801D01*
X283802Y687005D02*
X285770Y687005D01*
X282532Y690243D02*
X280564Y690243D01*
X279294Y693481D02*
X277326Y693481D01*
X274454Y691250D02*
X273470Y690266D01*
X274454Y691250D02*
X284488Y681216D01*
X283504Y680232D01*
X273470Y690266D01*
X280266Y683470D02*
X282234Y683470D01*
X278996Y686708D02*
X277028Y686708D01*
X275758Y689946D02*
X273790Y689946D01*
X270919Y687714D02*
X269935Y686730D01*
X270919Y687714D02*
X280953Y677680D01*
X279969Y676696D01*
X269935Y686730D01*
X276731Y679934D02*
X278699Y679934D01*
X275461Y683172D02*
X273493Y683172D01*
X272223Y686410D02*
X270255Y686410D01*
X267383Y684179D02*
X266399Y683195D01*
X267383Y684179D02*
X277417Y674145D01*
X276433Y673161D01*
X266399Y683195D01*
X273195Y676399D02*
X275163Y676399D01*
X271925Y679637D02*
X269957Y679637D01*
X268687Y682875D02*
X266719Y682875D01*
X263848Y680643D02*
X262864Y679659D01*
X263848Y680643D02*
X273882Y670609D01*
X272898Y669625D01*
X262864Y679659D01*
X269660Y672863D02*
X271628Y672863D01*
X268390Y676101D02*
X266422Y676101D01*
X265152Y679339D02*
X263184Y679339D01*
X262864Y650386D02*
X263848Y649402D01*
X262864Y650386D02*
X272898Y660420D01*
X273882Y659436D01*
X263848Y649402D01*
X265118Y652640D02*
X267086Y652640D01*
X268356Y655878D02*
X270324Y655878D01*
X271594Y659116D02*
X273562Y659116D01*
X266399Y646850D02*
X267383Y645866D01*
X266399Y646850D02*
X276433Y656884D01*
X277417Y655900D01*
X267383Y645866D01*
X268653Y649104D02*
X270621Y649104D01*
X271891Y652342D02*
X273859Y652342D01*
X275129Y655580D02*
X277097Y655580D01*
X269935Y643315D02*
X270919Y642331D01*
X269935Y643315D02*
X279969Y653349D01*
X280953Y652365D01*
X270919Y642331D01*
X272189Y645569D02*
X274157Y645569D01*
X275427Y648807D02*
X277395Y648807D01*
X278665Y652045D02*
X280633Y652045D01*
X273470Y639779D02*
X274454Y638795D01*
X273470Y639779D02*
X283504Y649813D01*
X284488Y648829D01*
X274454Y638795D01*
X275724Y642033D02*
X277692Y642033D01*
X278962Y645271D02*
X280930Y645271D01*
X282200Y648509D02*
X284168Y648509D01*
X277006Y636244D02*
X277990Y635260D01*
X277006Y636244D02*
X287040Y646278D01*
X288024Y645294D01*
X277990Y635260D01*
X279260Y638498D02*
X281228Y638498D01*
X282498Y641736D02*
X284466Y641736D01*
X285736Y644974D02*
X287704Y644974D01*
X280541Y632708D02*
X281525Y631724D01*
X280541Y632708D02*
X290575Y642742D01*
X291559Y641758D01*
X281525Y631724D01*
X282795Y634962D02*
X284763Y634962D01*
X286033Y638200D02*
X288001Y638200D01*
X289271Y641438D02*
X291239Y641438D01*
X284077Y629173D02*
X285061Y628189D01*
X284077Y629173D02*
X294111Y639207D01*
X295095Y638223D01*
X285061Y628189D01*
X286331Y631427D02*
X288299Y631427D01*
X289569Y634665D02*
X291537Y634665D01*
X292807Y637903D02*
X294775Y637903D01*
X287612Y625637D02*
X288596Y624653D01*
X287612Y625637D02*
X297646Y635671D01*
X298630Y634687D01*
X288596Y624653D01*
X289866Y627891D02*
X291834Y627891D01*
X293104Y631129D02*
X295072Y631129D01*
X296342Y634367D02*
X298310Y634367D01*
X291148Y622101D02*
X292132Y621117D01*
X291148Y622101D02*
X301182Y632135D01*
X302166Y631151D01*
X292132Y621117D01*
X293402Y624355D02*
X295370Y624355D01*
X296640Y627593D02*
X298608Y627593D01*
X299878Y630831D02*
X301846Y630831D01*
X294683Y618566D02*
X295667Y617582D01*
X294683Y618566D02*
X304717Y628600D01*
X305701Y627616D01*
X295667Y617582D01*
X296937Y620820D02*
X298905Y620820D01*
X300175Y624058D02*
X302143Y624058D01*
X303413Y627296D02*
X305381Y627296D01*
X298219Y615030D02*
X299203Y614046D01*
X298219Y615030D02*
X308253Y625064D01*
X309237Y624080D01*
X299203Y614046D01*
X300473Y617284D02*
X302441Y617284D01*
X303711Y620522D02*
X305679Y620522D01*
X306949Y623760D02*
X308917Y623760D01*
X301754Y611495D02*
X302738Y610511D01*
X301754Y611495D02*
X311788Y621529D01*
X312772Y620545D01*
X302738Y610511D01*
X304008Y613749D02*
X305976Y613749D01*
X307246Y616987D02*
X309214Y616987D01*
X310484Y620225D02*
X312452Y620225D01*
X321978Y620545D02*
X322962Y621529D01*
X332996Y611495D01*
X332012Y610511D01*
X321978Y620545D01*
X328774Y613749D02*
X330742Y613749D01*
X327504Y616987D02*
X325536Y616987D01*
X324266Y620225D02*
X322298Y620225D01*
X325513Y624080D02*
X326497Y625064D01*
X336531Y615030D01*
X335547Y614046D01*
X325513Y624080D01*
X332309Y617284D02*
X334277Y617284D01*
X331039Y620522D02*
X329071Y620522D01*
X327801Y623760D02*
X325833Y623760D01*
X329049Y627616D02*
X330033Y628600D01*
X340067Y618566D01*
X339083Y617582D01*
X329049Y627616D01*
X335845Y620820D02*
X337813Y620820D01*
X334575Y624058D02*
X332607Y624058D01*
X331337Y627296D02*
X329369Y627296D01*
X332584Y631151D02*
X333568Y632135D01*
X343602Y622101D01*
X342618Y621117D01*
X332584Y631151D01*
X339380Y624355D02*
X341348Y624355D01*
X338110Y627593D02*
X336142Y627593D01*
X334872Y630831D02*
X332904Y630831D01*
X336120Y634687D02*
X337104Y635671D01*
X347138Y625637D01*
X346154Y624653D01*
X336120Y634687D01*
X342916Y627891D02*
X344884Y627891D01*
X341646Y631129D02*
X339678Y631129D01*
X338408Y634367D02*
X336440Y634367D01*
X339655Y638223D02*
X340639Y639207D01*
X350673Y629173D01*
X349689Y628189D01*
X339655Y638223D01*
X346451Y631427D02*
X348419Y631427D01*
X345181Y634665D02*
X343213Y634665D01*
X341943Y637903D02*
X339975Y637903D01*
X343191Y641758D02*
X344175Y642742D01*
X354209Y632708D01*
X353225Y631724D01*
X343191Y641758D01*
X349987Y634962D02*
X351955Y634962D01*
X348717Y638200D02*
X346749Y638200D01*
X345479Y641438D02*
X343511Y641438D01*
X346726Y645294D02*
X347710Y646278D01*
X357744Y636244D01*
X356760Y635260D01*
X346726Y645294D01*
X353522Y638498D02*
X355490Y638498D01*
X352252Y641736D02*
X350284Y641736D01*
X349014Y644974D02*
X347046Y644974D01*
X350262Y648829D02*
X351246Y649813D01*
X361280Y639779D01*
X360296Y638795D01*
X350262Y648829D01*
X357058Y642033D02*
X359026Y642033D01*
X355788Y645271D02*
X353820Y645271D01*
X352550Y648509D02*
X350582Y648509D01*
X353797Y652365D02*
X354781Y653349D01*
X364815Y643315D01*
X363831Y642331D01*
X353797Y652365D01*
X360593Y645569D02*
X362561Y645569D01*
X359323Y648807D02*
X357355Y648807D01*
X356085Y652045D02*
X354117Y652045D01*
X357333Y655900D02*
X358317Y656884D01*
X368351Y646850D01*
X367367Y645866D01*
X357333Y655900D01*
X364129Y649104D02*
X366097Y649104D01*
X362859Y652342D02*
X360891Y652342D01*
X359621Y655580D02*
X357653Y655580D01*
X360868Y659436D02*
X361852Y660420D01*
X371886Y650386D01*
X370902Y649402D01*
X360868Y659436D01*
X367664Y652640D02*
X369632Y652640D01*
X366394Y655878D02*
X364426Y655878D01*
X363156Y659116D02*
X361188Y659116D01*
D15*
X275750Y720585D03*
X285750Y720585D03*
X253525Y720585D03*
X263525Y720585D03*
D14*
X390288Y617635D03*
X390288Y607635D03*
X401400Y617635D03*
X401400Y607635D03*
D15*
X413863Y607872D03*
X423863Y607872D03*
X436088Y607872D03*
X446088Y607872D03*
X458313Y607872D03*
X468313Y607872D03*
X480538Y607872D03*
X490538Y607872D03*
X502763Y607872D03*
X512763Y607872D03*
X231300Y720585D03*
X241300Y720585D03*
X219075Y720585D03*
X209075Y720585D03*
X130175Y609460D03*
X120175Y609460D03*
X152400Y609460D03*
X142400Y609460D03*
X174625Y609460D03*
X164625Y609460D03*
X196850Y609460D03*
X186850Y609460D03*
X519113Y718997D03*
X509113Y718997D03*
X496888Y718997D03*
X486888Y718997D03*
X474663Y718997D03*
X464663Y718997D03*
X452438Y718997D03*
X442438Y718997D03*
X430213Y718997D03*
X420213Y718997D03*
X397988Y718997D03*
X407988Y718997D03*
X375763Y720585D03*
X385763Y720585D03*
X353538Y720585D03*
X363538Y720585D03*
X209075Y609460D03*
X219075Y609460D03*
X241300Y609460D03*
X231300Y609460D03*
X261938Y609460D03*
X251938Y609460D03*
X282575Y609460D03*
X272575Y609460D03*
D14*
X368063Y607635D03*
X368063Y617635D03*
D15*
X585788Y668197D03*
X575788Y668197D03*
D14*
X379175Y607635D03*
X379175Y617635D03*
D16*
X193055Y638167D02*
X193055Y646077D01*
X193055Y638167D02*
X181345Y638167D01*
X181345Y646077D01*
X193055Y646077D01*
X193055Y641387D02*
X181345Y641387D01*
X181345Y644607D02*
X193055Y644607D01*
X193055Y661067D02*
X193055Y668977D01*
X193055Y661067D02*
X181345Y661067D01*
X181345Y668977D01*
X193055Y668977D01*
X193055Y664287D02*
X181345Y664287D01*
X181345Y667507D02*
X193055Y667507D01*
X193055Y683967D02*
X193055Y691877D01*
X193055Y683967D02*
X181345Y683967D01*
X181345Y691877D01*
X193055Y691877D01*
X193055Y687187D02*
X181345Y687187D01*
X181345Y690407D02*
X193055Y690407D01*
D17*
X125881Y680253D02*
X125881Y649791D01*
X114719Y649791D01*
X114719Y680253D01*
X125881Y680253D01*
X125881Y654122D02*
X114719Y654122D01*
X114719Y658453D02*
X125881Y658453D01*
X125881Y662784D02*
X114719Y662784D01*
X114719Y667115D02*
X125881Y667115D01*
X125881Y671446D02*
X114719Y671446D01*
X114719Y675777D02*
X125881Y675777D01*
X125881Y680108D02*
X114719Y680108D01*
D15*
X222250Y680897D03*
X212250Y680897D03*
X212250Y703122D03*
X222250Y703122D03*
D26*
X453950Y639922D03*
X513950Y639922D03*
X513950Y677422D03*
X453950Y677422D03*
D22*
X194675Y706297D03*
X182675Y706297D03*
D15*
X183675Y718997D03*
X193675Y718997D03*
D27*
X558565Y644385D03*
X535065Y644385D03*
D28*
X530843Y614857D03*
X558343Y614857D03*
D15*
X222250Y692010D03*
X212250Y692010D03*
X222250Y669785D03*
X212250Y669785D03*
X222250Y658672D03*
X212250Y658672D03*
D19*
X255350Y671022D03*
X255350Y659022D03*
X379429Y656038D03*
X379429Y668038D03*
D22*
G36*
X370064Y706180D02*
X378018Y698226D01*
X371372Y691580D01*
X363418Y699534D01*
X370064Y706180D01*
G37*
G36*
X361578Y714665D02*
X369532Y706711D01*
X362886Y700065D01*
X354932Y708019D01*
X361578Y714665D01*
G37*
G36*
X342780Y617811D02*
X350734Y625765D01*
X357380Y619119D01*
X349426Y611165D01*
X342780Y617811D01*
G37*
G36*
X334295Y609326D02*
X342249Y617280D01*
X348895Y610634D01*
X340941Y602680D01*
X334295Y609326D01*
G37*
D19*
X578819Y625812D03*
X578819Y637812D03*
X470933Y705566D03*
X470933Y693566D03*
D29*
X429585Y661466D03*
X404585Y661466D03*
D30*
X433997Y696836D03*
X396997Y696836D03*
D22*
X449121Y705408D03*
X461121Y705408D03*
D15*
X450502Y694804D03*
X460502Y694804D03*
D19*
X553800Y718647D03*
X553800Y706647D03*
X528400Y706647D03*
X528400Y718647D03*
D25*
X560150Y696335D03*
X560150Y681335D03*
X569675Y696335D03*
X569675Y681335D03*
D14*
X549038Y682722D03*
X549038Y672722D03*
X579200Y717647D03*
X579200Y707647D03*
D31*
X121111Y428680D03*
X371123Y428680D03*
X621110Y428680D03*
X201320Y671122D03*
M02*
