G04 EAGLE Gerber RS-274X export*
G75*
%MOMM*%
%FSLAX34Y34*%
%LPD*%
%INSoldermask Bottom*%
%IPPOS*%
%AMOC8*
5,1,8,0,0,1.08239X$1,22.5*%
G01*
%ADD10C,1.727200*%


D10*
X33020Y25400D02*
X17780Y25400D01*
X17780Y50800D02*
X33020Y50800D01*
X33020Y76200D02*
X17780Y76200D01*
X17780Y101600D02*
X33020Y101600D01*
X33020Y127000D02*
X17780Y127000D01*
X17780Y152400D02*
X33020Y152400D01*
X33020Y177800D02*
X17780Y177800D01*
X17780Y203200D02*
X33020Y203200D01*
X33020Y228600D02*
X17780Y228600D01*
X17780Y254000D02*
X33020Y254000D01*
X33020Y279400D02*
X17780Y279400D01*
X17780Y304800D02*
X33020Y304800D01*
X33020Y330200D02*
X17780Y330200D01*
X17780Y355600D02*
X33020Y355600D01*
X33020Y381000D02*
X17780Y381000D01*
X17780Y406400D02*
X33020Y406400D01*
X33020Y431800D02*
X17780Y431800D01*
X17780Y457200D02*
X33020Y457200D01*
X33020Y482600D02*
X17780Y482600D01*
X17780Y508000D02*
X33020Y508000D01*
X170180Y25400D02*
X185420Y25400D01*
X185420Y50800D02*
X170180Y50800D01*
X170180Y76200D02*
X185420Y76200D01*
X185420Y101600D02*
X170180Y101600D01*
X170180Y127000D02*
X185420Y127000D01*
X185420Y152400D02*
X170180Y152400D01*
X170180Y177800D02*
X185420Y177800D01*
X185420Y203200D02*
X170180Y203200D01*
X170180Y228600D02*
X185420Y228600D01*
X185420Y254000D02*
X170180Y254000D01*
X170180Y279400D02*
X185420Y279400D01*
X185420Y304800D02*
X170180Y304800D01*
X170180Y330200D02*
X185420Y330200D01*
X185420Y355600D02*
X170180Y355600D01*
X170180Y381000D02*
X185420Y381000D01*
X185420Y406400D02*
X170180Y406400D01*
X170180Y431800D02*
X185420Y431800D01*
X185420Y457200D02*
X170180Y457200D01*
X170180Y482600D02*
X185420Y482600D01*
X185420Y508000D02*
X170180Y508000D01*
X-228600Y312420D02*
X-228600Y297180D01*
X-203200Y297180D02*
X-203200Y312420D01*
X-177800Y312420D02*
X-177800Y297180D01*
X-152400Y297180D02*
X-152400Y312420D01*
M02*
